<?xml version="1.0" standalone="no"?><!DOCTYPE svg PUBLIC "-//W3C//DTD SVG 20010904//EN" "http://www.w3.org/TR/2001/REC-SVG-20010904/DTD/svg10.dtd"><svg id="svg" version="1.0" xmlns="http://www.w3.org/2000/svg" width="380" height="380"><defs><style type="text/css"><![CDATA[.axis path,.axis line { fill: none; stroke: black; shape-rendering: crispEdges; } .axis text { font-family: sans-serif; font-size: 12px; } .line { stroke-width: 2; fill: none; } ]]></style> </defs><g transform="translate(40,40)"><g class="axis" style="fill:black;" transform="translate(0,300)"><g class="tick" style="opacity: 1;" transform="translate(0,0)"><line y2="6" x2="0"/><text dy=".71em" style="text-anchor: middle;" y="9" x="0">0</text></g><g class="tick" style="opacity: 1;" transform="translate(30,0)"><line y2="6" x2="0"/><text dy=".71em" style="text-anchor: middle;" y="9" x="0">10</text></g><g class="tick" style="opacity: 1;" transform="translate(60,0)"><line y2="6" x2="0"/><text dy=".71em" style="text-anchor: middle;" y="9" x="0">20</text></g><g class="tick" style="opacity: 1;" transform="translate(90,0)"><line y2="6" x2="0"/><text dy=".71em" style="text-anchor: middle;" y="9" x="0">30</text></g><g class="tick" style="opacity: 1;" transform="translate(120,0)"><line y2="6" x2="0"/><text dy=".71em" style="text-anchor: middle;" y="9" x="0">40</text></g><g class="tick" style="opacity: 1;" transform="translate(150,0)"><line y2="6" x2="0"/><text dy=".71em" style="text-anchor: middle;" y="9" x="0">50</text></g><g class="tick" style="opacity: 1;" transform="translate(180,0)"><line y2="6" x2="0"/><text dy=".71em" style="text-anchor: middle;" y="9" x="0">60</text></g><g class="tick" style="opacity: 1;" transform="translate(210,0)"><line y2="6" x2="0"/><text dy=".71em" style="text-anchor: middle;" y="9" x="0">70</text></g><g class="tick" style="opacity: 1;" transform="translate(240,0)"><line y2="6" x2="0"/><text dy=".71em" style="text-anchor: middle;" y="9" x="0">80</text></g><g class="tick" style="opacity: 1;" transform="translate(270,0)"><line y2="6" x2="0"/><text dy=".71em" style="text-anchor: middle;" y="9" x="0">90</text></g><g class="tick" style="opacity: 1;" transform="translate(300,0)"><line y2="6" x2="0"/><text dy=".71em" style="text-anchor: middle;" y="9" x="0">100</text></g><path class="domain" d="M0,6V0H300V6"/><text x="300" y="30" text-anchor="end">Clouds</text></g><g class="axis" style="fill:black;" transform=""><g class="tick" style="opacity: 1;" transform="translate(0,300)"><line x2="-6" y2="0"/><text dy=".32em" style="text-anchor: end;" x="-9" y="0">0</text></g><g class="tick" style="opacity: 1;" transform="translate(0,270)"><line x2="-6" y2="0"/><text dy=".32em" style="text-anchor: end;" x="-9" y="0">10</text></g><g class="tick" style="opacity: 1;" transform="translate(0,240)"><line x2="-6" y2="0"/><text dy=".32em" style="text-anchor: end;" x="-9" y="0">20</text></g><g class="tick" style="opacity: 1;" transform="translate(0,210)"><line x2="-6" y2="0"/><text dy=".32em" style="text-anchor: end;" x="-9" y="0">30</text></g><g class="tick" style="opacity: 1;" transform="translate(0,180)"><line x2="-6" y2="0"/><text dy=".32em" style="text-anchor: end;" x="-9" y="0">40</text></g><g class="tick" style="opacity: 1;" transform="translate(0,150)"><line x2="-6" y2="0"/><text dy=".32em" style="text-anchor: end;" x="-9" y="0">50</text></g><g class="tick" style="opacity: 1;" transform="translate(0,120)"><line x2="-6" y2="0"/><text dy=".32em" style="text-anchor: end;" x="-9" y="0">60</text></g><g class="tick" style="opacity: 1;" transform="translate(0,90.00000000000001)"><line x2="-6" y2="0"/><text dy=".32em" style="text-anchor: end;" x="-9" y="0">70</text></g><g class="tick" style="opacity: 1;" transform="translate(0,59.999999999999986)"><line x2="-6" y2="0"/><text dy=".32em" style="text-anchor: end;" x="-9" y="0">80</text></g><g class="tick" style="opacity: 1;" transform="translate(0,29.999999999999993)"><line x2="-6" y2="0"/><text dy=".32em" style="text-anchor: end;" x="-9" y="0">90</text></g><g class="tick" style="opacity: 1;" transform="translate(0,0)"><line x2="-6" y2="0"/><text dy=".32em" style="text-anchor: end;" x="-9" y="0">100</text></g><path class="domain" d="M-6,0H0V300H-6"/><text x="0" y="-10" text-anchor="end">Effect</text></g><path class="line" style="stroke:green;" d="M0,180L24,59.999999999999986L36,210L60,180L72,150L96,150L108,120L132,150L144,150L168.00000000000003,150L192,120L204.00000000000003,180L228,150L240,180L264,210L276,210L300,300"/><path class="line" style="stroke:red;" d="M0,150L24,0L36,180L60,150L72,120L96,59.999999999999986L108,90.00000000000001L132,120L144,120L168.00000000000003,120L192,120L204.00000000000003,120L228,90.00000000000001L240,150L264,150L276,150L300,300"/><path class="line" style="stroke:red;" d="M0,210L24,120L36,240L60,210L72,180L96,240L108,150L132,180L144,180L168.00000000000003,180L192,120L204.00000000000003,240L228,210L240,210L264,270L276,270L300,300"/></g></svg>