<?xml version="1.0" standalone="no"?><!DOCTYPE svg PUBLIC "-//W3C//DTD SVG 20010904//EN" "http://www.w3.org/TR/2001/REC-SVG-20010904/DTD/svg10.dtd"><svg id="svg" version="1.0" xmlns="http://www.w3.org/2000/svg" width="380" height="380"><defs><style type="text/css"><![CDATA[.axis path,.axis line { fill: none; stroke: black; shape-rendering: crispEdges; } .axis text { font-family: sans-serif; font-size: 12px; } .line { stroke-width: 2; fill: none; } ]]></style> </defs><g transform="translate(40,40)"><g class="axis" style="fill:black;" transform="translate(0,300)"><g class="tick" style="opacity: 1;" transform="translate(0,0)"><line y2="6" x2="0"/><text dy=".71em" style="text-anchor: middle;" y="9" x="0">0</text></g><g class="tick" style="opacity: 1;" transform="translate(30,0)"><line y2="6" x2="0"/><text dy=".71em" style="text-anchor: middle;" y="9" x="0">10</text></g><g class="tick" style="opacity: 1;" transform="translate(60,0)"><line y2="6" x2="0"/><text dy=".71em" style="text-anchor: middle;" y="9" x="0">20</text></g><g class="tick" style="opacity: 1;" transform="translate(90,0)"><line y2="6" x2="0"/><text dy=".71em" style="text-anchor: middle;" y="9" x="0">30</text></g><g class="tick" style="opacity: 1;" transform="translate(120,0)"><line y2="6" x2="0"/><text dy=".71em" style="text-anchor: middle;" y="9" x="0">40</text></g><g class="tick" style="opacity: 1;" transform="translate(150,0)"><line y2="6" x2="0"/><text dy=".71em" style="text-anchor: middle;" y="9" x="0">50</text></g><g class="tick" style="opacity: 1;" transform="translate(180,0)"><line y2="6" x2="0"/><text dy=".71em" style="text-anchor: middle;" y="9" x="0">60</text></g><g class="tick" style="opacity: 1;" transform="translate(210,0)"><line y2="6" x2="0"/><text dy=".71em" style="text-anchor: middle;" y="9" x="0">70</text></g><g class="tick" style="opacity: 1;" transform="translate(240,0)"><line y2="6" x2="0"/><text dy=".71em" style="text-anchor: middle;" y="9" x="0">80</text></g><g class="tick" style="opacity: 1;" transform="translate(270,0)"><line y2="6" x2="0"/><text dy=".71em" style="text-anchor: middle;" y="9" x="0">90</text></g><g class="tick" style="opacity: 1;" transform="translate(300,0)"><line y2="6" x2="0"/><text dy=".71em" style="text-anchor: middle;" y="9" x="0">100</text></g><path class="domain" d="M0,6V0H300V6"/><text x="300" y="30" text-anchor="end">Clouds</text></g><g class="axis" style="fill:black;" transform=""><g class="tick" style="opacity: 1;" transform="translate(0,300)"><line x2="-6" y2="0"/><text dy=".32em" style="text-anchor: end;" x="-9" y="0">0</text></g><g class="tick" style="opacity: 1;" transform="translate(0,266.66666666666663)"><line x2="-6" y2="0"/><text dy=".32em" style="text-anchor: end;" x="-9" y="0">10</text></g><g class="tick" style="opacity: 1;" transform="translate(0,233.33333333333334)"><line x2="-6" y2="0"/><text dy=".32em" style="text-anchor: end;" x="-9" y="0">20</text></g><g class="tick" style="opacity: 1;" transform="translate(0,200.00000000000003)"><line x2="-6" y2="0"/><text dy=".32em" style="text-anchor: end;" x="-9" y="0">30</text></g><g class="tick" style="opacity: 1;" transform="translate(0,166.66666666666669)"><line x2="-6" y2="0"/><text dy=".32em" style="text-anchor: end;" x="-9" y="0">40</text></g><g class="tick" style="opacity: 1;" transform="translate(0,133.33333333333331)"><line x2="-6" y2="0"/><text dy=".32em" style="text-anchor: end;" x="-9" y="0">50</text></g><g class="tick" style="opacity: 1;" transform="translate(0,100.00000000000001)"><line x2="-6" y2="0"/><text dy=".32em" style="text-anchor: end;" x="-9" y="0">60</text></g><g class="tick" style="opacity: 1;" transform="translate(0,66.66666666666666)"><line x2="-6" y2="0"/><text dy=".32em" style="text-anchor: end;" x="-9" y="0">70</text></g><g class="tick" style="opacity: 1;" transform="translate(0,33.33333333333335)"><line x2="-6" y2="0"/><text dy=".32em" style="text-anchor: end;" x="-9" y="0">80</text></g><g class="tick" style="opacity: 1;" transform="translate(0,0)"><line x2="-6" y2="0"/><text dy=".32em" style="text-anchor: end;" x="-9" y="0">90</text></g><path class="domain" d="M-6,0H0V300H-6"/><text x="0" y="-10" text-anchor="end">Effect</text></g><path class="line" style="stroke:green;" d="M0,100.00000000000001L24,100.00000000000001L36,133.33333333333331L60,166.66666666666669L72,66.66666666666666L96,133.33333333333331L108,166.66666666666669L132,166.66666666666669L144,133.33333333333331L168.00000000000003,133.33333333333331L192,133.33333333333331L204.00000000000003,166.66666666666669L228,166.66666666666669L240,166.66666666666669L264,166.66666666666669L276,200.00000000000003L300,300"/><path class="line" style="stroke:red;" d="M0,0L24,0L36,33.33333333333335L60,66.66666666666666L72,0L96,33.33333333333335L108,66.66666666666666L132,100.00000000000001L144,66.66666666666666L168.00000000000003,33.33333333333335L192,66.66666666666666L204.00000000000003,100.00000000000001L228,66.66666666666666L240,100.00000000000001L264,66.66666666666666L276,133.33333333333331L300,300"/><path class="line" style="stroke:red;" d="M0,200.00000000000003L24,200.00000000000003L36,233.33333333333334L60,266.66666666666663L72,133.33333333333331L96,233.33333333333334L108,266.66666666666663L132,233.33333333333334L144,200.00000000000003L168.00000000000003,233.33333333333334L192,200.00000000000003L204.00000000000003,233.33333333333334L228,266.66666666666663L240,233.33333333333334L264,266.66666666666663L276,266.66666666666663L300,300"/></g></svg>