<?xml version="1.0" standalone="no"?><!DOCTYPE svg PUBLIC "-//W3C//DTD SVG 20010904//EN" "http://www.w3.org/TR/2001/REC-SVG-20010904/DTD/svg10.dtd"><svg id="svg" version="1.0" xmlns="http://www.w3.org/2000/svg" width="380" height="380"><defs><style type="text/css"><![CDATA[.axis path,.axis line { fill: none; stroke: black; shape-rendering: crispEdges; } .axis text { font-family: sans-serif; font-size: 12px; } .line { stroke-width: 2; fill: none; } ]]></style> </defs><g transform="translate(40,40)"><g class="axis" style="fill:black;" transform="translate(0,300)"><g class="tick" style="opacity: 1;" transform="translate(0,0)"><line y2="6" x2="0"/><text dy=".71em" style="text-anchor: middle;" y="9" x="0">0</text></g><g class="tick" style="opacity: 1;" transform="translate(32.608695652173914,0)"><line y2="6" x2="0"/><text dy=".71em" style="text-anchor: middle;" y="9" x="0">10</text></g><g class="tick" style="opacity: 1;" transform="translate(65.21739130434783,0)"><line y2="6" x2="0"/><text dy=".71em" style="text-anchor: middle;" y="9" x="0">20</text></g><g class="tick" style="opacity: 1;" transform="translate(97.82608695652173,0)"><line y2="6" x2="0"/><text dy=".71em" style="text-anchor: middle;" y="9" x="0">30</text></g><g class="tick" style="opacity: 1;" transform="translate(130.43478260869566,0)"><line y2="6" x2="0"/><text dy=".71em" style="text-anchor: middle;" y="9" x="0">40</text></g><g class="tick" style="opacity: 1;" transform="translate(163.04347826086956,0)"><line y2="6" x2="0"/><text dy=".71em" style="text-anchor: middle;" y="9" x="0">50</text></g><g class="tick" style="opacity: 1;" transform="translate(195.65217391304347,0)"><line y2="6" x2="0"/><text dy=".71em" style="text-anchor: middle;" y="9" x="0">60</text></g><g class="tick" style="opacity: 1;" transform="translate(228.2608695652174,0)"><line y2="6" x2="0"/><text dy=".71em" style="text-anchor: middle;" y="9" x="0">70</text></g><g class="tick" style="opacity: 1;" transform="translate(260.8695652173913,0)"><line y2="6" x2="0"/><text dy=".71em" style="text-anchor: middle;" y="9" x="0">80</text></g><g class="tick" style="opacity: 1;" transform="translate(293.47826086956525,0)"><line y2="6" x2="0"/><text dy=".71em" style="text-anchor: middle;" y="9" x="0">90</text></g><path class="domain" d="M0,6V0H300V6"/><text x="300" y="30" text-anchor="end">Clouds</text></g><g class="axis" style="fill:black;" transform=""><g class="tick" style="opacity: 1;" transform="translate(0,300)"><line x2="-6" y2="0"/><text dy=".32em" style="text-anchor: end;" x="-9" y="0">0</text></g><g class="tick" style="opacity: 1;" transform="translate(0,270)"><line x2="-6" y2="0"/><text dy=".32em" style="text-anchor: end;" x="-9" y="0">10</text></g><g class="tick" style="opacity: 1;" transform="translate(0,240)"><line x2="-6" y2="0"/><text dy=".32em" style="text-anchor: end;" x="-9" y="0">20</text></g><g class="tick" style="opacity: 1;" transform="translate(0,210)"><line x2="-6" y2="0"/><text dy=".32em" style="text-anchor: end;" x="-9" y="0">30</text></g><g class="tick" style="opacity: 1;" transform="translate(0,180)"><line x2="-6" y2="0"/><text dy=".32em" style="text-anchor: end;" x="-9" y="0">40</text></g><g class="tick" style="opacity: 1;" transform="translate(0,150)"><line x2="-6" y2="0"/><text dy=".32em" style="text-anchor: end;" x="-9" y="0">50</text></g><g class="tick" style="opacity: 1;" transform="translate(0,120)"><line x2="-6" y2="0"/><text dy=".32em" style="text-anchor: end;" x="-9" y="0">60</text></g><g class="tick" style="opacity: 1;" transform="translate(0,90.00000000000001)"><line x2="-6" y2="0"/><text dy=".32em" style="text-anchor: end;" x="-9" y="0">70</text></g><g class="tick" style="opacity: 1;" transform="translate(0,59.999999999999986)"><line x2="-6" y2="0"/><text dy=".32em" style="text-anchor: end;" x="-9" y="0">80</text></g><g class="tick" style="opacity: 1;" transform="translate(0,29.999999999999993)"><line x2="-6" y2="0"/><text dy=".32em" style="text-anchor: end;" x="-9" y="0">90</text></g><g class="tick" style="opacity: 1;" transform="translate(0,0)"><line x2="-6" y2="0"/><text dy=".32em" style="text-anchor: end;" x="-9" y="0">100</text></g><path class="domain" d="M-6,0H0V300H-6"/><text x="0" y="-10" text-anchor="end">Effect</text></g><path class="line" style="stroke:green;" d="M0,59.999999999999986L26.08695652173913,120L39.130434782608695,120L65.21739130434783,180L78.26086956521739,120L104.34782608695652,180L117.3913043478261,210L143.47826086956522,150L156.52173913043478,150L182.60869565217394,240L208.69565217391303,150L221.7391304347826,180L247.82608695652175,180L260.8695652173913,150L286.95652173913044,150L300,180"/><path class="line" style="stroke:red;" d="M0,0L26.08695652173913,59.999999999999986L39.130434782608695,59.999999999999986M78.26086956521739,29.999999999999993L104.34782608695652,90.00000000000001L117.3913043478261,150L143.47826086956522,59.999999999999986L156.52173913043478,59.999999999999986L182.60869565217394,180L208.69565217391303,90.00000000000001L221.7391304347826,120L247.82608695652175,90.00000000000001L260.8695652173913,59.999999999999986L286.95652173913044,29.999999999999993L300,120"/><path class="line" style="stroke:red;" d="M0,120L26.08695652173913,180L39.130434782608695,180M78.26086956521739,210L104.34782608695652,270L117.3913043478261,270L143.47826086956522,240L156.52173913043478,240L182.60869565217394,300L208.69565217391303,210L221.7391304347826,240L247.82608695652175,270L260.8695652173913,240L286.95652173913044,270L300,240"/></g></svg>