<?xml version="1.0" standalone="no"?>
<!DOCTYPE svg PUBLIC "-//W3C//DTD SVG 20010904//EN"
"http://www.w3.org/TR/2001/REC-SVG-20010904/DTD/svg10.dtd">
<svg version="1.0" xmlns="http://www.w3.org/2000/svg"  width="1560" height="580">
  <defs>
    <style type="text/css"><![CDATA[
    .axis path,
    .axis line {
    fill: none;
    stroke: black;
    shape-rendering: crispEdges;
    }
    
    .axis text {
    font-family: sans-serif;
    font-size: 12px;
    }
    .line {
    stroke-width: 2;
    fill: none;
    }
    ]]></style>
  </defs>

  <g transform="translate(40,40)"><g class="axis" transform="translate(0,500)" style="fill: rgb(0, 0, 0);"><g class="tick" transform="translate(0,0)" style="opacity: 1;"><line y2="6" x2="0"></line><text dy=".71em" y="9" x="0" style="text-anchor: middle;">May</text></g><g class="tick" transform="translate(50.44827586206897,0)" style="opacity: 1;"><line y2="6" x2="0"></line><text dy=".71em" y="9" x="0" style="text-anchor: middle;">Sat 02</text></g><g class="tick" transform="translate(100.89655172413794,0)" style="opacity: 1;"><line y2="6" x2="0"></line><text dy=".71em" y="9" x="0" style="text-anchor: middle;">May 03</text></g><g class="tick" transform="translate(151.3448275862069,0)" style="opacity: 1;"><line y2="6" x2="0"></line><text dy=".71em" y="9" x="0" style="text-anchor: middle;">Mon 04</text></g><g class="tick" transform="translate(201.79310344827587,0)" style="opacity: 1;"><line y2="6" x2="0"></line><text dy=".71em" y="9" x="0" style="text-anchor: middle;">Tue 05</text></g><g class="tick" transform="translate(252.24137931034485,0)" style="opacity: 1;"><line y2="6" x2="0"></line><text dy=".71em" y="9" x="0" style="text-anchor: middle;">Wed 06</text></g><g class="tick" transform="translate(302.6896551724138,0)" style="opacity: 1;"><line y2="6" x2="0"></line><text dy=".71em" y="9" x="0" style="text-anchor: middle;">Thu 07</text></g><g class="tick" transform="translate(353.1379310344828,0)" style="opacity: 1;"><line y2="6" x2="0"></line><text dy=".71em" y="9" x="0" style="text-anchor: middle;">Fri 08</text></g><g class="tick" transform="translate(403.58620689655174,0)" style="opacity: 1;"><line y2="6" x2="0"></line><text dy=".71em" y="9" x="0" style="text-anchor: middle;">Sat 09</text></g><g class="tick" transform="translate(454.0344827586207,0)" style="opacity: 1;"><line y2="6" x2="0"></line><text dy=".71em" y="9" x="0" style="text-anchor: middle;">May 10</text></g><g class="tick" transform="translate(504.4827586206897,0)" style="opacity: 1;"><line y2="6" x2="0"></line><text dy=".71em" y="9" x="0" style="text-anchor: middle;">Mon 11</text></g><g class="tick" transform="translate(554.9310344827586,0)" style="opacity: 1;"><line y2="6" x2="0"></line><text dy=".71em" y="9" x="0" style="text-anchor: middle;">Tue 12</text></g><g class="tick" transform="translate(605.3793103448276,0)" style="opacity: 1;"><line y2="6" x2="0"></line><text dy=".71em" y="9" x="0" style="text-anchor: middle;">Wed 13</text></g><g class="tick" transform="translate(655.8275862068965,0)" style="opacity: 1;"><line y2="6" x2="0"></line><text dy=".71em" y="9" x="0" style="text-anchor: middle;">Thu 14</text></g><g class="tick" transform="translate(706.2758620689656,0)" style="opacity: 1;"><line y2="6" x2="0"></line><text dy=".71em" y="9" x="0" style="text-anchor: middle;">Fri 15</text></g><g class="tick" transform="translate(756.7241379310345,0)" style="opacity: 1;"><line y2="6" x2="0"></line><text dy=".71em" y="9" x="0" style="text-anchor: middle;">Sat 16</text></g><g class="tick" transform="translate(807.1724137931035,0)" style="opacity: 1;"><line y2="6" x2="0"></line><text dy=".71em" y="9" x="0" style="text-anchor: middle;">May 17</text></g><g class="tick" transform="translate(857.6206896551723,0)" style="opacity: 1;"><line y2="6" x2="0"></line><text dy=".71em" y="9" x="0" style="text-anchor: middle;">Mon 18</text></g><g class="tick" transform="translate(908.0689655172414,0)" style="opacity: 1;"><line y2="6" x2="0"></line><text dy=".71em" y="9" x="0" style="text-anchor: middle;">Tue 19</text></g><g class="tick" transform="translate(958.5172413793103,0)" style="opacity: 1;"><line y2="6" x2="0"></line><text dy=".71em" y="9" x="0" style="text-anchor: middle;">Wed 20</text></g><g class="tick" transform="translate(1008.9655172413794,0)" style="opacity: 1;"><line y2="6" x2="0"></line><text dy=".71em" y="9" x="0" style="text-anchor: middle;">Thu 21</text></g><g class="tick" transform="translate(1059.4137931034484,0)" style="opacity: 1;"><line y2="6" x2="0"></line><text dy=".71em" y="9" x="0" style="text-anchor: middle;">Fri 22</text></g><g class="tick" transform="translate(1109.8620689655172,0)" style="opacity: 1;"><line y2="6" x2="0"></line><text dy=".71em" y="9" x="0" style="text-anchor: middle;">Sat 23</text></g><g class="tick" transform="translate(1160.3103448275863,0)" style="opacity: 1;"><line y2="6" x2="0"></line><text dy=".71em" y="9" x="0" style="text-anchor: middle;">May 24</text></g><g class="tick" transform="translate(1210.7586206896551,0)" style="opacity: 1;"><line y2="6" x2="0"></line><text dy=".71em" y="9" x="0" style="text-anchor: middle;">Mon 25</text></g><g class="tick" transform="translate(1261.206896551724,0)" style="opacity: 1;"><line y2="6" x2="0"></line><text dy=".71em" y="9" x="0" style="text-anchor: middle;">Tue 26</text></g><g class="tick" transform="translate(1311.655172413793,0)" style="opacity: 1;"><line y2="6" x2="0"></line><text dy=".71em" y="9" x="0" style="text-anchor: middle;">Wed 27</text></g><g class="tick" transform="translate(1362.103448275862,0)" style="opacity: 1;"><line y2="6" x2="0"></line><text dy=".71em" y="9" x="0" style="text-anchor: middle;">Thu 28</text></g><g class="tick" transform="translate(1412.5517241379312,0)" style="opacity: 1;"><line y2="6" x2="0"></line><text dy=".71em" y="9" x="0" style="text-anchor: middle;">Fri 29</text></g><g class="tick" transform="translate(1463,0)" style="opacity: 1;"><line y2="6" x2="0"></line><text dy=".71em" y="9" x="0" style="text-anchor: middle;">Sat 30</text></g><path class="domain" d="M0,6V0H1463V6"></path><text x="1463" y="30" text-anchor="end">Time</text></g><g class="axis" transform="" style="fill: rgb(0, 128, 0);"><g class="tick" transform="translate(0,500)" style="opacity: 1;"><line x2="-6" y2="0"></line><text dy=".32em" x="-9" y="0" style="text-anchor: end;">0</text></g><g class="tick" transform="translate(0,451.02840352595496)" style="opacity: 1;"><line x2="-6" y2="0"></line><text dy=".32em" x="-9" y="0" style="text-anchor: end;">500</text></g><g class="tick" transform="translate(0,402.05680705190986)" style="opacity: 1;"><line x2="-6" y2="0"></line><text dy=".32em" x="-9" y="0" style="text-anchor: end;">1,000</text></g><g class="tick" transform="translate(0,353.08521057786487)" style="opacity: 1;"><line x2="-6" y2="0"></line><text dy=".32em" x="-9" y="0" style="text-anchor: end;">1,500</text></g><g class="tick" transform="translate(0,304.11361410381977)" style="opacity: 1;"><line x2="-6" y2="0"></line><text dy=".32em" x="-9" y="0" style="text-anchor: end;">2,000</text></g><g class="tick" transform="translate(0,255.14201762977473)" style="opacity: 1;"><line x2="-6" y2="0"></line><text dy=".32em" x="-9" y="0" style="text-anchor: end;">2,500</text></g><g class="tick" transform="translate(0,206.1704211557297)" style="opacity: 1;"><line x2="-6" y2="0"></line><text dy=".32em" x="-9" y="0" style="text-anchor: end;">3,000</text></g><g class="tick" transform="translate(0,157.1988246816846)" style="opacity: 1;"><line x2="-6" y2="0"></line><text dy=".32em" x="-9" y="0" style="text-anchor: end;">3,500</text></g><g class="tick" transform="translate(0,108.22722820763958)" style="opacity: 1;"><line x2="-6" y2="0"></line><text dy=".32em" x="-9" y="0" style="text-anchor: end;">4,000</text></g><g class="tick" transform="translate(0,59.25563173359449)" style="opacity: 1;"><line x2="-6" y2="0"></line><text dy=".32em" x="-9" y="0" style="text-anchor: end;">4,500</text></g><g class="tick" transform="translate(0,10.284035259549462)" style="opacity: 1;"><line x2="-6" y2="0"></line><text dy=".32em" x="-9" y="0" style="text-anchor: end;">5,000</text></g><path class="domain" d="M-6,0H0V500H-6"></path><text x="0" y="-10" text-anchor="end">Effect</text></g><g class="axis" transform="translate(1463,0)" style="fill: rgb(255, 0, 0);"><g class="tick" transform="translate(0,500)" style="opacity: 1;"><line x2="6" y2="0"></line><text dy=".32em" x="9" y="0" style="text-anchor: start;">0</text></g><g class="tick" transform="translate(0,450)" style="opacity: 1;"><line x2="6" y2="0"></line><text dy=".32em" x="9" y="0" style="text-anchor: start;">10</text></g><g class="tick" transform="translate(0,400)" style="opacity: 1;"><line x2="6" y2="0"></line><text dy=".32em" x="9" y="0" style="text-anchor: start;">20</text></g><g class="tick" transform="translate(0,350)" style="opacity: 1;"><line x2="6" y2="0"></line><text dy=".32em" x="9" y="0" style="text-anchor: start;">30</text></g><g class="tick" transform="translate(0,300)" style="opacity: 1;"><line x2="6" y2="0"></line><text dy=".32em" x="9" y="0" style="text-anchor: start;">40</text></g><g class="tick" transform="translate(0,250)" style="opacity: 1;"><line x2="6" y2="0"></line><text dy=".32em" x="9" y="0" style="text-anchor: start;">50</text></g><g class="tick" transform="translate(0,200)" style="opacity: 1;"><line x2="6" y2="0"></line><text dy=".32em" x="9" y="0" style="text-anchor: start;">60</text></g><g class="tick" transform="translate(0,150.00000000000003)" style="opacity: 1;"><line x2="6" y2="0"></line><text dy=".32em" x="9" y="0" style="text-anchor: start;">70</text></g><g class="tick" transform="translate(0,99.99999999999997)" style="opacity: 1;"><line x2="6" y2="0"></line><text dy=".32em" x="9" y="0" style="text-anchor: start;">80</text></g><g class="tick" transform="translate(0,49.999999999999986)" style="opacity: 1;"><line x2="6" y2="0"></line><text dy=".32em" x="9" y="0" style="text-anchor: start;">90</text></g><g class="tick" transform="translate(0,0)" style="opacity: 1;"><line x2="6" y2="0"></line><text dy=".32em" x="9" y="0" style="text-anchor: start;">100</text></g><path class="domain" d="M6,0H0V500H6"></path><text x="0" y="-10" text-anchor="start">Clouds</text></g><path class="line" d="M40.39715756704981,339.99999999999994L41.449914990421455,339.99999999999994L42.50442409003831,339.99999999999994L43.5577654054917,339.99999999999994M63.61796176564495,500L64.66896751277139,500L65.7211410440613,500L66.59114024584929,500L67.82432032247765,500L68.87766163793103,500L70.00282167943806,500L71.05674688697317,460L72.1089204182631,460L73.16051005747126,460L74.21268358876118,460L75.26485712005109,460L76.31586286717753,460L77.36745250638569,500L78.41904214559388,500L79.54245051085569,500L80.59345625798213,500L81.64446200510855,500L82.69663553639847,500L83.7476412835249,500L84.80039870689656,500L85.85257223818647,500L86.90416187739464,500L87.95633540868455,500L89.00850893997446,500L90.06009857918264,500L91.11227211047255,500L92.16386174968072,500L93.21545138888888,500L94.26704102809707,500M114.25366698595145,500L115.30584051724138,460L116.35801404853129,460L117.40901979565773,460L118.46060943486589,460L119.33002474457216,460L120.56495649744572,460L121.61713002873563,339.99999999999994L122.67222302043423,339.99999999999994L123.72439655172414,339.99999999999994L124.7759861909323,339.99999999999994L124.7759861909323,339.99999999999994L126.87799768518518,339.99999999999994L127.93192289272031,180L128.98468031609195,180L130.03685384738188,180L131.08961127075352,180L132.14120090996167,180L133.19220665708812,180L134.2437962962963,60L135.29596982758622,60L136.34872725095786,60L137.3997329980843,60L138.45307431353766,60L139.5058317369093,339.99999999999994L140.56092472860792,120L141.61368215197956,120L142.6693590357599,120L143.72211645913154,120L144.59328344508302,120M164.08360113346106,39.99999999999998L165.13460688058748,60L166.18619651979566,60L167.23778615900383,60L168.28879190613026,60L169.34038154533843,60L170.3919711845466,60L171.44297693167306,99.99999999999997L172.49456657088123,99.99999999999997L173.54557231800766,99.99999999999997L174.59716195721583,99.99999999999997L175.64816770434228,99.99999999999997L176.69975734355046,99.99999999999997L177.7513469827586,120L178.80410440613025,120L179.8551101532567,120L180.90728368454663,120L181.9588733237548,120L183.00987907088123,120L184.0614687100894,120L184.0614687100894,120L186.16581577266922,120L187.22032487228608,120L188.27249840357598,120L189.39882622924648,120L190.52398627075354,120L191.57615980204343,120L192.44440732758622,120L193.67933908045975,120L194.73092871966793,120M214.70821240421455,320L215.759218151341,39.99999999999998L216.81080779054918,39.99999999999998L217.8618135376756,39.99999999999998L218.91340317688378,39.99999999999998L219.96557670817367,39.99999999999998L221.01658245530012,39.99999999999998L221.8848299808429,0L223.11917784163475,0L223.98742536717754,0L225.22235712005107,0L226.27394675925925,0L226.27394675925925,0L228.37654214559387,39.99999999999998L229.42754789272033,39.99999999999998L230.4791375319285,39.99999999999998L231.53072717113665,39.99999999999998L232.58173291826307,39.99999999999998L233.6356581257982,39.99999999999998L234.6872477650064,39.99999999999998L235.73825351213281,39.99999999999998L236.789843151341,39.99999999999998L237.84084889846744,39.99999999999998L238.89243853767562,39.99999999999998L239.94402817688376,39.99999999999998L240.99503392401022,60L241.86328144955297,60L243.0987970945083,60L244.29227250957854,60L244.29227250957854,60M265.3258169699872,39.99999999999998L266.37682271711367,60L267.42841235632187,60L268.47941810344827,60L269.53100774265647,60L270.58201348978287,60L271.63360312899107,60L272.6846088761175,120L273.7356146232439,120L274.78778815453387,120L275.83879390166027,120L276.89038354086847,120L277.94138928799487,120L278.99297892720307,99.99999999999997L280.0445685664113,99.99999999999997L281.09557431353767,99.99999999999997L282.1471639527458,99.99999999999997L283.198753591954,99.99999999999997L284.25034323116216,99.99999999999997L285.1174229725415,39.99999999999998L286.35235472541507,39.99999999999998L287.40394436462327,39.99999999999998L288.2716079980843,39.99999999999998L289.51121088761175,39.99999999999998L290.56280052681996,39.99999999999998L291.6143901660281,39.99999999999998L292.66597980523625,39.99999999999998L293.7169855523627,39.99999999999998L294.58464918582376,39.99999999999998L295.82016483077905,39.99999999999998M315.8073746807152,39.99999999999998L316.8583804278416,39.99999999999998L317.9099700670498,39.99999999999998L318.96097581417627,39.99999999999998L320.0125654533844,39.99999999999998L321.06415509259256,39.99999999999998L322.115160839719,39.99999999999998L322.9822405810983,39.99999999999998L324.0338302203065,39.99999999999998L325.2687619731801,39.99999999999998L326.3203516123882,39.99999999999998L327.37135735951466,39.99999999999998L328.42294699872286,39.99999999999998L329.474536637931,60L330.52554238505746,60L331.5765481321839,60L332.62813777139206,60L333.6791435185185,60L334.7307331577267,60L335.7875778256705,159.99999999999997L336.83916746487864,159.99999999999997L337.8901732120051,159.99999999999997L337.8901732120051,159.99999999999997L339.9968558429119,159.99999999999997L341.0478615900383,159.99999999999997L342.1012029054917,320L343.1522086526181,320L344.20379829182633,320L345.2559718231162,320L346.3828835408685,320M366.3642544699872,460L367.4152602171137,440L368.4668498563218,440L369.5178556034483,440L370.5688613505747,440L371.43535719987227,440L372.67145673690936,440L373.72246248403576,320L374.77405212324396,320L375.8256417624521,320L376.8766475095785,320L377.7431433588761,320L378.7941491060026,500L380.03200031928486,380L381.0841738505747,380L382.1351795977011,380L383.1867692369093,380L384.2377749840358,380L385.28936462324396,380L386.34153815453385,500L387.393127793742,500L388.25086526181354,500L389.4957231800766,500L389.4957231800766,500L391.59890245849294,500L392.65049209770115,400L393.43757862388253,400L394.75308748403575,400L395.8058449074074,400L396.8615217911877,400M416.84931553320564,159.99999999999997L417.9009051724138,39.99999999999998L418.952494811622,39.99999999999998L418.952494811622,39.99999999999998L421.0545063058749,39.99999999999998L422.106095945083,39.99999999999998L422.106095945083,39.99999999999998L424.20869133141764,39.99999999999998L424.20869133141764,39.99999999999998L426.311870609834,39.99999999999998L427.1777825670498,39.99999999999998L428.4144659961686,39.99999999999998L429.465471743295,39.99999999999998L430.5170613825032,39.99999999999998L431.56865102171133,39.99999999999998L432.61965676883784,39.99999999999998L433.67124640804604,39.99999999999998L434.72225215517244,39.99999999999998L435.7738417943806,39.99999999999998L436.824847541507,120L437.8764371807152,120L438.74234913793106,120L439.9790325670498,120L441.03003831417624,120L442.08221184546613,120L443.13380148467434,99.99999999999997L444.18889447637287,99.99999999999997L445.2410680076628,99.99999999999997L446.292657646871,99.99999999999997L447.35008620689655,99.99999999999997M466.702021471903,219.99999999999997L467.7530272190294,500L468.80520075031933,500L469.8567903895275,500L470.90779613665393,500L471.9593857758621,500L473.01039152298847,500L474.0619811621967,380L475.1129869093231,380L476.1645765485313,380L477.2161661877394,380L478.2677558269476,380L479.32343271072796,380L480.37502234993616,500L481.4266119891443,500L482.4787855204342,500L483.53154294380585,500L484.58254869093236,500L485.6411450351213,500L486.6944863505747,500L487.74724377394637,500L488.800001197318,500L489.8515908365262,500L490.90318047573436,500L491.9541862228608,500L493.00577586206896,460L494.05736550127716,460L495.109539032567,460L496.16288034802045,460L497.21680555555554,460M517.1975925925926,320L518.2491822318008,280L519.3001879789272,280L520.1655160440613,280L521.4027833652618,280L522.4549568965517,280L523.6501839878672,280L524.7041091954023,260L525.756866618774,260L526.8090401500639,260L527.6749521072798,260L528.6850854086846,260L529.9649768518518,260L531.0159825989783,99.99999999999997L532.0675722381865,99.99999999999997L533.1191618773947,99.99999999999997L534.1701676245211,99.99999999999997L535.2217572637293,99.99999999999997L536.2733469029374,99.99999999999997L537.3243526500638,260L538.3759422892721,260L539.4275319284802,260L540.4785376756066,260L541.5301273148148,260L542.581716954023,400L543.6333065932312,320L544.6848962324393,320L545.7364858716475,320L546.7886594029375,320L547.8396651500639,320M567.8146132662836,39.99999999999998L568.8662029054917,39.99999999999998L569.9177925446999,39.99999999999998L570.9687982918263,39.99999999999998L572.0203879310345,39.99999999999998L573.0719775702427,39.99999999999998L574.1229833173691,39.99999999999998L575.1745729565772,39.99999999999998L576.2261625957855,39.99999999999998L577.2777522349936,39.99999999999998L578.3293418742018,39.99999999999998L579.38093151341,39.99999999999998L580.4331050446998,39.99999999999998L581.4846946839081,39.99999999999998L582.5362843231162,39.99999999999998L583.5878739623244,39.99999999999998L584.6388797094509,39.99999999999998L585.6916371328225,39.99999999999998L585.6916371328225,39.99999999999998L587.7971519795658,39.99999999999998L588.8516610791826,39.99999999999998L589.9050023946361,39.99999999999998L590.9571759259259,39.99999999999998L592.0093494572159,39.99999999999998L593.5525762292465,39.99999999999998L594.6035819763729,39.99999999999998L595.6557555076628,39.99999999999998L596.7090968231162,39.99999999999998L597.7606864623244,39.99999999999998L598.8146116698596,39.99999999999998M618.7918953544062,39.99999999999998L619.8434849936143,500L620.8950746328225,500L621.7586510217113,500L622.822502394636,500L624.0621052841635,500L625.1136949233717,500L625.9772713122605,39.99999999999998L627.0288609514687,39.99999999999998L628.2678799489145,39.99999999999998L629.3194695881226,39.99999999999998L630.370475335249,39.99999999999998L631.4991387292464,39.99999999999998L632.5507283684547,39.99999999999998L633.6017341155812,39.99999999999998L634.3532032247765,39.99999999999998L635.7043295019157,39.99999999999998L636.7559191411239,39.99999999999998L637.8075087803321,39.99999999999998L638.8585145274585,39.99999999999998L639.9101041666667,39.99999999999998L640.9616938058748,39.99999999999998L640.9616938058748,39.99999999999998L643.0642891922095,39.99999999999998L644.1158788314176,39.99999999999998L644.1158788314176,39.99999999999998L646.2184742177523,39.99999999999998L647.2694799648787,39.99999999999998L648.3210696040868,39.99999999999998L649.3720753512133,39.99999999999998M733.0128643837803,500L734.0644540229886,500L734.0644540229886,500L736.1682171934866,500L737.219222940613,500L738.2708125798213,500L739.3224022190294,500L740.3739918582376,500L741.424997605364,500L742.4765872445722,500L743.5281768837804,500L744.5797665229885,500L745.6307722701149,460L746.4931808748404,460L747.7333676564496,460L748.7849572956577,500L749.8359630427841,460M769.8103272669221,39.99999999999998L770.8619169061303,99.99999999999997L771.9129226532567,99.99999999999997L772.9645122924649,99.99999999999997L774.016101931673,99.99999999999997L775.0671076787994,159.99999999999997L776.1181134259259,159.99999999999997L777.1697030651341,39.99999999999998L778.2207088122606,39.99999999999998L779.2722984514688,39.99999999999998L780.3233041985952,39.99999999999998L781.3748938378034,39.99999999999998L781.3748938378034,39.99999999999998L783.4769053320562,39.99999999999998L784.5284949712643,39.99999999999998L785.5795007183908,39.99999999999998L786.631090357599,39.99999999999998L787.4929150702427,39.99999999999998L788.7331018518519,39.99999999999998L788.7331018518519,39.99999999999998L790.6465162037036,320L791.8867029853129,320L792.9377087324393,320L793.9892983716475,320L795.0403041187739,219.99999999999997L796.0913098659003,460L797.1434833971903,460L798.196240820562,460L799.2478304597702,500L800.2994200989783,460M820.2732004310345,39.99999999999998L821.3242061781609,39.99999999999998L822.3752119252873,39.99999999999998L823.4268015644956,219.99999999999997L824.477807311622,39.99999999999998L825.5293969508301,39.99999999999998L826.5804026979565,219.99999999999997L827.6319923371647,39.99999999999998L828.6841658684547,39.99999999999998L829.7363393997447,39.99999999999998L829.7363393997447,39.99999999999998L831.6503376436781,99.99999999999997L832.8916922094508,39.99999999999998L833.9444496328225,39.99999999999998L834.9954553799489,39.99999999999998L836.047045019157,39.99999999999998L836.047045019157,39.99999999999998L838.1513920817368,39.99999999999998L839.2023978288634,39.99999999999998L840.2539874680716,39.99999999999998L841.304993215198,39.99999999999998L842.3571667464879,39.99999999999998L843.4087563856962,39.99999999999998L844.4597621328226,39.99999999999998L845.5113517720307,39.99999999999998L846.5623575191571,39.99999999999998L847.6139471583652,60L848.6649529054916,39.99999999999998L849.7165425446999,39.99999999999998L850.7687160759898,39.99999999999998M870.7436641922094,180L871.7946699393358,120L872.846259578544,39.99999999999998L873.898433109834,120L874.9494388569603,120L876.0010284961686,120L877.052034243295,120L878.1036238825031,39.99999999999998L879.1546296296297,39.99999999999998L880.205635376756,39.99999999999998L881.2572250159643,39.99999999999998L882.1178819444444,39.99999999999998L883.0392636494253,39.99999999999998L884.411410041507,39.99999999999998L885.4624157886335,39.99999999999998L886.5134215357599,39.99999999999998L887.3740784642401,39.99999999999998L888.6160169220944,39.99999999999998L889.667022669221,39.99999999999998L890.7186123084292,39.99999999999998L891.7702019476374,39.99999999999998L892.6308588761175,39.99999999999998L892.6308588761175,39.99999999999998L894.9238030810984,39.99999999999998L895.9753927203066,39.99999999999998L897.026398467433,39.99999999999998L898.0774042145594,39.99999999999998L899.1289938537675,39.99999999999998L899.9896507822478,39.99999999999998L901.2315892401022,39.99999999999998M921.2053695721584,120L922.2569592113665,39.99999999999998L923.3079649584929,39.99999999999998L924.3589707056195,39.99999999999998L925.4105603448277,39.99999999999998L926.5368881704981,500L927.5890617017881,500L928.6406513409962,280L929.6916570881226,380L930.7432467273308,380L931.7954202586208,280L932.8470098978289,280L933.8991834291187,280L934.9525247445722,39.99999999999998L936.0035304916986,39.99999999999998L936.0035304916986,39.99999999999998L938.1061258780333,39.99999999999998L939.1577155172414,39.99999999999998L940.2087212643678,39.99999999999998L941.2603109035759,39.99999999999998L942.3119005427842,39.99999999999998L943.3629062899106,39.99999999999998L944.4144959291187,39.99999999999998L945.4660855683269,39.99999999999998L946.5176752075351,39.99999999999998L947.5686809546615,39.99999999999998L948.6202705938697,39.99999999999998L949.6718602330778,39.99999999999998L950.7228659802042,39.99999999999998L951.7849656768838,39.99999999999998M971.5724844348659,260L972.815006784802,39.99999999999998L973.8677642081738,60L974.9193538473819,39.99999999999998L975.9715273786717,60L977.0231170178798,60L978.0741227650065,60L979.1262962962962,339.99999999999994L980.1778859355044,339.99999999999994L981.228891682631,339.99999999999994L982.2798974297574,60L983.3314870689655,339.99999999999994L984.1921439974457,339.99999999999994L985.4352502394636,159.99999999999997L986.4868398786717,159.99999999999997L987.5378456257982,39.99999999999998L988.5894352650063,159.99999999999997L989.6410249042145,159.99999999999997L990.6926145434227,159.99999999999997L991.7436202905492,120L992.7952099297574,120L993.8462156768838,60L994.897805316092,120L995.9493949553001,120L995.9493949553001,120L998.0519903416348,60L999.1035799808429,60L1000.155753512133,60L1001.2067592592593,60L1002.2583488984675,60M1023.285470545977,159.99999999999997L1024.3364762931035,159.99999999999997L1025.3874820402298,159.99999999999997L1026.439071679438,39.99999999999998L1027.4906613186463,159.99999999999997L1028.5416670657726,159.99999999999997L1029.5932567049808,120L1030.6442624521073,120L1031.6952681992339,99.99999999999997L1032.7468578384419,120L1033.7978635855684,120L1034.8488693326947,99.99999999999997L1035.900458971903,280L1036.9520486111112,280L1038.0030543582375,280L1039.0546439974457,280L1040.105649744572,280L1041.1572393837803,280L1042.2082451309068,39.99999999999998L1043.259834770115,39.99999999999998L1044.3108405172413,39.99999999999998L1045.170329661558,460L1046.4146036877394,39.99999999999998L1047.4661933269476,39.99999999999998L1048.5177829661557,60L1049.5687887132824,60L1050.6209622445722,60L1051.673135775862,60L1052.795960249042,60M1072.7732439335887,39.99999999999998L1073.8242496807152,39.99999999999998L1074.8758393199232,39.99999999999998L1075.92684506705,39.99999999999998L1076.694079262452,39.99999999999998L1078.0294404533845,39.99999999999998L1079.0816139846745,39.99999999999998L1080.1332036238825,219.99999999999997L1080.1332036238825,219.99999999999997L1082.2352151181353,219.99999999999997L1083.2868047573436,219.99999999999997L1084.3378105044699,219.99999999999997L1085.3894001436781,219.99999999999997L1086.4404058908046,440L1087.4919955300127,180L1088.5430012771392,440L1089.5940070242657,180L1090.645596663474,440L1091.6966024106002,440L1092.7481920498085,460L1093.7997816890168,460L1094.850787436143,460L1095.9023770753513,460L1096.9539667145593,460L1097.8122880747126,280L1099.056562100894,400L1100.1075678480204,400L1101.1591574872286,39.99999999999998L1102.2113310185186,400L1103.2629206577267,400M1123.2372848818645,500L1124.288290628991,400L1125.3392963761175,400L1126.3908860153258,400L1127.441891762452,400L1128.4928975095786,400L1129.5444871487866,320L1130.5954928959131,500L1131.6470825351212,500L1132.698088282248,500L1133.749677921456,500L1134.801267560664,400L1135.8522733077907,500L1135.8522733077907,500L1137.9548686941253,500L1139.0064583333333,500L1140.0539607279693,500L1141.108469827586,500L1142.1600594667943,500L1143.2110652139208,500L1144.2626548531289,500L1145.3136606002556,500L1146.3652502394634,500L1147.4168398786717,500L1148.46842951788,500L1149.5206030491697,500L1150.5727765804597,500L1151.6249501117497,500L1152.676539750958,500L1153.7287132822478,500M1173.7071647509579,440L1174.7581704980844,500L1174.7581704980844,500L1176.860765884419,500L1177.9123555236272,500L1178.9633612707535,400L1180.0155348020435,500L1181.06654054917,460L1182.1198818646233,460L1183.1773104246488,460L1184.228900063857,460L1185.2799058109833,460L1186.3314954501916,460L1187.3836689814816,460L1188.4352586206896,460L1189.4862643678161,180L1190.5372701149424,460L1191.5982020274585,460L1192.6527111270752,180L1193.7072202266922,159.99999999999997L1194.761729326309,159.99999999999997L1195.8139028575988,159.99999999999997L1196.8649086047255,159.99999999999997L1197.9164982439336,159.99999999999997L1198.7736518199233,159.99999999999997L1200.0249325510856,39.99999999999998L1201.0765221902936,39.99999999999998L1201.0765221902936,39.99999999999998L1203.180285360792,39.99999999999998L1204.231875,39.99999999999998M1224.2056553320563,460L1225.2566610791825,460L1226.3082507183908,99.99999999999997L1227.359256465517,460L1228.216410041507,99.99999999999997L1229.4618518518519,99.99999999999997L1229.4618518518519,99.99999999999997L1231.5644472381866,180L1232.4210169220946,180L1233.6670426245212,180L1234.7180483716475,180L1235.5752019476374,180L1236.821227650064,180L1237.8722333971903,99.99999999999997L1238.9238230363985,99.99999999999997L1239.9748287835248,99.99999999999997L1241.026418422733,99.99999999999997L1242.0774241698593,99.99999999999997L1242.9345777458493,159.99999999999997L1244.180019556194,39.99999999999998L1245.2310253033206,39.99999999999998L1246.2826149425289,39.99999999999998L1247.3353723659004,39.99999999999998L1249.4397194284802,39.99999999999998L1250.49189295977,39.99999999999998L1251.5434825989782,39.99999999999998L1252.59624002235,39.99999999999998L1252.59624002235,39.99999999999998L1254.7011709770115,39.99999999999998L1254.7011709770115,39.99999999999998M1274.6767029853129,60L1275.7277087324392,159.99999999999997L1276.7792983716474,159.99999999999997L1277.830304118774,159.99999999999997L1278.8818937579822,159.99999999999997L1279.9334833971905,159.99999999999997L1280.9844891443167,159.99999999999997L1280.9844891443167,159.99999999999997L1282.8920645753512,120L1284.1380902777778,120L1285.1896799169858,120L1286.046249600894,120L1287.2922753033206,120L1288.1488449872286,219.99999999999997L1289.3948706896551,500L1290.2514403735631,219.99999999999997L1291.3024461206896,219.99999999999997L1292.549055715198,500L1293.6000614623244,500L1294.6516511015327,500L1295.702656848659,500L1296.7542464878672,500L1297.8052522349935,500L1298.8580096583653,500L1299.9095992975735,500L1300.9606050446998,500L1302.0116107918263,500L1303.0632004310346,500L1304.1147900702426,500M1325.1477506385697,39.99999999999998L1326.1999241698595,99.99999999999997L1327.250929916986,99.99999999999997L1328.3036873403576,99.99999999999997L1329.1590892401023,99.99999999999997L1330.406282726692,99.99999999999997L1331.4572884738186,99.99999999999997L1332.5088781130266,39.99999999999998L1333.560467752235,39.99999999999998L1334.6120573914432,39.99999999999998L1335.6636470306512,39.99999999999998L1336.7152366698595,39.99999999999998L1337.7674102011495,39.99999999999998L1338.622812100894,120L1339.870005587484,60L1340.9210113346105,60L1341.9726009738185,60L1343.0241906130268,60L1344.0751963601533,60L1345.1267859993613,159.99999999999997L1346.179543422733,159.99999999999997L1347.2305491698594,159.99999999999997L1348.2821388090676,159.99999999999997L1349.333728448276,159.99999999999997L1350.385318087484,159.99999999999997L1351.4363238346104,320L1352.4879134738187,320L1353.538919220945,320L1354.5899249680715,320L1355.6415146072798,320M1375.6158788314176,39.99999999999998L1376.6668845785439,39.99999999999998L1377.7178903256706,39.99999999999998L1378.7694799648787,39.99999999999998L1379.821069604087,39.99999999999998L1380.8720753512134,39.99999999999998L1380.8720753512134,39.99999999999998L1382.974670737548,39.99999999999998L1384.0256764846742,39.99999999999998L1385.0766822318008,39.99999999999998L1386.1282718710088,39.99999999999998L1387.1792776181353,39.99999999999998L1388.2308672573436,39.99999999999998L1389.28187300447,39.99999999999998L1390.3328787515964,39.99999999999998L1391.3844683908046,39.99999999999998L1392.4354741379311,39.99999999999998L1393.4870637771392,39.99999999999998L1394.5380695242657,39.99999999999998L1395.5896591634737,39.99999999999998L1396.641248802682,39.99999999999998L1397.6922545498085,39.99999999999998L1398.7432602969347,39.99999999999998L1399.794849936143,39.99999999999998L1400.649667943806,39.99999999999998L1401.8974453224778,120L1402.9490349616858,120L1404.000624600894,120L1405.0516303480206,120L1406.1032199872286,120M1426.0799197796935,120L1427.13092552682,120L1428.1819312739465,120L1428.1819312739465,120L1430.2851105523628,120L1431.3372840836525,120L1432.1921020913155,120L1433.4398794699873,39.99999999999998L1434.4908852171136,39.99999999999998L1435.5436426404854,39.99999999999998L1436.5946483876119,39.99999999999998L1437.6520769476372,39.99999999999998L1438.7030826947637,39.99999999999998" style="stroke: rgb(255, 0, 0);"></path><path class="line" d="M39.766554118773946,377.86483839373165M62.88868055555556,471.69441723800196L64.99069204980843,416.94417238001955L67.09270354406131,257.29676787463274L69.19471503831417,156.90499510284033L71.29672653256705,71.98824681684624L73.39873802681993,30.656219392752206L75.50074952107279,46.6209598432909L77.60276101532567,6.562193927522053L79.70477250957855,0L81.80678400383142,19.784524975514195L83.90879549808429,71.10675808031341L86.01080699233717,145.83741429970615L88.11281848659004,237.5122428991185L90.21482998084291,377.86483839373165M109.13293342911878,497.4534769833496L111.23494492337166,481.488736532811L113.33695641762452,471.69441723800196L115.4389679118774,416.94417238001955L117.54097940613026,257.29676787463274L119.64299090038314,156.90499510284033L121.745002394636,71.98824681684624L123.84701388888888,30.656219392752206L125.94902538314177,46.6209598432909L128.05103687739464,6.562193927522053L130.15304837164751,0L132.2550598659004,19.784524975514195L134.35707136015324,71.10675808031341M163.7852322796935,471.69441723800196L165.88724377394635,416.94417238001955L167.98925526819923,257.29676787463274L170.0912667624521,156.90499510284033L172.19327825670499,71.98824681684624L174.29528975095786,30.656219392752206L176.39730124521074,46.6209598432909L178.49931273946362,6.562193927522053L180.60132423371647,0L182.70333572796935,19.784524975514195L184.80534722222225,71.10675808031341L186.9073587164751,145.83741429970615L189.00937021072798,237.5122428991185L191.11138170498083,377.86483839373165L193.21339319923374,463.76101860920664M212.13149664750958,481.488736532811L214.23350814176243,471.69441723800196L216.33551963601533,416.94417238001955L218.4375311302682,257.29676787463274L220.53954262452106,156.90499510284033L222.64155411877397,71.98824681684624L224.74356561302682,30.656219392752206L226.8455771072797,46.6209598432909L228.94758860153254,6.562193927522053L231.04960009578545,0L233.15161159003833,19.784524975514195L235.25362308429118,71.10675808031341L237.35563457854408,145.83741429970615L239.45764607279693,237.5122428991185L241.5596575670498,377.86483839373165M262.5797725095785,481.488736532811L264.6817840038314,471.69441723800196L266.7837954980843,416.94417238001955L268.88580699233717,257.29676787463274L270.9878184865901,156.90499510284033L273.0898299808429,71.98824681684624L275.19184147509577,30.656219392752206L277.2938529693486,46.6209598432909L279.3958644636015,6.562193927522053L281.4978759578544,0L283.5998874521073,19.784524975514195L285.7018989463602,71.10675808031341L287.80391044061304,145.83741429970615L289.9059219348659,237.5122428991185L292.00793342911874,377.86483839373165L294.10994492337164,463.76101860920664M313.0280483716475,481.488736532811L315.13005986590036,471.69441723800196L317.23207136015327,416.94417238001955L319.3340828544061,257.29676787463274L321.43609434865897,156.90499510284033L323.5381058429119,71.98824681684624L325.6401173371647,30.656219392752206L327.74212883141763,46.6209598432909L329.8441403256705,6.562193927522053L331.9461518199234,0L334.04816331417624,19.784524975514195L336.15017480842914,71.10675808031341L338.252186302682,145.83741429970615L340.35419779693484,237.5122428991185L342.45620929118775,377.86483839373165M363.47632423371647,481.488736532811L365.5783357279694,471.69441723800196L367.6803472222222,416.94417238001955L369.7823587164751,257.29676787463274L371.884370210728,156.90499510284033L373.9863817049809,71.98824681684624L376.0883931992337,30.656219392752206L378.1904046934866,46.6209598432909L380.2924161877395,6.562193927522053L382.39442768199234,0L384.49643917624525,19.784524975514195L386.59845067049804,71.10675808031341L388.70046216475095,145.83741429970615L390.80247365900385,237.5122428991185L392.90448515325676,377.86483839373165L395.00649664750955,463.76101860920664M413.9246000957854,481.488736532811L416.02661159003827,471.69441723800196L418.1286230842912,416.94417238001955L420.2306345785441,257.29676787463274L422.332646072797,156.90499510284033L424.4346575670498,71.98824681684624L426.5366690613027,30.656219392752206L428.63868055555554,46.6209598432909L430.74069204980844,6.562193927522053L432.84270354406135,0L434.94471503831414,19.784524975514195L437.04672653256705,71.10675808031341L439.14873802681996,145.83741429970615L441.2507495210728,237.5122428991185L443.35276101532565,377.86483839373165M466.4748874521073,471.69441723800196L468.5768989463602,416.94417238001955L470.67891044061304,257.29676787463274L472.7809219348659,156.90499510284033L474.88293342911874,71.98824681684624L476.98494492337164,30.656219392752206L479.08695641762455,46.6209598432909L481.18896791187734,6.562193927522053L483.29097940613025,0L485.39299090038315,19.784524975514195L487.495002394636,71.10675808031341L489.5970138888889,145.83741429970615L491.6990253831417,237.5122428991185L493.8010368773946,377.86483839373165L495.9030483716475,463.76101860920664M514.8211518199233,481.488736532811L516.9231633141762,471.69441723800196L519.0251748084291,416.94417238001955L521.1271863026819,257.29676787463274L523.2291977969348,156.90499510284033L525.3312092911877,71.98824681684624L527.4332207854407,30.656219392752206L529.5352322796934,46.6209598432909L531.6372437739464,6.562193927522053L533.7392552681993,0L535.8412667624522,19.784524975514195L537.943278256705,71.10675808031341L540.0452897509579,145.83741429970615L542.1473012452108,237.5122428991185L544.2493127394636,377.86483839373165M565.2694276819924,481.488736532811L567.3714391762453,471.69441723800196L569.4734506704981,416.94417238001955L571.575462164751,257.29676787463274L573.6774736590038,156.90499510284033L575.7794851532567,71.98824681684624L577.8814966475095,30.656219392752206L579.9835081417624,46.6209598432909L582.0855196360153,6.562193927522053L584.1875311302682,0L586.2895426245211,19.784524975514195L588.3915541187739,71.10675808031341L590.4935656130268,145.83741429970615L592.5955771072797,237.5122428991185L594.6975886015326,377.86483839373165L596.7996000957854,463.76101860920664M617.8197150383141,471.69441723800196L619.921726532567,416.94417238001955L622.02373802682,257.29676787463274L624.1257495210729,156.90499510284033L626.2277610153257,71.98824681684624L628.3297725095786,30.656219392752206L630.4317840038315,46.6209598432909L632.5337954980843,6.562193927522053L634.6358069923372,0L636.73781848659,19.784524975514195L638.8398299808429,71.10675808031341L640.9418414750958,145.83741429970615L643.0438529693487,237.5122428991185L645.1458644636015,377.86483839373165M666.1659794061302,481.488736532811L668.2679909003831,471.69441723800196L670.370002394636,416.94417238001955L672.4720138888889,257.29676787463274L674.5740253831417,156.90499510284033L676.6760368773946,71.98824681684624L678.7780483716475,30.656219392752206L680.8800598659004,46.6209598432909L682.9820713601533,6.562193927522053L685.0840828544061,0L687.186094348659,19.784524975514195L689.2881058429119,71.10675808031341L691.3901173371647,145.83741429970615L693.4921288314176,237.5122428991185L695.5941403256705,377.86483839373165L697.6961518199233,463.76101860920664M716.6142552681993,481.488736532811L718.7162667624522,471.69441723800196L720.818278256705,416.94417238001955L722.9202897509579,257.29676787463274L725.0223012452108,156.90499510284033L727.1243127394636,71.98824681684624L729.2263242337165,30.656219392752206L731.3283357279694,46.6209598432909L733.4303472222222,6.562193927522053L735.5323587164752,0L737.634370210728,19.784524975514195L739.7363817049808,71.10675808031341L741.8383931992338,145.83741429970615L743.9404046934866,237.5122428991185L746.0424161877394,377.86483839373165L748.1444276819924,463.76101860920664M769.1645426245211,471.69441723800196L771.2665541187739,416.94417238001955L773.3685656130269,257.29676787463274L775.4705771072797,156.90499510284033L777.5725886015325,71.98824681684624L779.6746000957855,30.656219392752206L781.7766115900383,46.6209598432909L783.8786230842912,6.562193927522053L785.980634578544,0L788.0826460727969,19.784524975514195L790.1846575670498,71.10675808031341L792.2866690613026,145.83741429970615L794.3886805555554,237.5122428991185L796.4906920498084,377.86483839373165L798.5927035440612,463.76101860920664M817.5108069923372,481.488736532811L819.61281848659,471.69441723800196L821.714829980843,416.94417238001955L823.8168414750958,257.29676787463274L825.9188529693486,156.90499510284033L828.0208644636016,71.98824681684624L830.1228759578544,30.656219392752206L832.2248874521074,46.6209598432909L834.3268989463602,6.562193927522053L836.428910440613,0L838.530921934866,19.784524975514195L840.6329334291188,71.10675808031341L842.7349449233716,145.83741429970615L844.8369564176245,237.5122428991185L846.9389679118774,377.86483839373165L849.0409794061303,463.76101860920664M867.9590828544061,481.488736532811L870.061094348659,471.69441723800196L872.1631058429119,416.94417238001955L874.2651173371647,257.29676787463274L876.3671288314176,156.90499510284033L878.4691403256705,71.98824681684624L880.5711518199233,30.656219392752206L882.6731633141762,46.6209598432909L884.775174808429,6.562193927522053L886.877186302682,0L888.9791977969348,19.784524975514195L891.0812092911876,71.10675808031341L893.1832207854407,145.83741429970615L895.2852322796934,237.5122428991185L897.3872437739465,377.86483839373165M918.4073587164752,481.488736532811L920.509370210728,471.69441723800196L922.6113817049808,416.94417238001955L924.7133931992338,257.29676787463274L926.8154046934866,156.90499510284033L928.9174161877394,71.98824681684624L931.0194276819924,30.656219392752206L933.1214391762452,46.6209598432909L935.2234506704981,6.562193927522053L937.325462164751,0L939.4274736590038,19.784524975514195L941.5294851532567,71.10675808031341L943.6314966475095,145.83741429970615L945.7335081417625,237.5122428991185L947.8355196360153,377.86483839373165L949.9375311302681,463.76101860920664M968.855634578544,481.488736532811L970.9576460727969,471.69441723800196L973.0596575670498,416.94417238001955L975.1616690613026,257.29676787463274L977.2636805555554,156.90499510284033L979.3656920498084,71.98824681684624L981.4677035440612,30.656219392752206L983.5697150383143,46.6209598432909L985.671726532567,6.562193927522053L987.7737380268198,0L989.8757495210729,19.784524975514195L991.9777610153257,71.10675808031341L994.0797725095786,145.83741429970615L996.1817840038315,237.5122428991185L998.2837954980843,377.86483839373165L1000.3858069923372,463.76101860920664M1019.303910440613,481.488736532811L1021.405921934866,471.69441723800196L1023.5079334291188,416.94417238001955L1025.6099449233716,257.29676787463274L1027.7119564176246,156.90499510284033L1029.8139679118774,71.98824681684624L1031.9159794061304,30.656219392752206L1034.0179909003832,46.6209598432909L1036.120002394636,6.562193927522053L1038.222013888889,0L1040.3240253831418,19.784524975514195L1042.4260368773946,71.10675808031341L1044.5280483716474,145.83741429970615L1046.6300598659004,237.5122428991185L1048.7320713601532,377.86483839373165L1050.834082854406,463.76101860920664M1069.752186302682,481.488736532811L1071.8541977969348,471.69441723800196L1073.9562092911876,416.94417238001955L1076.0582207854407,257.29676787463274L1078.1602322796934,156.90499510284033L1080.2622437739465,71.98824681684624L1082.3642552681993,30.656219392752206L1084.466266762452,46.6209598432909L1086.568278256705,6.562193927522053L1088.6702897509579,0L1090.7723012452109,19.784524975514195L1092.8743127394637,71.10675808031341L1094.9763242337165,145.83741429970615L1097.0783357279695,237.5122428991185L1099.1803472222223,377.86483839373165M1120.200462164751,481.488736532811L1122.3024736590037,471.69441723800196L1124.4044851532567,416.94417238001955L1126.5064966475095,257.29676787463274L1128.6085081417625,156.90499510284033L1130.7105196360153,71.98824681684624L1132.812531130268,30.656219392752206L1134.9145426245211,46.6209598432909L1137.016554118774,6.562193927522053L1139.118565613027,0L1141.2205771072797,19.784524975514195L1143.3225886015325,71.10675808031341L1145.4246000957855,145.83741429970615L1147.5266115900383,237.5122428991185L1149.6286230842913,377.86483839373165L1151.7306345785441,463.76101860920664M1170.64873802682,481.488736532811L1172.7507495210727,471.69441723800196L1174.8527610153255,416.94417238001955L1176.9547725095786,257.29676787463274L1179.0567840038314,156.90499510284033L1181.1587954980841,71.98824681684624L1183.2608069923372,30.656219392752206L1185.36281848659,46.6209598432909L1187.464829980843,6.562193927522053L1189.5668414750958,0L1191.6688529693486,19.784524975514195L1193.7708644636016,71.10675808031341L1195.8728759578544,145.83741429970615L1197.9748874521074,237.5122428991185L1200.0768989463602,377.86483839373165L1202.178910440613,463.76101860920664M1221.097013888889,481.488736532811L1223.1990253831418,471.69441723800196L1225.3010368773946,416.94417238001955L1227.4030483716474,257.29676787463274L1229.5050598659004,156.90499510284033L1231.6070713601532,71.98824681684624L1233.709082854406,30.656219392752206L1235.811094348659,46.6209598432909L1237.9131058429118,6.562193927522053L1240.0151173371646,0L1242.1171288314176,19.784524975514195L1244.2191403256704,71.10675808031341L1246.3211518199232,145.83741429970615L1248.4231633141762,237.5122428991185L1250.525174808429,377.86483839373165L1252.627186302682,463.76101860920664M1271.5452897509579,481.488736532811L1273.6473012452109,471.69441723800196L1275.7493127394637,416.94417238001955L1277.8513242337165,257.29676787463274L1279.9533357279695,156.90499510284033L1282.0553472222223,71.98824681684624L1284.157358716475,30.656219392752206L1286.259370210728,46.6209598432909L1288.3613817049809,6.562193927522053L1290.4633931992337,0L1292.5654046934865,19.784524975514195L1294.6674161877395,71.10675808031341L1296.7694276819923,145.83741429970615L1298.871439176245,237.5122428991185L1300.973450670498,377.86483839373165L1303.075462164751,463.76101860920664M1321.993565613027,481.488736532811L1324.0955771072797,471.69441723800196L1326.1975886015325,416.94417238001955L1328.2996000957855,257.29676787463274L1330.4016115900383,156.90499510284033L1332.5036230842913,71.98824681684624L1334.6056345785441,30.656219392752206L1336.707646072797,46.6209598432909L1338.80965756705,6.562193927522053L1340.9116690613027,0L1343.0136805555555,19.784524975514195L1345.1156920498086,71.10675808031341L1347.2177035440614,145.83741429970615L1349.3197150383141,237.5122428991185L1351.421726532567,377.86483839373165L1353.52373802682,463.76101860920664M1374.5438529693486,471.69441723800196L1376.6458644636016,416.94417238001955L1378.7478759578544,257.29676787463274L1380.8498874521074,156.90499510284033L1382.9518989463602,71.98824681684624L1385.053910440613,30.656219392752206L1387.155921934866,46.6209598432909L1389.2579334291188,6.562193927522053L1391.3599449233716,0L1393.4619564176246,19.784524975514195L1395.5639679118774,71.10675808031341L1397.6659794061304,145.83741429970615L1399.7679909003832,237.5122428991185L1401.870002394636,377.86483839373165L1403.972013888889,463.76101860920664M1422.8901173371646,481.488736532811L1424.9921288314176,471.69441723800196L1427.0941403256704,416.94417238001955L1429.1961518199232,257.29676787463274L1431.2981633141762,156.90499510284033L1433.400174808429,71.98824681684624L1435.502186302682,30.656219392752206L1437.6041977969348,46.6209598432909" style="stroke: rgb(0, 0, 255);"></path><path class="line" d="M39.766554118773946,420.76395690499515M62.88868055555556,493.43780607247794L64.99069204980843,483.54554358472086L67.09270354406131,433.10479921645447L69.19471503831417,313.4182174338883L71.29672653256705,227.0323212536729L73.39873802681993,129.48090107737514L75.50074952107279,133.7904015670911L77.60276101532567,237.80607247796277L79.70477250957855,63.565132223310506L81.80678400383142,77.47306562193928L83.90879549808429,197.15964740450536L86.01080699233717,151.81194906953965L88.11281848659004,356.6111655239961L90.21482998084291,440.8423114593536M109.13293342911878,497.4534769833496L111.23494492337166,481.488736532811L113.33695641762452,471.69441723800196L115.4389679118774,416.94417238001955L117.54097940613026,257.29676787463274L119.64299090038314,156.90499510284033L121.745002394636,71.98824681684624L123.84701388888888,30.656219392752206L125.94902538314177,98.2370225269344L128.05103687739464,198.33496571988246L130.15304837164751,211.2634671890304L132.2550598659004,276.0039177277179L134.35707136015324,406.562193927522M163.7852322796935,496.5719882468169L165.88724377394635,477.76689520078355L167.98925526819923,433.5945151811949L170.0912667624521,435.74926542605283L172.19327825670499,345.73947110675806L174.29528975095786,418.70714985308524L176.39730124521074,367.384916748286L178.49931273946362,388.63858961802157L180.60132423371647,372.38001958863856L182.70333572796935,314.20176297747304L184.80534722222225,319.8824681684623L186.9073587164751,364.15279138099896L189.00937021072798,428.9911851126347L191.11138170498083,450.93046033300686L193.21339319923374,484.52497551420174M212.13149664750958,498.72673849167484L214.23350814176243,492.360430950049L216.33551963601533,482.664054848188L218.4375311302682,484.32908912830555L220.53954262452106,478.64838393731634L222.64155411877397,477.8648383937316L224.74356561302682,482.1743388834476L226.8455771072797,478.55044074436825L228.94758860153254,455.9255631733595L231.04960009578545,312.7326150832517L233.15161159003833,483.0558276199804L235.25362308429118,372.86973555337903L237.35563457854408,397.64936336924586L239.45764607279693,385.40646425073453L241.5596575670498,487.7571008814887M262.5797725095785,498.62879529872674L264.6817840038314,491.96865817825665L266.7837954980843,480.3134182174339L268.88580699233717,427.13026444662097L270.9878184865901,400L273.0898299808429,397.64936336924586L275.19184147509577,333.98628795298725L277.2938529693486,265.1322233104799L279.3958644636015,368.3643486777669L281.4978759578544,335.06366307541623L283.5998874521073,315.37708129285016L285.7018989463602,244.2703232125367L287.80391044061304,319.3927522037219L289.9059219348659,368.65817825661117L292.00793342911874,446.32713026444657L294.10994492337164,487.26738491674826M313.0280483716475,499.6082272282076L315.13005986590036,497.2575905974535L317.23207136015327,479.92164544564156L319.3340828544061,445.34769833496574L321.43609434865897,436.4348677766895L323.5381058429119,358.1782566111655L325.6401173371647,350.63663075416264L327.74212883141763,241.62585700293832L329.8441403256705,314.9853085210578L331.9461518199234,206.1704211557297L334.04816331417624,225.8570029382958L336.15017480842914,301.9588638589618L338.252186302682,370.3232125367287L340.35419779693484,349.951028403526L342.45620929118775,470.1273261508325M363.47632423371647,498.922624877571L365.5783357279694,491.67482859941236L367.6803472222222,481.1949069539667L369.7823587164751,423.7022526934378L371.884370210728,317.6297747306562L373.9863817049809,219.8824681684623L376.0883931992337,207.639569049951L378.1904046934866,99.51028403525952L380.2924161877395,121.743388834476L382.39442768199234,213.12438785504406L384.49643917624525,90.98922624877571L386.59845067049804,120.5680705190989L388.70046216475095,226.34671890303625L390.80247365900385,272.67384916748284L392.90448515325676,397.55142017629777L395.00649664750955,477.76689520078355M413.9246000957854,499.9020568070519L416.02661159003827,492.06660137120474L418.1286230842912,478.64838393731634L420.2306345785441,482.1743388834476L422.332646072797,478.25661116552396L424.4346575670498,470.7149853085211L426.5366690613027,447.4045053868756L428.63868055555554,449.16748285994123L430.74069204980844,405.19098922624875L432.84270354406135,423.01665034280114L434.94471503831414,416.94417238001955L437.04672653256705,460.4309500489716L439.14873802681996,390.9892262487757L441.2507495210728,476.6895200783546L443.35276101532565,491.28305582762M466.4748874521073,490.8912830558276L468.5768989463602,471.10675808031345L470.67891044061304,397.2575905974535L472.7809219348659,328.8932419196866L474.88293342911874,228.5994123408423L476.98494492337164,103.91772771792363L479.08695641762455,46.6209598432909L481.18896791187734,6.562193927522053L483.29097940613025,0L485.39299090038315,20.568070519098924L487.495002394636,71.10675808031341L489.5970138888889,155.92556317335942L491.6990253831417,278.6483839373164L493.8010368773946,393.53574926542603L495.9030483716475,486.97355533790403M514.8211518199233,495.2007835455436L516.9231633141762,480.80313418217435L519.0251748084291,448.87365328109695L521.1271863026819,407.8354554358472L523.2291977969348,336.6307541625857L525.3312092911877,286.67972575905975L527.4332207854407,229.5788442703232L529.5352322796934,114.00587659157691L531.6372437739464,43.780607247796254L533.7392552681993,44.95592556317335L535.8412667624522,60.137120470127314L537.943278256705,195.2007835455436L540.0452897509579,316.25857002938295L542.1473012452108,423.8001958863859L544.2493127394636,474.63271302644466M565.2694276819924,498.82468168462293L567.3714391762453,487.36532810969635L569.4734506704981,477.179236043095L571.575462164751,479.5298726738492L573.6774736590038,445.8374142997062L575.7794851532567,415.1811949069539L577.8814966475095,411.949069539667L579.9835081417624,427.91380999020566L582.0855196360153,438.8834476003918L584.1875311302682,426.9343780607248L586.2895426245211,461.6062683643487L588.3915541187739,417.9236043095005L590.4935656130268,442.80117531831536L592.5955771072797,458.1782566111655L594.6975886015326,479.6278158667973L596.7996000957854,497.5514201762977M617.8197150383141,482.9578844270323L619.921726532567,468.5602350636631L622.02373802682,441.42997061704216L624.1257495210729,381.58667972575904L626.2277610153257,356.0235063663075L628.3297725095786,362.4877571008815L630.4317840038315,394.8090107737512L632.5337954980843,347.99216454456416L634.6358069923372,378.9422135161606L636.73781848659,384.3290891283056L638.8398299808429,394.3192948090108L640.9418414750958,454.84818805093045L643.0438529693487,479.0401567091087L645.1458644636015,491.1851126346719M666.1659794061302,497.7473065621939L668.2679909003831,484.9167482859941L670.370002394636,462.97747306562195L672.4720138888889,400.2938295788443L674.5740253831417,320.7639569049951L676.6760368773946,288.93241919686585L678.7780483716475,221.74338883447604L680.8800598659004,176.39569049951027L682.9820713601533,134.37806072477966L685.0840828544061,56.415279138099905L687.186094348659,19.784524975514195L689.2881058429119,194.0254652301665L691.3901173371647,215.8667972575906L693.4921288314176,258.5700293829579L695.5941403256705,413.32027424094025L697.6961518199233,480.3134182174339M716.6142552681993,496.7678746327131L718.7162667624522,485.4064642507346L720.818278256705,462.78158667972576L722.9202897509579,413.7120470127326L725.0223012452108,290.6953966699314L727.1243127394636,203.62389813907933L729.2263242337165,151.3222331047992L731.3283357279694,107.83545543584722L733.4303472222222,162.78158667972576L735.5323587164752,196.2781586679726L737.634370210728,56.70910871694418L739.7363817049808,144.17238001958864L741.8383931992338,255.435847208619L743.9404046934866,317.335945151812L746.0424161877394,424.0940254652302L748.1444276819924,478.0607247796278M769.1645426245211,490.205680705191L771.2665541187739,473.0656219392752L773.3685656130269,441.8217433888345L775.4705771072797,418.9030362389814L777.5725886015325,428.5014691478942L779.6746000957855,411.6552399608227L781.7766115900383,425.4652301665034L783.8786230842912,418.2174338883448L785.980634578544,437.4142997061704L788.0826460727969,439.27522037218415L790.1846575670498,407.14985308521057L792.2866690613026,361.8021547502449L794.3886805555554,344.564152791381L796.4906920498084,430.36238981390795L798.5927035440612,478.64838393731634M817.5108069923372,496.7678746327131L819.61281848659,486.97355533790403L821.714829980843,465.230166503428L823.8168414750958,407.8354554358472L825.9188529693486,302.84035259549455L828.0208644636016,263.95690499510283L830.1228759578544,255.04407443682663L832.2248874521074,162.68364348677767L834.3268989463602,184.62291870714986L836.428910440613,71.98824681684624L838.530921934866,174.92654260528894L840.6329334291188,204.11361410381977L842.7349449233716,338.49167482859946L844.8369564176245,370.2252693437806L846.9389679118774,471.10675808031345L849.0409794061303,494.515181194907M867.9590828544061,496.8658178256611L870.061094348659,475.6121449559256L872.1631058429119,442.5073457394711L874.2651173371647,391.7727717923604L876.3671288314176,330.5582761998041L878.4691403256705,317.9236043095005L880.5711518199233,303.8197845249755L882.6731633141762,337.12047012732614L884.775174808429,382.85994123408426L886.877186302682,416.25857002938295L888.9791977969348,408.71694417238L891.0812092911876,420.1762977473066L893.1832207854407,440.6464250734574L895.2852322796934,466.60137120470125L897.3872437739465,480.3134182174339M918.4073587164752,498.1390793339863L920.509370210728,485.99412340842315L922.6113817049808,459.74534769833497L924.7133931992338,366.01371204701275L926.8154046934866,287.7571008814888L928.9174161877394,269.63761018609205L931.0194276819924,367.8746327130265L933.1214391762452,131.92948090107737L935.2234506704981,123.01665034280119L937.325462164751,285.896180215475L939.4274736590038,196.47404505386874L941.5294851532567,242.89911851126345L943.6314966475095,267.5808031341822L945.7335081417625,349.7551420176298L947.8355196360153,452.10577864838393L949.9375311302681,489.0303623898139M968.855634578544,494.71106758080316L970.9576460727969,481.0969637610186L973.0596575670498,438.1978452497551L975.1616690613026,425.17140058765915L977.2636805555554,314.3976493633692L979.3656920498084,263.46718903036236L981.4677035440612,279.04015670910877L983.5697150383143,271.6944172380019L985.671726532567,180.411361410382L987.7737380268198,328.40352595494613L989.8757495210729,184.1332027424094L991.9777610153257,96.37610186092066L994.0797725095786,145.83741429970615L996.1817840038315,237.5122428991185L998.2837954980843,377.86483839373165L1000.3858069923372,489.61802154750245M1019.303910440613,495.88638589618023L1021.405921934866,478.64838393731634L1023.5079334291188,448.87365328109695L1025.6099449233716,388.3447600391773L1027.7119564176246,357.88442703232124L1029.8139679118774,345.4456415279138L1031.9159794061304,381.19490695396667L1034.0179909003832,387.0714985308521L1036.120002394636,385.30852105778644L1038.222013888889,293.14397649363366L1040.3240253831418,126.6405484818805L1042.4260368773946,330.0685602350637L1044.5280483716474,340.0587659157689L1046.6300598659004,336.43486777668954L1048.7320713601532,436.92458374142996L1050.834082854406,471.98824681684624M1069.752186302682,497.845249755142L1071.8541977969348,490.59745347698333L1073.9562092911876,456.0235063663076L1076.0582207854407,402.8403525954946L1078.1602322796934,320.0783545543585L1080.2622437739465,247.79627815866795L1082.3642552681993,230.26444662095986L1084.466266762452,240.45053868756122L1086.568278256705,209.50048971596473L1088.6702897509579,303.5259549461312L1090.7723012452109,162.48775710088148L1092.8743127394637,292.8501469147894L1094.9763242337165,372.08619000979434L1097.0783357279695,459.2556317335945L1099.1803472222223,482.1743388834476M1120.200462164751,496.4740450538688L1122.3024736590037,484.32908912830555L1124.4044851532567,465.13222331047996L1126.5064966475095,426.6405484818805L1128.6085081417625,316.7482859941234L1130.7105196360153,348.873653281097L1132.812531130268,381.19490695396667L1134.9145426245211,369.3437806072478L1137.016554118774,325.36728697355534L1139.118565613027,230.9500489715965L1141.2205771072797,160.6268364348678L1143.3225886015325,191.38099902056805L1145.4246000957855,280.80313418217435L1147.5266115900383,394.8090107737512L1149.6286230842913,442.409402546523L1151.7306345785441,481.6846229187072M1170.64873802682,497.845249755142L1172.7507495210727,484.9167482859941L1174.8527610153255,460.4309500489716L1176.9547725095786,420.66601371204706L1179.0567840038314,345.64152791380997L1181.1587954980841,191.47894221351612L1183.2608069923372,107.14985308521058L1185.36281848659,53.96669931439762L1187.464829980843,36.04309500489716L1189.5668414750958,26.640548481880522L1191.6688529693486,238.6875612144956L1193.7708644636016,336.72869735553377L1195.8728759578544,410.67580803134183L1197.9748874521074,470.1273261508325L1200.0768989463602,488.8344760039177L1202.178910440613,497.1596474045054M1221.097013888889,494.61312438785507L1223.1990253831418,473.6532810969637L1225.3010368773946,467.7766895200783L1227.4030483716474,396.8658178256611L1229.5050598659004,326.05288932419194L1231.6070713601532,246.13124387855046L1233.709082854406,240.25465230166503L1235.811094348659,182.27228207639567L1237.9131058429118,232.5171400587659L1240.0151173371646,323.8001958863859L1242.1171288314176,367.5808031341822L1244.2191403256704,378.74632713026443L1246.3211518199232,377.2771792360431L1248.4231633141762,352.00783545543584L1250.525174808429,428.10969637610185L1252.627186302682,477.47306562193927M1271.5452897509579,493.14397649363366L1273.6473012452109,487.16944172380016L1275.7493127394637,465.5239960822723L1277.8513242337165,434.28011753183154L1279.9533357279695,405.7786483839373L1282.0553472222223,330.460333006856L1284.157358716475,268.95200783545545L1286.259370210728,131.24387855044074L1288.3613817049809,116.7482859941234L1290.4633931992337,155.04407443682666L1292.5654046934865,336.43486777668954L1294.6674161877395,233.88834476003916L1296.7694276819923,338.6875612144956L1298.871439176245,402.5465230166503L1300.973450670498,436.82664054848186L1303.075462164751,477.3751224289912M1321.993565613027,497.1596474045054L1324.0955771072797,481.5866797257591L1326.1975886015325,460.03917727717925L1328.2996000957855,414.9853085210578L1330.4016115900383,389.81390793339864L1332.5036230842913,336.72869735553377L1334.6056345785441,325.6611165523996L1336.707646072797,248.87365328109695L1338.80965756705,167.09108716944172L1340.9116690613027,64.05484818805091L1343.0136805555555,125.07345739471104L1345.1156920498086,201.9588638589618L1347.2177035440614,284.23114593535746L1349.3197150383141,369.14789422135163L1351.421726532567,380.7051909892263L1353.52373802682,463.76101860920664M1374.5438529693486,492.45837414299706L1376.6458644636016,483.1537708129285L1378.7478759578544,472.86973555337903L1380.8498874521074,474.2409402546523L1382.9518989463602,354.84818805093045L1385.053910440613,318.70714985308524L1387.155921934866,175.71008814887367L1389.2579334291188,190.40156709108717L1391.3599449233716,180.6072477962782L1393.4619564176246,209.79431929480901L1395.5639679118774,323.01665034280114L1397.6659794061304,354.75024485798235L1399.7679909003832,415.96474045053867L1401.870002394636,418.0215475024486L1403.972013888889,472.38001958863856M1422.8901173371646,497.5514201762977L1424.9921288314176,478.8442703232125L1427.0941403256704,460.9206660137121L1429.1961518199232,423.9960822722821L1431.2981633141762,344.9559255631733L1433.400174808429,288.1488736532811L1435.502186302682,259.6474045053869L1437.6041977969348,260.5288932419197" style="stroke: rgb(0, 128, 0);"></path></g>

</svg>
