<?xml version="1.0" standalone="no"?><!DOCTYPE svg PUBLIC "-//W3C//DTD SVG 20010904//EN" "http://www.w3.org/TR/2001/REC-SVG-20010904/DTD/svg10.dtd"><svg id="svg" version="1.0" xmlns="http://www.w3.org/2000/svg" width="680" height="380"><defs><style type="text/css"><![CDATA[.axis path,.axis line { fill: none; stroke: black; shape-rendering: crispEdges; } .axis text { font-family: sans-serif; font-size: 12px; } .line { stroke-width: 2; fill: none; } ]]></style> </defs><g transform="translate(40,40)"><g class="axis" style="fill:black;" transform="translate(0,300)"><g class="tick" style="opacity: 1;" transform="translate(0,0)"><line y2="6" x2="0"/><text dy=".71em" style="text-anchor: middle;" y="9" x="0">Fri 22</text></g><g class="tick" style="opacity: 1;" transform="translate(75,0)"><line y2="6" x2="0"/><text dy=".71em" style="text-anchor: middle;" y="9" x="0">Sat 23</text></g><g class="tick" style="opacity: 1;" transform="translate(150,0)"><line y2="6" x2="0"/><text dy=".71em" style="text-anchor: middle;" y="9" x="0">May 24</text></g><g class="tick" style="opacity: 1;" transform="translate(225,0)"><line y2="6" x2="0"/><text dy=".71em" style="text-anchor: middle;" y="9" x="0">Mon 25</text></g><g class="tick" style="opacity: 1;" transform="translate(300,0)"><line y2="6" x2="0"/><text dy=".71em" style="text-anchor: middle;" y="9" x="0">Tue 26</text></g><g class="tick" style="opacity: 1;" transform="translate(375,0)"><line y2="6" x2="0"/><text dy=".71em" style="text-anchor: middle;" y="9" x="0">Wed 27</text></g><g class="tick" style="opacity: 1;" transform="translate(450,0)"><line y2="6" x2="0"/><text dy=".71em" style="text-anchor: middle;" y="9" x="0">Thu 28</text></g><g class="tick" style="opacity: 1;" transform="translate(525,0)"><line y2="6" x2="0"/><text dy=".71em" style="text-anchor: middle;" y="9" x="0">Fri 29</text></g><g class="tick" style="opacity: 1;" transform="translate(600,0)"><line y2="6" x2="0"/><text dy=".71em" style="text-anchor: middle;" y="9" x="0">Sat 30</text></g><path class="domain" d="M0,6V0H600V6"/><text x="600" y="30" text-anchor="end">Time</text></g><g class="axis" style="fill:green;" transform=""><g class="tick" style="opacity: 1;" transform="translate(0,300)"><line x2="-6" y2="0"/><text dy=".32em" style="text-anchor: end;" x="-9" y="0">0</text></g><g class="tick" style="opacity: 1;" transform="translate(0,268.9633767846058)"><line x2="-6" y2="0"/><text dy=".32em" style="text-anchor: end;" x="-9" y="0">500</text></g><g class="tick" style="opacity: 1;" transform="translate(0,237.92675356921168)"><line x2="-6" y2="0"/><text dy=".32em" style="text-anchor: end;" x="-9" y="0">1,000</text></g><g class="tick" style="opacity: 1;" transform="translate(0,206.8901303538175)"><line x2="-6" y2="0"/><text dy=".32em" style="text-anchor: end;" x="-9" y="0">1,500</text></g><g class="tick" style="opacity: 1;" transform="translate(0,175.85350713842337)"><line x2="-6" y2="0"/><text dy=".32em" style="text-anchor: end;" x="-9" y="0">2,000</text></g><g class="tick" style="opacity: 1;" transform="translate(0,144.8168839230292)"><line x2="-6" y2="0"/><text dy=".32em" style="text-anchor: end;" x="-9" y="0">2,500</text></g><g class="tick" style="opacity: 1;" transform="translate(0,113.78026070763501)"><line x2="-6" y2="0"/><text dy=".32em" style="text-anchor: end;" x="-9" y="0">3,000</text></g><g class="tick" style="opacity: 1;" transform="translate(0,82.74363749224082)"><line x2="-6" y2="0"/><text dy=".32em" style="text-anchor: end;" x="-9" y="0">3,500</text></g><g class="tick" style="opacity: 1;" transform="translate(0,51.707014276846685)"><line x2="-6" y2="0"/><text dy=".32em" style="text-anchor: end;" x="-9" y="0">4,000</text></g><g class="tick" style="opacity: 1;" transform="translate(0,20.67039106145251)"><line x2="-6" y2="0"/><text dy=".32em" style="text-anchor: end;" x="-9" y="0">4,500</text></g><path class="domain" d="M-6,0H0V300H-6"/><text x="0" y="-10" text-anchor="end">Effect</text></g><g class="axis" style="fill:red;" transform="translate(600,0)"><g class="tick" style="opacity: 1;" transform="translate(0,300)"><line x2="6" y2="0"/><text dy=".32em" style="text-anchor: start;" x="9" y="0">0</text></g><g class="tick" style="opacity: 1;" transform="translate(0,267.39130434782606)"><line x2="6" y2="0"/><text dy=".32em" style="text-anchor: start;" x="9" y="0">10</text></g><g class="tick" style="opacity: 1;" transform="translate(0,234.7826086956522)"><line x2="6" y2="0"/><text dy=".32em" style="text-anchor: start;" x="9" y="0">20</text></g><g class="tick" style="opacity: 1;" transform="translate(0,202.17391304347825)"><line x2="6" y2="0"/><text dy=".32em" style="text-anchor: start;" x="9" y="0">30</text></g><g class="tick" style="opacity: 1;" transform="translate(0,169.56521739130437)"><line x2="6" y2="0"/><text dy=".32em" style="text-anchor: start;" x="9" y="0">40</text></g><g class="tick" style="opacity: 1;" transform="translate(0,136.95652173913044)"><line x2="6" y2="0"/><text dy=".32em" style="text-anchor: start;" x="9" y="0">50</text></g><g class="tick" style="opacity: 1;" transform="translate(0,104.34782608695652)"><line x2="6" y2="0"/><text dy=".32em" style="text-anchor: start;" x="9" y="0">60</text></g><g class="tick" style="opacity: 1;" transform="translate(0,71.7391304347826)"><line x2="6" y2="0"/><text dy=".32em" style="text-anchor: start;" x="9" y="0">70</text></g><g class="tick" style="opacity: 1;" transform="translate(0,39.1304347826087)"><line x2="6" y2="0"/><text dy=".32em" style="text-anchor: start;" x="9" y="0">80</text></g><g class="tick" style="opacity: 1;" transform="translate(0,6.521739130434778)"><line x2="6" y2="0"/><text dy=".32em" style="text-anchor: start;" x="9" y="0">90</text></g><path class="domain" d="M6,0H0V300H6"/><text x="0" y="-10" text-anchor="start">Clouds</text></g><path class="line" style="stroke:red;" d="M29.239583333333332,0L30.80295138888889,117.39130434782608L30.80295138888889,117.39130434782608L33.92795138888889,117.39130434782608L35.49131944444444,117.39130434782608L37.05381944444444,117.39130434782608L38.6171875,117.39130434782608L40.1796875,260.8695652173913L41.74305555555556,91.30434782608697L43.30555555555555,260.8695652173913L44.86805555555556,91.30434782608697L46.431423611111114,260.8695652173913L47.993923611111114,260.8695652173913L49.55729166666667,273.9130434782609L51.12065972222223,273.9130434782609L52.68315972222222,273.9130434782609L54.24652777777778,273.9130434782609L55.80989583333333,273.9130434782609L57.0859375,156.52173913043478L58.93576388888889,234.7826086956522L60.49826388888889,234.7826086956522L62.06163194444445,0L63.62586805555556,234.7826086956522L65.18923611111111,234.7826086956522M94.88454861111111,300L96.44704861111111,234.7826086956522L98.00954861111111,234.7826086956522L99.57291666666666,234.7826086956522L101.13541666666667,234.7826086956522L102.69791666666667,234.7826086956522L104.26128472222223,182.60869565217394L105.82378472222223,300L107.38715277777777,300L108.94965277777779,300L110.51302083333333,300L112.0763888888889,234.7826086956522L113.63888888888889,300L113.63888888888889,300L116.76475694444444,300L118.328125,300L119.88541666666667,300L121.453125,300L123.01649305555554,300L124.57899305555556,300L126.1423611111111,300L127.70486111111111,300L129.26822916666666,300L130.83159722222223,300L132.39496527777777,300L133.95920138888889,300L135.5234375,300L137.08767361111111,300L138.65104166666669,300L140.21527777777777,300M169.91666666666669,260.8695652173913L171.47916666666666,300L171.47916666666666,300L174.60503472222223,300L176.16840277777777,300L177.73090277777777,234.7826086956522L179.29513888888889,300L180.8576388888889,273.9130434782609L182.4236111111111,273.9130434782609L183.99565972222223,273.9130434782609L185.55902777777777,273.9130434782609L187.12152777777777,273.9130434782609L188.68489583333334,273.9130434782609L190.24913194444446,273.9130434782609L191.8125,273.9130434782609L193.375,91.30434782608697L194.9375,273.9130434782609L196.51475694444446,273.9130434782609L198.0824652777778,91.30434782608697L199.65017361111111,78.2608695652174L201.21788194444446,78.2608695652174L202.78211805555557,78.2608695652174L204.34461805555557,78.2608695652174L205.90798611111111,78.2608695652174L207.18229166666666,78.2608695652174L209.0425347222222,0L210.6059027777778,0L210.6059027777778,0L213.73350694444446,0L215.296875,0M244.99131944444443,273.9130434782609L246.55381944444446,273.9130434782609L248.1171875,39.1304347826087L249.6796875,273.9130434782609L250.95399305555554,39.1304347826087L252.80555555555557,39.1304347826087L252.80555555555557,39.1304347826087L255.93142361111111,91.30434782608697L257.20486111111114,91.30434782608697L259.0572916666667,91.30434782608697L260.61979166666663,91.30434782608697L261.89409722222223,91.30434782608697L263.74652777777777,91.30434782608697L265.30902777777777,39.1304347826087L266.8723958333333,39.1304347826087L268.4348958333333,39.1304347826087L269.9982638888889,39.1304347826087L271.56076388888886,39.1304347826087L272.83506944444446,78.2608695652174L274.68663194444446,0L276.24913194444446,0L277.8125,0L279.3776041666667,0L282.50607638888886,0L284.0703125,0L285.63368055555554,0L287.19878472222223,0L287.19878472222223,0L290.328125,0L290.328125,0M320.0251736111111,13.043478260869556L321.5876736111111,78.2608695652174L323.15104166666663,78.2608695652174L324.7135416666667,78.2608695652174L326.27690972222223,78.2608695652174L327.84027777777777,78.2608695652174L329.40277777777777,78.2608695652174L329.40277777777777,78.2608695652174L332.23871527777777,52.17391304347826L334.0911458333333,52.17391304347826L335.65451388888886,52.17391304347826L336.9279513888889,52.17391304347826L338.78038194444446,52.17391304347826L340.05381944444446,117.39130434782608L341.90625,300L343.17968750000006,117.39130434782608L344.7421875,117.39130434782608L346.59548611111114,300L348.1579861111111,300L349.72135416666663,300L351.2838541666667,300L352.84722222222223,300L354.40972222222223,300L355.9748263888889,300L357.53819444444446,300L359.10069444444446,300L360.6631944444444,300L362.2265625,300L363.7899305555556,300M395.05902777777777,0L396.6232638888889,39.1304347826087L398.1857638888889,39.1304347826087L399.7508680555556,39.1304347826087L401.02256944444446,39.1304347826087L402.8767361111111,39.1304347826087L404.4392361111111,39.1304347826087L406.0026041666667,0L407.56597222222223,0L409.12934027777777,0L410.6927083333333,0L412.25607638888886,0L413.8203125,0L415.0920138888889,52.17391304347826L416.94618055555554,13.043478260869556L418.50868055555554,13.043478260869556L420.07204861111114,13.043478260869556L421.6354166666667,13.043478260869556L423.19791666666663,13.043478260869556L424.76128472222223,78.2608695652174L426.32638888888886,78.2608695652174L427.8888888888889,78.2608695652174L429.45225694444446,78.2608695652174L431.015625,78.2608695652174L432.57899305555554,78.2608695652174L434.14149305555554,182.60869565217394L435.7048611111111,182.60869565217394L437.26736111111114,182.60869565217394L438.8298611111111,182.60869565217394L440.39322916666663,182.60869565217394M470.0885416666667,0L471.6510416666667,0L473.21354166666663,0L474.7769097222222,0L476.3402777777778,0L477.90277777777777,0L477.90277777777777,0L481.0286458333333,0L482.59114583333337,0L484.1536458333333,0L485.71701388888886,0L487.27951388888886,0L488.84288194444446,0L490.40538194444446,0L491.96788194444446,0L493.53125,0L495.09375,0L496.65711805555554,0L498.21961805555554,0L499.7829861111111,0L501.34635416666663,0L502.9088541666667,0L504.4713541666667,0L506.03472222222223,0L507.30555555555554,0L509.1605902777778,52.17391304347826L510.72395833333337,52.17391304347826L512.2873263888889,52.17391304347826L513.8498263888889,52.17391304347826L515.4131944444445,52.17391304347826M545.1119791666666,52.17391304347826L546.6744791666666,52.17391304347826L548.2369791666667,52.17391304347826L548.2369791666667,52.17391304347826L551.3637152777778,52.17391304347826L552.9279513888889,52.17391304347826L554.1987847222223,52.17391304347826L556.0538194444445,0L557.6163194444445,0L559.1814236111111,0L560.7439236111111,0L562.3159722222223,0L563.8784722222222,0"/><path class="line" style="stroke:blue;" d="M30.994791666666664,28.739913097455005L34.119791666666664,2.5450031036623133L37.24479166666667,12.662942271880805L40.369791666666664,-12.7250155183116L43.494791666666664,-16.883923029174454L46.61979166666667,-4.345127250155167L49.744791666666664,28.181253879577895L52.869791666666664,75.54314090626941L55.99479166666667,133.64369956548725L59.119791666666664,222.59466170080697M90.36979166666667,288.268156424581L93.49479166666666,282.0608317815022L96.61979166666667,247.3618870266915L99.74479166666667,146.18249534450652L102.86979166666666,82.55741775294848L105.99479166666667,28.739913097455005L109.11979166666667,2.5450031036623133L112.24479166666666,12.662942271880805L115.36979166666667,-12.7250155183116L118.49479166666667,-16.883923029174454L121.61979166666666,-4.345127250155167L124.74479166666667,28.181253879577895L127.86979166666667,75.54314090626941L130.99479166666666,133.64369956548725L134.11979166666666,222.59466170080697L137.24479166666666,277.0328988206083M165.36979166666666,288.268156424581L168.49479166666669,282.0608317815022L171.61979166666666,247.3618870266915L174.74479166666666,146.18249534450652L177.86979166666669,82.55741775294848L180.99479166666666,28.739913097455005L184.11979166666666,2.5450031036623133L187.24479166666669,12.662942271880805L190.36979166666666,-12.7250155183116L193.49479166666666,-16.883923029174454L196.61979166666669,-4.345127250155167L199.74479166666666,28.181253879577895L202.86979166666666,75.54314090626941L205.99479166666669,133.64369956548725L209.11979166666666,222.59466170080697L212.24479166666666,277.0328988206083M240.36979166666666,288.268156424581L243.49479166666669,282.0608317815022L246.61979166666666,247.3618870266915L249.74479166666666,146.18249534450652L252.86979166666669,82.55741775294848L255.99479166666666,28.739913097455005L259.11979166666663,2.5450031036623133L262.2447916666667,12.662942271880805L265.3697916666667,-12.7250155183116L268.49479166666663,-16.883923029174454L271.6197916666667,-4.345127250155167L274.7447916666667,28.181253879577895L277.86979166666663,75.54314090626941L280.9947916666667,133.64369956548725L284.1197916666667,222.59466170080697L287.24479166666663,277.0328988206083M315.36979166666663,288.268156424581L318.4947916666667,282.0608317815022L321.6197916666667,247.3618870266915L324.74479166666663,146.18249534450652L327.8697916666667,82.55741775294848L330.9947916666667,28.739913097455005L334.11979166666663,2.5450031036623133L337.2447916666667,12.662942271880805L340.3697916666667,-12.7250155183116L343.49479166666663,-16.883923029174454L346.6197916666667,-4.345127250155167L349.7447916666667,28.181253879577895L352.86979166666663,75.54314090626941L355.9947916666667,133.64369956548725L359.1197916666667,222.59466170080697L362.24479166666663,277.0328988206083M390.36979166666663,288.268156424581L393.4947916666667,282.0608317815022L396.6197916666667,247.3618870266915L399.74479166666663,146.18249534450652L402.8697916666667,82.55741775294848L405.9947916666667,28.739913097455005L409.11979166666663,2.5450031036623133L412.2447916666667,12.662942271880805L415.3697916666667,-12.7250155183116L418.49479166666663,-16.883923029174454L421.6197916666667,-4.345127250155167L424.7447916666667,28.181253879577895L427.86979166666663,75.54314090626941L430.9947916666667,133.64369956548725L434.1197916666667,222.59466170080697L437.24479166666663,277.0328988206083M468.4947916666667,282.0608317815022L471.6197916666667,247.3618870266915L474.74479166666663,146.18249534450652L477.8697916666667,82.55741775294848L480.9947916666667,28.739913097455005L484.11979166666663,2.5450031036623133L487.2447916666667,12.662942271880805L490.3697916666667,-12.7250155183116L493.49479166666663,-16.883923029174454L496.6197916666667,-4.345127250155167L499.7447916666667,28.181253879577895L502.86979166666663,75.54314090626941L505.9947916666667,133.64369956548725L509.1197916666667,222.59466170080697L512.2447916666666,277.0328988206083M540.3697916666666,288.268156424581L543.4947916666666,282.0608317815022L546.6197916666667,247.3618870266915L549.7447916666666,146.18249534450652L552.8697916666666,82.55741775294848L555.9947916666667,28.739913097455005L559.1197916666666,2.5450031036623133L562.2447916666666,12.662942271880805"/><path class="line" style="stroke:green;" d="M30.994791666666664,140.16139044072006L34.119791666666664,129.05027932960894L37.24479166666667,135.50589695841091L40.369791666666664,115.89075108628182L43.494791666666664,175.4810676598386L46.61979166666667,86.09559279950344L49.744791666666664,168.71508379888266L52.869791666666664,218.93234016139044L55.99479166666667,274.17752948479205L59.119791666666664,288.70266914959655M90.36979166666667,297.76536312849163L93.49479166666666,290.06828057107384L96.61979166666667,277.90192427063937L99.74479166666667,253.50713842333954L102.86979166666666,183.86095592799504L105.99479166666667,204.2209807572936L109.11979166666667,224.70515207945377L112.24479166666666,217.19428926132838L115.36979166666667,189.32340161390442L118.49479166666667,129.48479205462445L121.61979166666666,84.91620111731845L124.74479166666667,104.40720049658597L127.86979166666667,161.0800744878957L130.99479166666666,233.33333333333334L134.11979166666666,263.50093109869647L137.24479166666666,288.3923029174426M165.36979166666666,298.63438857852265L168.49479166666669,290.4407200496586L171.61979166666666,274.9224084419615L174.74479166666666,249.72067039106147L177.86979166666669,202.1725636250776L180.99479166666666,104.46927374301677L184.11979166666666,51.02420856610802L187.24479166666669,17.31843575418994L190.36979166666666,5.959031657355673L193.49479166666666,0L196.61979166666669,134.38857852265673L199.74479166666666,196.52389819987584L202.86979166666666,243.38919925512104L205.99479166666669,281.06765983860953L209.11979166666666,292.92364990689015L212.24479166666666,298.19987585350714M240.36979166666666,296.58597144630664L243.49479166666669,283.30229671011796L246.61979166666666,279.57790192427063L249.74479166666666,234.6368715083799L252.86979166666669,189.7579143389199L255.99479166666666,139.10614525139664L259.11979166666663,135.38175046554935L262.2447916666667,98.63438857852265L265.3697916666667,130.47796399751707L268.49479166666663,188.33022967101178L271.6197916666667,216.07697082557416L274.7447916666667,223.15332091868405L277.86979166666663,222.2222222222222L280.9947916666667,206.20732464307883L284.1197916666667,254.43823711980136L287.24479166666663,285.7231533209187M315.36979166666663,295.65487274984486L318.4947916666667,291.86840471756676L321.6197916666667,278.1502172563625L324.74479166666663,258.348851644941L327.8697916666667,240.28553693358162L330.9947916666667,192.5512104283054L334.11979166666663,153.5692116697703L337.2447916666667,66.29422718808193L340.3697916666667,57.10738671632525L343.49479166666663,81.3780260707635L346.6197916666667,196.33767846058348L349.7447916666667,131.34698944754808L352.86979166666663,197.76536312849166L355.9947916666667,238.23711980136562L359.1197916666667,259.9627560521415L362.24479166666663,285.66108007448787M390.36979166666663,298.19987585350714L393.4947916666667,288.3302296710118L396.6197916666667,274.6741154562384L399.74479166666663,246.12042209807572L402.8697916666667,230.16759776536313L405.9947916666667,196.52389819987584L409.11979166666663,189.50962135319676L412.2447916666667,140.8441961514587L415.3697916666667,89.01303538175047L418.49479166666663,23.711980136561138L421.6197916666667,62.383612662942255L424.7447916666667,111.1111111111111L427.86979166666663,163.2526381129733L430.9947916666667,217.07014276846678L434.1197916666667,224.3947858472998L437.24479166666663,277.0328988206083M468.4947916666667,295.2203600248293L471.6197916666667,289.3234016139044L474.74479166666663,282.8057107386716L477.8697916666667,283.67473618870264L480.9947916666667,208.0074487895717L484.11979166666663,185.1024208566108L487.2447916666667,94.47548106765983L490.3697916666667,103.7864680322781L493.49479166666663,97.57914338919925L496.6197916666667,116.07697082557418L499.7447916666667,187.8336436995655L502.86979166666663,207.9453755431409L505.9947916666667,246.7411545623836L509.1197916666667,248.04469273743018L512.2447916666666,282.49534450651765M540.3697916666666,298.4481688392303L543.4947916666666,286.5921787709497L546.6197916666667,275.2327746741155L549.7447916666666,251.83116076970828L552.8697916666666,201.73805090006203L555.9947916666667,165.73556797020484L559.1197916666666,147.67225325884544L562.2447916666666,148.23091247672255"/></g></svg>