<?xml version="1.0" standalone="no"?><!DOCTYPE svg PUBLIC "-//W3C//DTD SVG 20010904//EN" "http://www.w3.org/TR/2001/REC-SVG-20010904/DTD/svg10.dtd"><svg id="svg" version="1.0" xmlns="http://www.w3.org/2000/svg" width="380" height="380"><defs><style type="text/css"><![CDATA[.axis path,.axis line { fill: none; stroke: black; shape-rendering: crispEdges; } .axis text { font-family: sans-serif; font-size: 12px; } .line { stroke-width: 2; fill: none; } ]]></style> </defs><g transform="translate(40,40)"><g class="axis" style="fill:black;" transform="translate(0,300)"><g class="tick" style="opacity: 1;" transform="translate(0,0)"><line y2="6" x2="0"/><text dy=".71em" style="text-anchor: middle;" y="9" x="0">0</text></g><g class="tick" style="opacity: 1;" transform="translate(30,0)"><line y2="6" x2="0"/><text dy=".71em" style="text-anchor: middle;" y="9" x="0">10</text></g><g class="tick" style="opacity: 1;" transform="translate(60,0)"><line y2="6" x2="0"/><text dy=".71em" style="text-anchor: middle;" y="9" x="0">20</text></g><g class="tick" style="opacity: 1;" transform="translate(90,0)"><line y2="6" x2="0"/><text dy=".71em" style="text-anchor: middle;" y="9" x="0">30</text></g><g class="tick" style="opacity: 1;" transform="translate(120,0)"><line y2="6" x2="0"/><text dy=".71em" style="text-anchor: middle;" y="9" x="0">40</text></g><g class="tick" style="opacity: 1;" transform="translate(150,0)"><line y2="6" x2="0"/><text dy=".71em" style="text-anchor: middle;" y="9" x="0">50</text></g><g class="tick" style="opacity: 1;" transform="translate(180,0)"><line y2="6" x2="0"/><text dy=".71em" style="text-anchor: middle;" y="9" x="0">60</text></g><g class="tick" style="opacity: 1;" transform="translate(210,0)"><line y2="6" x2="0"/><text dy=".71em" style="text-anchor: middle;" y="9" x="0">70</text></g><g class="tick" style="opacity: 1;" transform="translate(240,0)"><line y2="6" x2="0"/><text dy=".71em" style="text-anchor: middle;" y="9" x="0">80</text></g><g class="tick" style="opacity: 1;" transform="translate(270,0)"><line y2="6" x2="0"/><text dy=".71em" style="text-anchor: middle;" y="9" x="0">90</text></g><g class="tick" style="opacity: 1;" transform="translate(300,0)"><line y2="6" x2="0"/><text dy=".71em" style="text-anchor: middle;" y="9" x="0">100</text></g><path class="domain" d="M0,6V0H300V6"/><text x="300" y="30" text-anchor="end">Clouds</text></g><g class="axis" style="fill:black;" transform=""><g class="tick" style="opacity: 1;" transform="translate(0,300)"><line x2="-6" y2="0"/><text dy=".32em" style="text-anchor: end;" x="-9" y="0">0</text></g><g class="tick" style="opacity: 1;" transform="translate(0,270)"><line x2="-6" y2="0"/><text dy=".32em" style="text-anchor: end;" x="-9" y="0">10</text></g><g class="tick" style="opacity: 1;" transform="translate(0,240)"><line x2="-6" y2="0"/><text dy=".32em" style="text-anchor: end;" x="-9" y="0">20</text></g><g class="tick" style="opacity: 1;" transform="translate(0,210)"><line x2="-6" y2="0"/><text dy=".32em" style="text-anchor: end;" x="-9" y="0">30</text></g><g class="tick" style="opacity: 1;" transform="translate(0,180)"><line x2="-6" y2="0"/><text dy=".32em" style="text-anchor: end;" x="-9" y="0">40</text></g><g class="tick" style="opacity: 1;" transform="translate(0,150)"><line x2="-6" y2="0"/><text dy=".32em" style="text-anchor: end;" x="-9" y="0">50</text></g><g class="tick" style="opacity: 1;" transform="translate(0,120)"><line x2="-6" y2="0"/><text dy=".32em" style="text-anchor: end;" x="-9" y="0">60</text></g><g class="tick" style="opacity: 1;" transform="translate(0,90.00000000000001)"><line x2="-6" y2="0"/><text dy=".32em" style="text-anchor: end;" x="-9" y="0">70</text></g><g class="tick" style="opacity: 1;" transform="translate(0,59.999999999999986)"><line x2="-6" y2="0"/><text dy=".32em" style="text-anchor: end;" x="-9" y="0">80</text></g><g class="tick" style="opacity: 1;" transform="translate(0,29.999999999999993)"><line x2="-6" y2="0"/><text dy=".32em" style="text-anchor: end;" x="-9" y="0">90</text></g><g class="tick" style="opacity: 1;" transform="translate(0,0)"><line x2="-6" y2="0"/><text dy=".32em" style="text-anchor: end;" x="-9" y="0">100</text></g><path class="domain" d="M-6,0H0V300H-6"/><text x="0" y="-10" text-anchor="end">Effect</text></g><g class="dot"><circle/><circle/><circle/><circle/><circle/><circle/><circle/><circle/><circle/><circle/><circle/><circle/><circle/><circle/><circle/><circle/><circle/><circle/><circle/><circle/><circle/><circle/><circle/><circle/><circle/><circle/><circle/><circle/><circle/><circle/><circle/><circle/><circle/><circle/><circle/><circle/><circle/><circle/><circle/><circle/><circle/><circle/><circle/><circle/><circle/><circle/><circle/><circle/><circle/><circle/><circle/><circle/><circle/><circle/><circle/><circle/><circle/><circle/><circle/><circle/><circle/><circle/><circle/><circle/><circle/><circle cx="0" cy="171.39" r="2"/><circle cx="0" cy="102.18" r="2"/><circle cx="72" cy="172.92000000000002" r="2"/><circle cx="72" cy="118.26" r="2"/><circle cx="72" cy="98.99999999999999" r="2"/><circle cx="72" cy="81.72" r="2"/><circle cx="72" cy="95.33999999999999" r="2"/><circle cx="72" cy="17.460000000000008" r="2"/><circle cx="36" cy="131.07" r="2"/><circle cx="36" cy="23.66999999999999" r="2"/><circle cx="36" cy="65.72999999999999" r="2"/><circle cx="0" cy="26.580000000000005" r="2"/><circle cx="36" cy="95.03999999999999" r="2"/><circle cx="36" cy="93.99000000000001" r="2"/><circle cx="276" cy="19.230000000000047" r="2"/><circle cx="276" cy="135.6" r="2"/><circle cx="276" cy="211.08" r="2"/><circle cx="132" cy="269.31" r="2"/><circle cx="276" cy="276.53999999999996" r="2"/><circle cx="276" cy="165.27" r="2"/><circle cx="192" cy="209.22" r="2"/><circle cx="192" cy="99.39000000000004" r="2"/><circle/><circle cx="108" cy="269.07" r="2"/><circle cx="108" cy="205.47000000000003" r="2"/><circle cx="0" cy="182.21999999999997" r="2"/><circle cx="0" cy="249.95999999999998" r="2"/><circle cx="0" cy="249.87" r="2"/><circle cx="0" cy="196.35000000000002" r="2"/><circle cx="0" cy="158.73000000000002" r="2"/><circle cx="0" cy="148.92" r="2"/><circle cx="144" cy="186.09000000000003" r="2"/><circle cx="144" cy="162.99" r="2"/><circle cx="144" cy="168.99000000000004" r="2"/><circle cx="144" cy="141.6" r="2"/><circle cx="144" cy="170.1" r="2"/><circle cx="144" cy="84.80999999999999" r="2"/><circle cx="204.00000000000003" cy="111.3" r="2"/><circle cx="204.00000000000003" cy="148.38000000000002" r="2"/><circle cx="144" cy="150.03" r="2"/><circle cx="144" cy="176.16" r="2"/><circle cx="144" cy="271.8" r="2"/><circle/><circle cx="144" cy="225.96" r="2"/><circle cx="192" cy="247.17" r="2"/><circle cx="96" cy="213.26999999999998" r="2"/><circle cx="96" cy="56.91" r="2"/><circle/><circle cx="96" cy="110.78999999999999" r="2"/><circle cx="168.00000000000003" cy="137.49" r="2"/><circle cx="168.00000000000003" cy="249.99" r="2"/><circle/><circle cx="0" cy="245.70000000000002" r="2"/><circle cx="0" cy="226.95000000000002" r="2"/><circle cx="0" cy="239.60999999999999" r="2"/><circle cx="0" cy="205.25999999999996" r="2"/><circle cx="0" cy="186.12" r="2"/><circle cx="0" cy="169.29000000000002" r="2"/><circle cx="0" cy="150.87" r="2"/><circle cx="72" cy="126.53999999999999" r="2"/><circle cx="72" cy="170.13" r="2"/><circle cx="72" cy="149.48999999999998" r="2"/><circle cx="72" cy="100.14" r="2"/><circle cx="72" cy="38.73" r="2"/><circle cx="168.00000000000003" cy="39.29999999999997" r="2"/><circle cx="168.00000000000003" cy="222.39000000000001" r="2"/><circle cx="168.00000000000003" cy="235.01999999999998" r="2"/><circle cx="168.00000000000003" cy="273.84000000000003" r="2"/><circle cx="168.00000000000003" cy="287.34" r="2"/><circle cx="168.00000000000003" cy="288.12" r="2"/><circle cx="228" cy="235.73999999999998" r="2"/><circle cx="228" cy="208.41" r="2"/><circle cx="228" cy="269.21999999999997" r="2"/><circle cx="228" cy="270.27" r="2"/><circle cx="228" cy="278.82" r="2"/><circle cx="204.00000000000003" cy="272.88" r="2"/><circle cx="276" cy="261.9" r="2"/><circle cx="276" cy="268.26" r="2"/><circle/><circle cx="0" cy="249.48" r="2"/><circle cx="0" cy="181.26000000000002" r="2"/><circle cx="96" cy="132.99" r="2"/><circle cx="96" cy="180.63000000000002" r="2"/><circle cx="96" cy="223.95" r="2"/><circle cx="96" cy="232.89" r="2"/><circle cx="96" cy="224.67000000000002" r="2"/><circle cx="96" cy="237.51" r="2"/><circle cx="0" cy="107.75999999999999" r="2"/><circle cx="0" cy="131.07" r="2"/><circle cx="0" cy="129.06" r="2"/><circle cx="0" cy="168.81" r="2"/><circle cx="0" cy="187.10999999999999" r="2"/><circle cx="0" cy="211.17" r="2"/><circle cx="96" cy="228" r="2"/><circle cx="96" cy="142.68" r="2"/><circle cx="96" cy="0.29999999999996696" r="2"/><circle cx="96" cy="230.04000000000002" r="2"/><circle cx="96" cy="277.83" r="2"/><circle cx="96" cy="98.46000000000001" r="2"/><circle cx="276" cy="91.17000000000002" r="2"/><circle cx="276" cy="182.21999999999997" r="2"/><circle cx="276" cy="135.26999999999998" r="2"/><circle cx="276" cy="215.31" r="2"/><circle cx="276" cy="250.55999999999997" r="2"/><circle cx="240" cy="220.02" r="2"/><circle cx="96" cy="119.19" r="2"/><circle cx="96" cy="104.79000000000002" r="2"/><circle cx="96" cy="151.23" r="2"/><circle/><circle cx="0" cy="261.87" r="2"/><circle cx="0" cy="225.77999999999997" r="2"/><circle cx="0" cy="232.35" r="2"/><circle cx="0" cy="245.94" r="2"/><circle cx="0" cy="242.79" r="2"/><circle cx="0" cy="198.39" r="2"/><circle cx="0" cy="146.51999999999998" r="2"/><circle cx="0" cy="122.64000000000001" r="2"/><circle cx="24" cy="101.03999999999996" r="2"/><circle cx="24" cy="118.26" r="2"/><circle cx="24" cy="67.05000000000001" r="2"/><circle cx="24" cy="59.19000000000001" r="2"/><circle cx="24" cy="17.430000000000014" r="2"/><circle cx="24" cy="97.02000000000001" r="2"/><circle cx="0" cy="76.04999999999998" r="2"/><circle cx="0" cy="203.99999999999997" r="2"/><circle cx="0" cy="57.15" r="2"/><circle cx="0" cy="19.04999999999997" r="2"/><circle cx="0" cy="19.260000000000012" r="2"/><circle cx="0" cy="54.66000000000001" r="2"/><circle cx="0" cy="81.69" r="2"/><circle cx="0" cy="97.95" r="2"/><circle cx="0" cy="2.3700000000000054" r="2"/><circle cx="0" cy="6.749999999999989" r="2"/><circle cx="0" cy="129.03" r="2"/><circle cx="0" cy="145.17" r="2"/><circle cx="0" cy="141.6" r="2"/><circle cx="0" cy="191.30999999999997" r="2"/><circle/><circle cx="0" cy="0" r="2"/><circle cx="0" cy="0" r="2"/><circle cx="0" cy="0" r="2"/><circle cx="0" cy="0" r="2"/><circle cx="0" cy="75.78000000000002" r="2"/><circle cx="24" cy="0" r="2"/><circle cx="24" cy="0" r="2"/><circle cx="24" cy="0" r="2"/><circle cx="24" cy="0" r="2"/><circle cx="24" cy="0" r="2"/><circle cx="24" cy="0" r="2"/><circle cx="96" cy="0" r="2"/><circle cx="96" cy="0" r="2"/><circle cx="96" cy="0" r="2"/><circle/><circle cx="96" cy="27.420000000000012" r="2"/><circle cx="96" cy="40.649999999999984" r="2"/><circle cx="192" cy="93.00000000000001" r="2"/><circle cx="192" cy="139.47" r="2"/><circle cx="192" cy="129.60000000000002" r="2"/><circle cx="192" cy="123.96000000000001" r="2"/><circle cx="192" cy="106.41000000000001" r="2"/><circle cx="192" cy="215.88" r="2"/><circle cx="264" cy="214.76999999999998" r="2"/><circle cx="264" cy="257.13" r="2"/><circle cx="264" cy="274.65" r="2"/><circle/><circle cx="276" cy="275.25" r="2"/><circle cx="276" cy="271.08" r="2"/><circle cx="264" cy="221.79000000000002" r="2"/><circle cx="264" cy="218.61" r="2"/><circle cx="264" cy="236.85" r="2"/><circle cx="264" cy="203.33999999999997" r="2"/><circle cx="264" cy="246.06" r="2"/><circle cx="264" cy="239.67" r="2"/><circle cx="240" cy="207.36" r="2"/><circle cx="240" cy="179.4" r="2"/><circle cx="240" cy="226.74" r="2"/><circle cx="240" cy="269.52" r="2"/><circle cx="240" cy="203.28" r="2"/><circle cx="240" cy="221.07" r="2"/><circle cx="228" cy="223.59000000000003" r="2"/><circle cx="228" cy="240.78" r="2"/><circle cx="228" cy="230.22" r="2"/><circle cx="228" cy="216.66" r="2"/><circle cx="228" cy="221.28" r="2"/><circle cx="228" cy="146.58" r="2"/><circle cx="228" cy="188.88" r="2"/><circle cx="228" cy="160.14000000000001" r="2"/><circle cx="228" cy="187.61999999999998" r="2"/><circle cx="228" cy="181.92000000000002" r="2"/><circle cx="228" cy="229.67999999999998" r="2"/><circle cx="228" cy="205.02" r="2"/><circle cx="228" cy="185.87999999999997" r="2"/><circle cx="228" cy="183.24" r="2"/><circle cx="228" cy="140.07" r="2"/><circle/><circle cx="108" cy="249.48" r="2"/><circle cx="108" cy="216.42000000000002" r="2"/><circle cx="276" cy="214.89" r="2"/><circle cx="276" cy="251.1" r="2"/><circle cx="276" cy="273.42" r="2"/><circle cx="276" cy="286.14" r="2"/><circle cx="276" cy="272.88" r="2"/><circle cx="276" cy="287.55" r="2"/><circle cx="300" cy="283.17" r="2"/><circle cx="300" cy="285.96000000000004" r="2"/><circle cx="300" cy="290.76" r="2"/><circle cx="300" cy="286.53" r="2"/><circle cx="300" cy="285.27" r="2"/><circle cx="300" cy="286.26" r="2"/><circle cx="276" cy="277.74" r="2"/><circle cx="276" cy="268.86" r="2"/><circle cx="276" cy="214.89" r="2"/><circle cx="276" cy="160.10999999999999" r="2"/><circle cx="276" cy="286.38" r="2"/><circle cx="276" cy="292.59000000000003" r="2"/><circle cx="276" cy="255.69000000000003" r="2"/><circle cx="276" cy="163.76999999999998" r="2"/><circle cx="276" cy="226.01999999999998" r="2"/><circle cx="276" cy="199.17" r="2"/><circle cx="276" cy="173.67" r="2"/><circle cx="276" cy="162.99" r="2"/><circle cx="264" cy="259.47" r="2"/><circle cx="264" cy="290.43" r="2"/><circle/><circle cx="276" cy="248.46" r="2"/><circle cx="276" cy="209.36999999999998" r="2"/><circle cx="264" cy="221.79000000000002" r="2"/><circle cx="264" cy="233.54999999999998" r="2"/><circle cx="264" cy="218.28" r="2"/><circle cx="264" cy="203.42999999999998" r="2"/><circle cx="264" cy="192.6" r="2"/><circle cx="264" cy="225.39" r="2"/><circle cx="228" cy="249.66000000000003" r="2"/><circle cx="228" cy="209.55" r="2"/><circle cx="228" cy="212.60999999999999" r="2"/><circle cx="228" cy="174.89999999999998" r="2"/><circle cx="228" cy="127.08" r="2"/><circle cx="228" cy="161.49" r="2"/><circle cx="240" cy="229.92" r="2"/><circle cx="240" cy="210.18" r="2"/><circle cx="240" cy="183.51000000000002" r="2"/><circle cx="240" cy="218.58" r="2"/><circle cx="240" cy="193.38000000000002" r="2"/><circle cx="240" cy="176.25" r="2"/><circle cx="276" cy="73.65000000000005" r="2"/><circle cx="276" cy="174.05999999999997" r="2"/><circle cx="276" cy="83.49" r="2"/><circle cx="276" cy="217.85999999999999" r="2"/><circle cx="276" cy="169.38" r="2"/><circle cx="276" cy="125.03999999999998" r="2"/><circle cx="276" cy="123.83999999999999" r="2"/><circle cx="276" cy="255.39" r="2"/><circle cx="276" cy="218.79000000000002" r="2"/><circle/><circle cx="276" cy="271.86" r="2"/><circle cx="276" cy="254.91" r="2"/><circle cx="276" cy="211.98" r="2"/><circle cx="276" cy="219.39000000000001" r="2"/><circle cx="276" cy="242.46" r="2"/><circle cx="276" cy="249.45000000000002" r="2"/><circle cx="276" cy="237.93" r="2"/><circle cx="276" cy="243.87000000000003" r="2"/><circle cx="276" cy="163.07999999999998" r="2"/><circle cx="276" cy="196.62" r="2"/><circle cx="276" cy="212.34" r="2"/><circle cx="276" cy="153.72" r="2"/><circle cx="276" cy="105" r="2"/><circle cx="264" cy="198.12" r="2"/><circle cx="264" cy="177.12" r="2"/><circle cx="264" cy="154.68" r="2"/><circle cx="264" cy="92.70000000000002" r="2"/><circle cx="264" cy="91.26" r="2"/><circle cx="264" cy="168.45" r="2"/><circle cx="204.00000000000003" cy="140.97" r="2"/><circle cx="204.00000000000003" cy="185.7" r="2"/><circle/><circle cx="204.00000000000003" cy="193.04999999999998" r="2"/><circle cx="204.00000000000003" cy="66.12000000000002" r="2"/><circle cx="204.00000000000003" cy="207.05999999999997" r="2"/><circle cx="108" cy="241.17000000000002" r="2"/><circle cx="108" cy="211.68" r="2"/><circle/><circle cx="24" cy="246.39000000000001" r="2"/><circle cx="24" cy="207.02999999999997" r="2"/><circle cx="36" cy="224.54999999999998" r="2"/><circle cx="36" cy="236.43" r="2"/><circle cx="36" cy="231.3" r="2"/><circle cx="36" cy="185.82" r="2"/><circle cx="36" cy="134.7" r="2"/><circle cx="36" cy="138.92999999999998" r="2"/><circle cx="108" cy="100.16999999999999" r="2"/><circle cx="108" cy="109.5" r="2"/><circle cx="108" cy="105.3" r="2"/><circle cx="108" cy="120.9" r="2"/><circle cx="108" cy="26.48999999999998" r="2"/><circle cx="0" cy="43.2" r="2"/><circle cx="72" cy="129.57" r="2"/><circle cx="72" cy="12.149999999999995" r="2"/><circle cx="72" cy="64.74" r="2"/><circle cx="72" cy="190.56" r="2"/><circle cx="72" cy="48.06" r="2"/><circle cx="72" cy="42.11999999999999" r="2"/><circle cx="0" cy="59.33999999999999" r="2"/><circle cx="0" cy="11.430000000000007" r="2"/><circle cx="0" cy="48.14999999999999" r="2"/><circle/><circle cx="0" cy="38.63999999999997" r="2"/><circle cx="0" cy="42.149999999999984" r="2"/><circle cx="60" cy="49.32" r="2"/><circle cx="60" cy="75.44999999999999" r="2"/><circle cx="60" cy="78.08999999999999" r="2"/><circle/><circle cx="204.00000000000003" cy="257.73" r="2"/><circle cx="204.00000000000003" cy="204.69" r="2"/><circle cx="276" cy="198.29999999999998" r="2"/><circle/><circle cx="276" cy="272.16" r="2"/><circle cx="276" cy="282.48" r="2"/><circle/><circle cx="276" cy="281.85" r="2"/><circle/><circle cx="276" cy="283.62" r="2"/><circle cx="276" cy="283.74" r="2"/><circle cx="276" cy="248.58" r="2"/><circle cx="276" cy="265.08" r="2"/><circle cx="276" cy="267.6" r="2"/><circle cx="276" cy="250.26" r="2"/><circle cx="276" cy="234.75" r="2"/><circle cx="276" cy="246.42000000000002" r="2"/><circle cx="276" cy="261.45" r="2"/><circle cx="276" cy="234.12" r="2"/><circle cx="276" cy="262.65" r="2"/><circle cx="228" cy="267.96" r="2"/><circle cx="228" cy="277.35" r="2"/><circle cx="228" cy="241.38" r="2"/><circle cx="228" cy="170.34000000000003" r="2"/><circle cx="228" cy="271.23" r="2"/><circle cx="228" cy="275.94" r="2"/><circle cx="240" cy="292.89" r="2"/><circle cx="240" cy="257.78999999999996" r="2"/><circle cx="240" cy="251.64" r="2"/><circle/><circle cx="168.00000000000003" cy="224.22000000000003" r="2"/><circle cx="0" cy="201.06" r="2"/><circle cx="0" cy="192.42" r="2"/><circle cx="0" cy="177.57" r="2"/><circle cx="0" cy="169.47" r="2"/><circle cx="0" cy="158.34" r="2"/><circle cx="0" cy="137.67" r="2"/><circle cx="72" cy="146.91" r="2"/><circle cx="72" cy="79.04999999999998" r="2"/><circle cx="72" cy="59.61000000000003" r="2"/><circle cx="72" cy="34.11000000000001" r="2"/><circle cx="72" cy="0" r="2"/><circle cx="72" cy="0" r="2"/><circle cx="0" cy="0" r="2"/><circle cx="0" cy="0" r="2"/><circle cx="0" cy="0" r="2"/><circle cx="0" cy="0" r="2"/><circle cx="0" cy="0" r="2"/><circle cx="0" cy="2.6100000000000123" r="2"/><circle cx="0" cy="3.71999999999999" r="2"/><circle cx="0" cy="0" r="2"/><circle cx="0" cy="4.409999999999981" r="2"/><circle cx="0" cy="13.40999999999999" r="2"/><circle cx="0" cy="40.04999999999998" r="2"/><circle cx="0" cy="56.399999999999984" r="2"/><circle cx="24" cy="38.67" r="2"/><circle cx="24" cy="68.85000000000001" r="2"/><circle cx="24" cy="162.39000000000001" r="2"/><circle/><circle cx="108" cy="248.07" r="2"/><circle cx="108" cy="146.4" r="2"/><circle cx="108" cy="109.38000000000001" r="2"/><circle cx="132" cy="84.66" r="2"/><circle cx="132" cy="134.31" r="2"/><circle cx="132" cy="195.99" r="2"/><circle cx="132" cy="178.5" r="2"/><circle cx="132" cy="150.48000000000002" r="2"/><circle cx="132" cy="156.75" r="2"/><circle cx="144" cy="159.86999999999998" r="2"/><circle cx="144" cy="144.03" r="2"/><circle cx="144" cy="112.11000000000001" r="2"/><circle cx="144" cy="142.17" r="2"/><circle cx="144" cy="78.18000000000002" r="2"/><circle cx="144" cy="11.579999999999991" r="2"/><circle cx="240" cy="17.969999999999985" r="2"/><circle cx="240" cy="27.269999999999996" r="2"/><circle cx="240" cy="22.68" r="2"/><circle cx="240" cy="31.26000000000002" r="2"/><circle cx="240" cy="35.15999999999999" r="2"/><circle cx="240" cy="16.500000000000014" r="2"/><circle cx="144" cy="41.97000000000004" r="2"/><circle cx="144" cy="137.94" r="2"/><circle cx="144" cy="119.85" r="2"/><circle cx="144" cy="171.66000000000003" r="2"/><circle cx="144" cy="192.03" r="2"/><circle cx="60" cy="239.76000000000002" r="2"/><circle cx="108" cy="224.16" r="2"/><circle cx="108" cy="267.06" r="2"/><circle/><circle cx="276" cy="230.94" r="2"/><circle cx="276" cy="150.77999999999997" r="2"/><circle cx="276" cy="207.51" r="2"/><circle cx="276" cy="224.07" r="2"/><circle cx="276" cy="271.47" r="2"/><circle cx="276" cy="277.2" r="2"/><circle cx="276" cy="272.7" r="2"/><circle cx="276" cy="234.33" r="2"/><circle cx="276" cy="218.37" r="2"/><circle cx="276" cy="261.45" r="2"/><circle cx="276" cy="244.86" r="2"/><circle cx="276" cy="242.55" r="2"/><circle cx="276" cy="238.65" r="2"/><circle cx="276" cy="265.62" r="2"/><circle cx="276" cy="270.42" r="2"/><circle cx="276" cy="255.42" r="2"/><circle cx="276" cy="253.41" r="2"/><circle cx="276" cy="258.9" r="2"/><circle cx="276" cy="278.31" r="2"/><circle cx="276" cy="273.78" r="2"/><circle cx="276" cy="260.78999999999996" r="2"/><circle cx="276" cy="223.82999999999998" r="2"/><circle cx="276" cy="239.39999999999998" r="2"/><circle cx="276" cy="265.02" r="2"/><circle cx="276" cy="262.86" r="2"/><circle cx="276" cy="238.62" r="2"/><circle cx="276" cy="242.1" r="2"/><circle cx="276" cy="270.66" r="2"/><circle/><circle cx="276" cy="223.71" r="2"/><circle cx="276" cy="135.15" r="2"/><circle cx="0" cy="200.61" r="2"/><circle cx="0" cy="177.75" r="2"/><circle cx="0" cy="227.01000000000002" r="2"/><circle cx="0" cy="227.97" r="2"/><circle cx="0" cy="182.82" r="2"/><circle cx="0" cy="203.48999999999998" r="2"/><circle cx="276" cy="199.04999999999998" r="2"/><circle cx="276" cy="200.57999999999998" r="2"/><circle cx="276" cy="216.29999999999998" r="2"/><circle cx="276" cy="207.87000000000003" r="2"/><circle cx="276" cy="238.46999999999997" r="2"/><circle cx="276" cy="221.01000000000002" r="2"/><circle cx="276" cy="210.21" r="2"/><circle cx="276" cy="205.07999999999998" r="2"/><circle cx="276" cy="225.09" r="2"/><circle cx="276" cy="229.71" r="2"/><circle cx="276" cy="215.42999999999998" r="2"/><circle cx="276" cy="240.81" r="2"/><circle cx="276" cy="203.01000000000002" r="2"/><circle cx="276" cy="251.67" r="2"/><circle cx="276" cy="259.47" r="2"/><circle cx="276" cy="264.24" r="2"/><circle cx="276" cy="274.83" r="2"/><circle cx="276" cy="277.47" r="2"/><circle cx="276" cy="282.45" r="2"/><circle cx="276" cy="274.26" r="2"/><circle/><circle/><circle/><circle/><circle/><circle/><circle/><circle/><circle/><circle/><circle/><circle/><circle/><circle/><circle/><circle/><circle/><circle/><circle/><circle/><circle/><circle/><circle/><circle/><circle/><circle/><circle/><circle/><circle/><circle/><circle/><circle/><circle/><circle/><circle/><circle/><circle/><circle/><circle/><circle/><circle/><circle/><circle/><circle/><circle/><circle cx="276" cy="14.30999999999999" r="2"/><circle cx="0" cy="68.31" r="2"/><circle/><circle cx="0" cy="104.34" r="2"/><circle cx="0" cy="131.13000000000002" r="2"/><circle cx="0" cy="25.229999999999986" r="2"/><circle cx="0" cy="22.320000000000007" r="2"/><circle cx="0" cy="0" r="2"/><circle cx="0" cy="110.04" r="2"/><circle cx="0" cy="127.26" r="2"/><circle cx="0" cy="54.63000000000001" r="2"/><circle cx="0" cy="87.27000000000001" r="2"/><circle cx="0" cy="95.99999999999999" r="2"/><circle cx="24" cy="111.15000000000002" r="2"/><circle cx="24" cy="138.92999999999998" r="2"/><circle cx="24" cy="61.35" r="2"/><circle/><circle cx="228" cy="241.23000000000002" r="2"/><circle cx="276" cy="188.27999999999997" r="2"/><circle cx="240" cy="217.17" r="2"/><circle cx="240" cy="193.85999999999999" r="2"/><circle cx="240" cy="224.25000000000003" r="2"/><circle cx="240" cy="231.09" r="2"/><circle cx="204.00000000000003" cy="220.2" r="2"/><circle cx="204.00000000000003" cy="233.51999999999998" r="2"/><circle cx="276" cy="248.37" r="2"/><circle cx="276" cy="251.94" r="2"/><circle cx="276" cy="250.62" r="2"/><circle cx="276" cy="236.4" r="2"/><circle/><circle cx="276" cy="251.67" r="2"/><circle cx="276" cy="254.18999999999997" r="2"/><circle cx="276" cy="246.48" r="2"/><circle cx="276" cy="264.18" r="2"/><circle cx="276" cy="260.67" r="2"/><circle cx="276" cy="269.82" r="2"/><circle cx="276" cy="254.31" r="2"/><circle cx="276" cy="254.52" r="2"/><circle cx="108" cy="215.10000000000002" r="2"/><circle cx="108" cy="235.14000000000001" r="2"/><circle cx="108" cy="124.73999999999998" r="2"/><circle cx="108" cy="177.87" r="2"/><circle cx="168.00000000000003" cy="52.07999999999999" r="2"/><circle cx="24" cy="124.77000000000001" r="2"/><circle cx="24" cy="154.5" r="2"/><circle cx="24" cy="110.34" r="2"/><circle/><circle cx="276" cy="265.02" r="2"/><circle cx="276" cy="232.98" r="2"/><circle cx="276" cy="142.2" r="2"/><circle cx="276" cy="143.1" r="2"/><circle cx="276" cy="193.59" r="2"/><circle cx="168.00000000000003" cy="186.42" r="2"/><circle cx="276" cy="185.90999999999997" r="2"/><circle cx="276" cy="133.73999999999998" r="2"/><circle cx="168.00000000000003" cy="115.44000000000001" r="2"/><circle cx="276" cy="120.30000000000001" r="2"/><circle cx="276" cy="149.79" r="2"/><circle cx="276" cy="140.94" r="2"/><circle cx="276" cy="145.98000000000002" r="2"/><circle cx="240" cy="75.74999999999999" r="2"/><circle cx="276" cy="77.78999999999999" r="2"/><circle cx="276" cy="112.08000000000001" r="2"/><circle cx="276" cy="104.67" r="2"/><circle/><circle cx="276" cy="36.84" r="2"/><circle cx="276" cy="48.419999999999995" r="2"/><circle cx="276" cy="147.3" r="2"/><circle cx="276" cy="151.32000000000002" r="2"/><circle cx="276" cy="32.52000000000002" r="2"/><circle cx="276" cy="114.36" r="2"/><circle cx="276" cy="217.59" r="2"/><circle cx="276" cy="95.66999999999999" r="2"/><circle cx="276" cy="223.85999999999999" r="2"/><circle cx="276" cy="236.85" r="2"/><circle/><circle cx="276" cy="210.93" r="2"/><circle/><circle cx="192" cy="266.07" r="2"/><circle cx="192" cy="183.51000000000002" r="2"/><circle cx="192" cy="0" r="2"/><circle cx="228" cy="60.75000000000001" r="2"/><circle cx="276" cy="112.17" r="2"/><circle cx="228" cy="175.47" r="2"/><circle cx="228" cy="158.82" r="2"/><circle cx="228" cy="135.87" r="2"/><circle cx="228" cy="159.06" r="2"/><circle cx="276" cy="156.72" r="2"/><circle cx="276" cy="188.30999999999997" r="2"/><circle cx="276" cy="178.55999999999997" r="2"/><circle cx="276" cy="170.64" r="2"/><circle cx="276" cy="168.78" r="2"/><circle cx="276" cy="214.79999999999998" r="2"/><circle cx="276" cy="253.76999999999998" r="2"/><circle cx="276" cy="204.54" r="2"/><circle cx="276" cy="259.17" r="2"/><circle cx="276" cy="240.45" r="2"/><circle cx="276" cy="255.95999999999998" r="2"/><circle cx="276" cy="229.92" r="2"/><circle cx="276" cy="242.76000000000002" r="2"/><circle cx="276" cy="246.48" r="2"/><circle/><circle cx="276" cy="253.44" r="2"/><circle cx="276" cy="262.44" r="2"/><circle cx="276" cy="261.15000000000003" r="2"/><circle cx="276" cy="256.29" r="2"/><circle cx="276" cy="249.69" r="2"/><circle/><circle cx="228" cy="176.27999999999997" r="2"/><circle cx="228" cy="170.31" r="2"/><circle cx="276" cy="169.32" r="2"/><circle cx="276" cy="145.53" r="2"/><circle cx="276" cy="146.94" r="2"/><circle cx="276" cy="124.29" r="2"/><circle cx="0" cy="121.61999999999999" r="2"/><circle cx="0" cy="100.68" r="2"/><circle cx="132" cy="185.87999999999997" r="2"/><circle cx="72" cy="97.79999999999998" r="2"/><circle cx="72" cy="195.63" r="2"/><circle cx="132" cy="235.35" r="2"/><circle cx="132" cy="98.82000000000001" r="2"/><circle cx="132" cy="15.149999999999997" r="2"/><circle cx="276" cy="83.76" r="2"/><circle/><circle cx="276" cy="154.74" r="2"/><circle cx="276" cy="188.22" r="2"/><circle cx="276" cy="93.96000000000001" r="2"/><circle cx="276" cy="128.25" r="2"/><circle cx="276" cy="103.52999999999999" r="2"/><circle cx="276" cy="140.7" r="2"/><circle cx="276" cy="19.04999999999997" r="2"/><circle cx="276" cy="195.93" r="2"/><circle cx="276" cy="40.94999999999999" r="2"/><circle cx="276" cy="238.38" r="2"/><circle cx="276" cy="192.39" r="2"/><circle cx="276" cy="179.93999999999997" r="2"/><circle cx="276" cy="252.26999999999998" r="2"/><circle/><circle cx="144" cy="236.4" r="2"/><circle cx="144" cy="213.39000000000001" r="2"/><circle cx="144" cy="64.82999999999998" r="2"/><circle cx="276" cy="59.36999999999999" r="2"/><circle cx="264" cy="87.44999999999996" r="2"/><circle cx="276" cy="204.15" r="2"/><circle cx="264" cy="210.21" r="2"/><circle cx="264" cy="156.57000000000002" r="2"/><circle cx="264" cy="115.77000000000001" r="2"/><circle cx="96" cy="117.47999999999999" r="2"/><circle cx="96" cy="151.68" r="2"/><circle cx="96" cy="91.74" r="2"/><circle cx="264" cy="225.98999999999998" r="2"/><circle cx="96" cy="146.01000000000002" r="2"/><circle cx="96" cy="151.64999999999998" r="2"/><circle cx="204.00000000000003" cy="125.10000000000001" r="2"/><circle cx="204.00000000000003" cy="86.57999999999998" r="2"/><circle cx="276" cy="234.39" r="2"/><circle cx="204.00000000000003" cy="160.04999999999995" r="2"/><circle cx="204.00000000000003" cy="133.35" r="2"/><circle cx="204.00000000000003" cy="72" r="2"/><circle cx="228" cy="23.339999999999993" r="2"/><circle cx="228" cy="15.539999999999987" r="2"/><circle cx="264" cy="0" r="2"/><circle cx="228" cy="0" r="2"/><circle/><circle cx="228" cy="0" r="2"/><circle cx="264" cy="21.66000000000001" r="2"/><circle cx="264" cy="0" r="2"/><circle cx="264" cy="215.07" r="2"/><circle cx="264" cy="212.10000000000002" r="2"/><circle/><circle cx="96" cy="255.48000000000002" r="2"/><circle/><circle cx="276" cy="67.19999999999996" r="2"/><circle cx="204.00000000000003" cy="101.22000000000004" r="2"/><circle cx="204.00000000000003" cy="124.26" r="2"/><circle cx="204.00000000000003" cy="142.53" r="2"/><circle cx="276" cy="177.09" r="2"/><circle cx="204.00000000000003" cy="169.38" r="2"/><circle cx="204.00000000000003" cy="175.86" r="2"/><circle cx="228" cy="230.54999999999998" r="2"/><circle cx="228" cy="158.19" r="2"/><circle cx="240" cy="241.44" r="2"/><circle cx="228" cy="206.49" r="2"/><circle cx="228" cy="228.98999999999998" r="2"/><circle cx="240" cy="221.64000000000001" r="2"/><circle cx="132" cy="225.96" r="2"/><circle cx="132" cy="234.57000000000002" r="2"/><circle cx="132" cy="211.41" r="2"/><circle cx="132" cy="140.42999999999998" r="2"/><circle cx="132" cy="6.389999999999995" r="2"/><circle cx="132" cy="130.56" r="2"/><circle cx="276" cy="178.23000000000002" r="2"/><circle cx="276" cy="186" r="2"/><circle cx="276" cy="144.87" r="2"/><circle cx="24" cy="186.56999999999996" r="2"/><circle cx="276" cy="123.03" r="2"/><circle cx="276" cy="100.47" r="2"/><circle cx="264" cy="169.98" r="2"/><circle cx="264" cy="123.06" r="2"/><circle cx="264" cy="23.549999999999972" r="2"/><circle cx="264" cy="150" r="2"/><circle/><circle cx="276" cy="234.03" r="2"/><circle cx="276" cy="200.01000000000002" r="2"/><circle cx="276" cy="144.92999999999998" r="2"/><circle cx="276" cy="138.36" r="2"/><circle cx="276" cy="201.39000000000001" r="2"/><circle cx="276" cy="163.44000000000003" r="2"/><circle cx="276" cy="152.03999999999996" r="2"/><circle cx="276" cy="128.79" r="2"/><circle/><circle cx="168.00000000000003" cy="111.3" r="2"/><circle cx="168.00000000000003" cy="139.44" r="2"/><circle cx="168.00000000000003" cy="115.64999999999999" r="2"/><circle cx="168.00000000000003" cy="120.06" r="2"/><circle cx="168.00000000000003" cy="136.26000000000002" r="2"/><circle cx="36" cy="120.09" r="2"/><circle cx="192" cy="126.66000000000001" r="2"/><circle cx="36" cy="175.23000000000002" r="2"/><circle cx="192" cy="189.09000000000003" r="2"/><circle cx="36" cy="113.7" r="2"/><circle cx="36" cy="64.85999999999999" r="2"/><circle cx="24" cy="113.01" r="2"/><circle cx="24" cy="202.82999999999998" r="2"/><circle cx="24" cy="195.48" r="2"/><circle cx="24" cy="187.53" r="2"/><circle cx="24" cy="240.39000000000001" r="2"/><circle cx="132" cy="269.94" r="2"/><circle cx="60" cy="257.4" r="2"/><circle/><circle cx="0" cy="261.84000000000003" r="2"/><circle cx="0" cy="176.27999999999997" r="2"/><circle cx="0" cy="142.98000000000002" r="2"/><circle cx="60" cy="192.33" r="2"/><circle cx="60" cy="162.20999999999998" r="2"/><circle cx="60" cy="212.19" r="2"/><circle cx="60" cy="207.09" r="2"/><circle cx="60" cy="130.44" r="2"/><circle cx="108" cy="141" r="2"/><circle cx="0" cy="194.25" r="2"/><circle cx="0" cy="195.24" r="2"/><circle cx="0" cy="228.63" r="2"/><circle cx="0" cy="219.48000000000002" r="2"/><circle cx="60" cy="226.44" r="2"/><circle/><circle cx="0" cy="198.48" r="2"/><circle cx="0" cy="189.39" r="2"/><circle cx="0" cy="154.92" r="2"/><circle cx="0" cy="122.37000000000002" r="2"/><circle cx="0" cy="144.48000000000002" r="2"/><circle cx="0" cy="31.110000000000003" r="2"/><circle cx="0" cy="34.319999999999986" r="2"/><circle cx="0" cy="140.64" r="2"/><circle cx="0" cy="111.9" r="2"/><circle cx="0" cy="117.11999999999999" r="2"/><circle cx="0" cy="179.24999999999997" r="2"/><circle cx="0" cy="180.42" r="2"/><circle cx="0" cy="138.6" r="2"/><circle cx="0" cy="205.68" r="2"/><circle cx="0" cy="141.92999999999998" r="2"/><circle cx="0" cy="161.73000000000002" r="2"/><circle/><circle cx="36" cy="205.14" r="2"/><circle cx="36" cy="131.25" r="2"/><circle/><circle cx="0" cy="155.30999999999997" r="2"/><circle cx="0" cy="211.23" r="2"/><circle cx="0" cy="194.51999999999998" r="2"/><circle cx="60" cy="171.78" r="2"/><circle cx="0" cy="153.96" r="2"/><circle cx="24" cy="75.11999999999999" r="2"/><circle cx="24" cy="94.67999999999999" r="2"/><circle cx="24" cy="53.939999999999955" r="2"/><circle cx="24" cy="43.88999999999999" r="2"/><circle cx="24" cy="9.000000000000007" r="2"/><circle cx="24" cy="0.780000000000014" r="2"/><circle cx="24" cy="27.690000000000015" r="2"/><circle cx="24" cy="8.519999999999994" r="2"/><circle cx="192" cy="16.739999999999988" r="2"/><circle cx="24" cy="15.33000000000001" r="2"/><circle cx="24" cy="124.73999999999998" r="2"/><circle cx="192" cy="149.85000000000002" r="2"/><circle cx="204.00000000000003" cy="186.99" r="2"/><circle cx="204.00000000000003" cy="186" r="2"/><circle cx="204.00000000000003" cy="216.03" r="2"/><circle cx="204.00000000000003" cy="233.64" r="2"/><circle cx="204.00000000000003" cy="255.35999999999999" r="2"/><circle cx="204.00000000000003" cy="279.24" r="2"/><circle cx="276" cy="276.66" r="2"/><circle/><circle/><circle cx="108" cy="217.89" r="2"/><circle cx="108" cy="231.09" r="2"/><circle cx="108" cy="108.24000000000001" r="2"/><circle cx="24" cy="24.209999999999965" r="2"/><circle cx="24" cy="161.04" r="2"/><circle cx="240" cy="197.30999999999997" r="2"/><circle cx="24" cy="170.37000000000003" r="2"/><circle cx="240" cy="174.29999999999998" r="2"/><circle/><circle cx="240" cy="120.24000000000001" r="2"/><circle cx="192" cy="122.57999999999998" r="2"/><circle cx="192" cy="124.32" r="2"/><circle cx="192" cy="138.18" r="2"/><circle cx="192" cy="129.81" r="2"/><circle cx="192" cy="93.42" r="2"/><circle cx="192" cy="86.16" r="2"/><circle cx="240" cy="92.16000000000001" r="2"/><circle cx="240" cy="181.11000000000004" r="2"/><circle cx="240" cy="241.68" r="2"/><circle cx="240" cy="146.82" r="2"/><circle cx="240" cy="193.64999999999998" r="2"/><circle cx="204.00000000000003" cy="242.19" r="2"/><circle cx="276" cy="238.89000000000001" r="2"/><circle cx="276" cy="190.53" r="2"/><circle cx="276" cy="181.23000000000002" r="2"/><circle/><circle cx="276" cy="196.83" r="2"/><circle cx="276" cy="45.71999999999999" r="2"/><circle cx="276" cy="144.57" r="2"/><circle cx="276" cy="109.58999999999999" r="2"/><circle/><circle cx="276" cy="164.07" r="2"/><circle/><circle cx="264" cy="210.96" r="2"/><circle cx="264" cy="175.26000000000002" r="2"/><circle cx="264" cy="189.06" r="2"/><circle cx="204.00000000000003" cy="210.27" r="2"/><circle cx="204.00000000000003" cy="153.03" r="2"/><circle cx="204.00000000000003" cy="215.25" r="2"/><circle cx="204.00000000000003" cy="221.51999999999998" r="2"/><circle cx="204.00000000000003" cy="224.85000000000002" r="2"/><circle/><circle cx="204.00000000000003" cy="192.39" r="2"/><circle cx="228" cy="172.68" r="2"/><circle cx="228" cy="173.49" r="2"/><circle cx="228" cy="131.49" r="2"/><circle cx="228" cy="51.80999999999999" r="2"/><circle cx="228" cy="59.940000000000026" r="2"/><circle cx="168.00000000000003" cy="7.979999999999987" r="2"/><circle cx="0" cy="124.47000000000001" r="2"/><circle cx="168.00000000000003" cy="72.42000000000002" r="2"/><circle cx="168.00000000000003" cy="113.67" r="2"/><circle cx="0" cy="194.31" r="2"/><circle cx="0" cy="201.99" r="2"/><circle cx="0" cy="132.09" r="2"/><circle cx="0" cy="96.63000000000001" r="2"/><circle cx="0" cy="134.43" r="2"/><circle cx="0" cy="195.42" r="2"/><circle cx="0" cy="212.01" r="2"/><circle cx="0" cy="158.79" r="2"/><circle cx="0" cy="186.24" r="2"/><circle cx="0" cy="96.12" r="2"/><circle cx="0" cy="78.08999999999999" r="2"/><circle/><circle/><circle cx="276" cy="267.15000000000003" r="2"/><circle cx="276" cy="169.07999999999998" r="2"/><circle cx="276" cy="105.47999999999998" r="2"/><circle cx="276" cy="144.03" r="2"/><circle cx="240" cy="162.81" r="2"/><circle cx="240" cy="183.51000000000002" r="2"/><circle cx="240" cy="203.76000000000002" r="2"/><circle cx="240" cy="181.86" r="2"/><circle cx="240" cy="217.79999999999998" r="2"/><circle cx="240" cy="193.95" r="2"/><circle cx="276" cy="179.4" r="2"/><circle cx="276" cy="220.5" r="2"/><circle cx="276" cy="156.51000000000002" r="2"/><circle cx="276" cy="169.68000000000004" r="2"/><circle cx="276" cy="98.66999999999999" r="2"/><circle cx="228" cy="54.690000000000005" r="2"/><circle cx="228" cy="139.47" r="2"/><circle cx="264" cy="75.48000000000005" r="2"/><circle cx="264" cy="1.3499999999999512" r="2"/><circle cx="264" cy="63.42000000000001" r="2"/><circle cx="264" cy="69.38999999999999" r="2"/><circle cx="264" cy="163.8" r="2"/><circle cx="204.00000000000003" cy="15.269999999999984" r="2"/><circle cx="204.00000000000003" cy="108.21000000000001" r="2"/><circle cx="204.00000000000003" cy="127.38" r="2"/><circle cx="204.00000000000003" cy="173.76" r="2"/><circle cx="204.00000000000003" cy="120.44999999999999" r="2"/><circle cx="204.00000000000003" cy="0" r="2"/><circle cx="108" cy="51.80999999999999" r="2"/><circle cx="108" cy="0" r="2"/><circle cx="108" cy="0" r="2"/><circle/><circle cx="276" cy="256.71" r="2"/><circle cx="276" cy="216.42000000000002" r="2"/><circle cx="276" cy="272.40000000000003" r="2"/><circle cx="276" cy="218.31" r="2"/><circle cx="276" cy="267.6" r="2"/><circle cx="276" cy="265.47" r="2"/><circle cx="276" cy="273.84000000000003" r="2"/><circle cx="276" cy="279.53999999999996" r="2"/><circle cx="276" cy="193.38000000000002" r="2"/><circle cx="276" cy="204.15" r="2"/><circle cx="276" cy="172.73999999999998" r="2"/><circle cx="276" cy="195.45000000000002" r="2"/><circle cx="276" cy="100.08" r="2"/><circle cx="276" cy="71.13" r="2"/><circle cx="276" cy="111.84" r="2"/><circle cx="276" cy="111.78000000000002" r="2"/><circle cx="276" cy="91.46999999999998" r="2"/><circle cx="276" cy="125.37000000000002" r="2"/><circle cx="276" cy="109.14" r="2"/><circle cx="276" cy="129.39000000000001" r="2"/><circle cx="276" cy="158.82" r="2"/><circle cx="276" cy="196.85999999999996" r="2"/><circle cx="276" cy="179.97000000000003" r="2"/><circle cx="276" cy="173.67" r="2"/><circle cx="276" cy="197.13" r="2"/><circle cx="276" cy="212.51999999999998" r="2"/><circle cx="276" cy="104.43000000000002" r="2"/><circle cx="228" cy="112.28999999999999" r="2"/><circle cx="228" cy="66.93000000000002" r="2"/><circle cx="228" cy="79.67999999999995" r="2"/><circle cx="228" cy="89.67000000000002" r="2"/><circle/><circle cx="228" cy="273.51" r="2"/><circle cx="228" cy="81.44999999999999" r="2"/><circle cx="228" cy="128.13000000000002" r="2"/><circle cx="228" cy="166.56" r="2"/><circle cx="228" cy="153.6" r="2"/><circle cx="228" cy="185.31" r="2"/><circle cx="228" cy="222.14999999999998" r="2"/><circle cx="228" cy="118.61999999999999" r="2"/><circle cx="228" cy="196.62" r="2"/><circle cx="228" cy="190.53" r="2"/><circle cx="276" cy="118.14000000000001" r="2"/><circle cx="276" cy="103.62000000000002" r="2"/><circle cx="276" cy="188.43000000000004" r="2"/><circle cx="276" cy="130.56" r="2"/><circle cx="276" cy="152.1" r="2"/><circle/></g></g></svg>