<?xml version="1.0" standalone="no"?><!DOCTYPE svg PUBLIC "-//W3C//DTD SVG 20010904//EN" "http://www.w3.org/TR/2001/REC-SVG-20010904/DTD/svg10.dtd"><svg id="svg" version="1.0" xmlns="http://www.w3.org/2000/svg" width="680" height="380"><defs><style type="text/css"><![CDATA[.axis path,.axis line { fill: none; stroke: black; shape-rendering: crispEdges; } .axis text { font-family: sans-serif; font-size: 12px; } .line { stroke-width: 2; fill: none; } ]]></style> </defs><g transform="translate(40,40)"><g class="axis" style="fill:black;" transform="translate(0,300)"><g class="tick" style="opacity: 1;" transform="translate(0,0)"><line y2="6" x2="0"/><text dy=".71em" style="text-anchor: middle;" y="9" x="0">Fri 22</text></g><g class="tick" style="opacity: 1;" transform="translate(75,0)"><line y2="6" x2="0"/><text dy=".71em" style="text-anchor: middle;" y="9" x="0">Sat 23</text></g><g class="tick" style="opacity: 1;" transform="translate(150,0)"><line y2="6" x2="0"/><text dy=".71em" style="text-anchor: middle;" y="9" x="0">May 24</text></g><g class="tick" style="opacity: 1;" transform="translate(225,0)"><line y2="6" x2="0"/><text dy=".71em" style="text-anchor: middle;" y="9" x="0">Mon 25</text></g><g class="tick" style="opacity: 1;" transform="translate(300,0)"><line y2="6" x2="0"/><text dy=".71em" style="text-anchor: middle;" y="9" x="0">Tue 26</text></g><g class="tick" style="opacity: 1;" transform="translate(375,0)"><line y2="6" x2="0"/><text dy=".71em" style="text-anchor: middle;" y="9" x="0">Wed 27</text></g><g class="tick" style="opacity: 1;" transform="translate(450,0)"><line y2="6" x2="0"/><text dy=".71em" style="text-anchor: middle;" y="9" x="0">Thu 28</text></g><g class="tick" style="opacity: 1;" transform="translate(525,0)"><line y2="6" x2="0"/><text dy=".71em" style="text-anchor: middle;" y="9" x="0">Fri 29</text></g><g class="tick" style="opacity: 1;" transform="translate(600,0)"><line y2="6" x2="0"/><text dy=".71em" style="text-anchor: middle;" y="9" x="0">Sat 30</text></g><path class="domain" d="M0,6V0H600V6"/><text x="600" y="30" text-anchor="end">Time</text></g><g class="axis" style="fill:green;" transform=""><g class="tick" style="opacity: 1;" transform="translate(0,300)"><line x2="-6" y2="0"/><text dy=".32em" style="text-anchor: end;" x="-9" y="0">0</text></g><g class="tick" style="opacity: 1;" transform="translate(0,270)"><line x2="-6" y2="0"/><text dy=".32em" style="text-anchor: end;" x="-9" y="0">10</text></g><g class="tick" style="opacity: 1;" transform="translate(0,240)"><line x2="-6" y2="0"/><text dy=".32em" style="text-anchor: end;" x="-9" y="0">20</text></g><g class="tick" style="opacity: 1;" transform="translate(0,210)"><line x2="-6" y2="0"/><text dy=".32em" style="text-anchor: end;" x="-9" y="0">30</text></g><g class="tick" style="opacity: 1;" transform="translate(0,180)"><line x2="-6" y2="0"/><text dy=".32em" style="text-anchor: end;" x="-9" y="0">40</text></g><g class="tick" style="opacity: 1;" transform="translate(0,150)"><line x2="-6" y2="0"/><text dy=".32em" style="text-anchor: end;" x="-9" y="0">50</text></g><g class="tick" style="opacity: 1;" transform="translate(0,120)"><line x2="-6" y2="0"/><text dy=".32em" style="text-anchor: end;" x="-9" y="0">60</text></g><g class="tick" style="opacity: 1;" transform="translate(0,90.00000000000001)"><line x2="-6" y2="0"/><text dy=".32em" style="text-anchor: end;" x="-9" y="0">70</text></g><g class="tick" style="opacity: 1;" transform="translate(0,59.999999999999986)"><line x2="-6" y2="0"/><text dy=".32em" style="text-anchor: end;" x="-9" y="0">80</text></g><g class="tick" style="opacity: 1;" transform="translate(0,29.999999999999993)"><line x2="-6" y2="0"/><text dy=".32em" style="text-anchor: end;" x="-9" y="0">90</text></g><g class="tick" style="opacity: 1;" transform="translate(0,0)"><line x2="-6" y2="0"/><text dy=".32em" style="text-anchor: end;" x="-9" y="0">100</text></g><path class="domain" d="M-6,0H0V300H-6"/><text x="0" y="-10" text-anchor="end">Effect</text></g><g class="axis" style="fill:red;" transform="translate(600,0)"><g class="tick" style="opacity: 1;" transform="translate(0,300)"><line x2="6" y2="0"/><text dy=".32em" style="text-anchor: start;" x="9" y="0">0</text></g><g class="tick" style="opacity: 1;" transform="translate(0,267.39130434782606)"><line x2="6" y2="0"/><text dy=".32em" style="text-anchor: start;" x="9" y="0">10</text></g><g class="tick" style="opacity: 1;" transform="translate(0,234.7826086956522)"><line x2="6" y2="0"/><text dy=".32em" style="text-anchor: start;" x="9" y="0">20</text></g><g class="tick" style="opacity: 1;" transform="translate(0,202.17391304347825)"><line x2="6" y2="0"/><text dy=".32em" style="text-anchor: start;" x="9" y="0">30</text></g><g class="tick" style="opacity: 1;" transform="translate(0,169.56521739130437)"><line x2="6" y2="0"/><text dy=".32em" style="text-anchor: start;" x="9" y="0">40</text></g><g class="tick" style="opacity: 1;" transform="translate(0,136.95652173913044)"><line x2="6" y2="0"/><text dy=".32em" style="text-anchor: start;" x="9" y="0">50</text></g><g class="tick" style="opacity: 1;" transform="translate(0,104.34782608695652)"><line x2="6" y2="0"/><text dy=".32em" style="text-anchor: start;" x="9" y="0">60</text></g><g class="tick" style="opacity: 1;" transform="translate(0,71.7391304347826)"><line x2="6" y2="0"/><text dy=".32em" style="text-anchor: start;" x="9" y="0">70</text></g><g class="tick" style="opacity: 1;" transform="translate(0,39.1304347826087)"><line x2="6" y2="0"/><text dy=".32em" style="text-anchor: start;" x="9" y="0">80</text></g><g class="tick" style="opacity: 1;" transform="translate(0,6.521739130434778)"><line x2="6" y2="0"/><text dy=".32em" style="text-anchor: start;" x="9" y="0">90</text></g><path class="domain" d="M6,0H0V300H6"/><text x="0" y="-10" text-anchor="start">Clouds</text></g><path class="line" style="stroke:red;" d="M29.239583333333332,0L30.80295138888889,117.39130434782608L30.80295138888889,117.39130434782608L33.92795138888889,117.39130434782608L35.49131944444444,117.39130434782608L37.05381944444444,117.39130434782608L38.6171875,117.39130434782608L40.1796875,260.8695652173913L41.74305555555556,91.30434782608697L43.30555555555555,260.8695652173913L44.86805555555556,91.30434782608697L46.431423611111114,260.8695652173913L47.993923611111114,260.8695652173913L49.55729166666667,273.9130434782609L51.12065972222223,273.9130434782609L52.68315972222222,273.9130434782609L54.24652777777778,273.9130434782609L55.80989583333333,273.9130434782609L57.0859375,156.52173913043478L58.93576388888889,234.7826086956522L60.49826388888889,234.7826086956522L62.06163194444445,0L63.62586805555556,234.7826086956522L65.18923611111111,234.7826086956522M94.88454861111111,300L96.44704861111111,234.7826086956522L98.00954861111111,234.7826086956522L99.57291666666666,234.7826086956522L101.13541666666667,234.7826086956522L102.69791666666667,234.7826086956522L104.26128472222223,182.60869565217394L105.82378472222223,300L107.38715277777777,300L108.94965277777779,300L110.51302083333333,300L112.0763888888889,234.7826086956522L113.63888888888889,300L113.63888888888889,300L116.76475694444444,300L118.328125,300L119.88541666666667,300L121.453125,300L123.01649305555554,300L124.57899305555556,300L126.1423611111111,300L127.70486111111111,300L129.26822916666666,300L130.83159722222223,300L132.39496527777777,300L133.95920138888889,300L135.5234375,300L137.08767361111111,300L138.65104166666669,300L140.21527777777777,300M169.91666666666669,260.8695652173913L171.47916666666666,300L171.47916666666666,300L174.60503472222223,300L176.16840277777777,300L177.73090277777777,234.7826086956522L179.29513888888889,300L180.8576388888889,273.9130434782609L182.4236111111111,273.9130434782609L183.99565972222223,273.9130434782609L185.55902777777777,273.9130434782609L187.12152777777777,273.9130434782609L188.68489583333334,273.9130434782609L190.24913194444446,273.9130434782609L191.8125,273.9130434782609L193.375,91.30434782608697L194.9375,273.9130434782609L196.51475694444446,273.9130434782609L198.0824652777778,91.30434782608697L199.65017361111111,78.2608695652174L201.21788194444446,78.2608695652174L202.78211805555557,78.2608695652174L204.34461805555557,78.2608695652174L205.90798611111111,78.2608695652174L207.18229166666666,78.2608695652174L209.0425347222222,0L210.6059027777778,0L210.6059027777778,0L213.73350694444446,0L215.296875,0M244.99131944444443,273.9130434782609L246.55381944444446,273.9130434782609L248.1171875,39.1304347826087L249.6796875,273.9130434782609L250.95399305555554,39.1304347826087L252.80555555555557,39.1304347826087L252.80555555555557,39.1304347826087L255.93142361111111,91.30434782608697L257.20486111111114,91.30434782608697L259.0572916666667,91.30434782608697L260.61979166666663,91.30434782608697L261.89409722222223,91.30434782608697L263.74652777777777,91.30434782608697L265.30902777777777,39.1304347826087L266.8723958333333,39.1304347826087L268.4348958333333,39.1304347826087L269.9982638888889,39.1304347826087L271.56076388888886,39.1304347826087L272.83506944444446,78.2608695652174L274.68663194444446,0L276.24913194444446,0L277.8125,0L279.3776041666667,0L282.50607638888886,0L284.0703125,0L285.63368055555554,0L287.19878472222223,0L287.19878472222223,0L290.328125,0L290.328125,0M320.0251736111111,13.043478260869556L321.5876736111111,78.2608695652174L323.15104166666663,78.2608695652174L324.7135416666667,78.2608695652174L326.27690972222223,78.2608695652174L327.84027777777777,78.2608695652174L329.40277777777777,78.2608695652174L329.40277777777777,78.2608695652174L332.23871527777777,52.17391304347826L334.0911458333333,52.17391304347826L335.65451388888886,52.17391304347826L336.9279513888889,52.17391304347826L338.78038194444446,52.17391304347826L340.05381944444446,117.39130434782608L341.90625,300L343.17968750000006,117.39130434782608L344.7421875,117.39130434782608L346.59548611111114,300L348.1579861111111,300L349.72135416666663,300L351.2838541666667,300L352.84722222222223,300L354.40972222222223,300L355.9748263888889,300L357.53819444444446,300L359.10069444444446,300L360.6631944444444,300L362.2265625,300L363.7899305555556,300M395.05902777777777,0L396.6232638888889,39.1304347826087L398.1857638888889,39.1304347826087L399.7508680555556,39.1304347826087L401.02256944444446,39.1304347826087L402.8767361111111,39.1304347826087L404.4392361111111,39.1304347826087L406.0026041666667,0L407.56597222222223,0L409.12934027777777,0L410.6927083333333,0L412.25607638888886,0L413.8203125,0L415.0920138888889,52.17391304347826L416.94618055555554,13.043478260869556L418.50868055555554,13.043478260869556L420.07204861111114,13.043478260869556L421.6354166666667,13.043478260869556L423.19791666666663,13.043478260869556L424.76128472222223,78.2608695652174L426.32638888888886,78.2608695652174L427.8888888888889,78.2608695652174L429.45225694444446,78.2608695652174L431.015625,78.2608695652174L432.57899305555554,78.2608695652174L434.14149305555554,182.60869565217394L435.7048611111111,182.60869565217394L437.26736111111114,182.60869565217394L438.8298611111111,182.60869565217394L440.39322916666663,182.60869565217394M470.0885416666667,0L471.6510416666667,0L473.21354166666663,0L474.7769097222222,0L476.3402777777778,0L477.90277777777777,0L477.90277777777777,0L481.0286458333333,0L482.59114583333337,0L484.1536458333333,0L485.71701388888886,0L487.27951388888886,0L488.84288194444446,0L490.40538194444446,0L491.96788194444446,0L493.53125,0L495.09375,0L496.65711805555554,0L498.21961805555554,0L499.7829861111111,0L501.34635416666663,0L502.9088541666667,0L504.4713541666667,0L506.03472222222223,0L507.30555555555554,0L509.1605902777778,52.17391304347826L510.72395833333337,52.17391304347826L512.2873263888889,52.17391304347826L513.8498263888889,52.17391304347826L515.4131944444445,52.17391304347826M545.1119791666666,52.17391304347826L546.6744791666666,52.17391304347826L548.2369791666667,52.17391304347826L548.2369791666667,52.17391304347826L551.3637152777778,52.17391304347826L552.9279513888889,52.17391304347826L554.1987847222223,52.17391304347826L556.0538194444445,0L557.6163194444445,0L559.1814236111111,0L560.7439236111111,0L562.3159722222223,0L563.8784722222222,0"/><path class="line" style="stroke:green;" d="M30.994791666666664,123.24000000000001L34.119791666666664,127.59L37.24479166666667,128.25L40.369791666666664,123.39L43.494791666666664,182.13L46.61979166666667,89.16000000000001L49.744791666666664,155.1L52.869791666666664,191.64000000000001L55.99479166666667,253.44M90.36979166666667,242.85L93.49479166666666,133.92000000000002L96.61979166666667,174.05999999999997L99.74479166666667,209.31L102.86979166666666,139.76999999999998L105.99479166666667,194.07000000000002L109.11979166666667,224.07L112.24479166666666,213.54L115.36979166666667,193.83L118.49479166666667,138.57L121.61979166666666,87.99L124.74479166666667,84.11999999999996L127.86979166666667,114.33L130.99479166666666,179.79L134.11979166666666,158.54999999999998L137.24479166666666,148.38000000000002M168.49479166666669,140.13L171.61979166666666,157.08L174.74479166666666,201.93L177.86979166666669,165.03L180.99479166666666,83.76L184.11979166666666,48.89999999999998L187.24479166666669,4.859999999999998L190.36979166666666,17.909999999999993L193.49479166666666,15.990000000000004L196.61979166666669,136.74L199.74479166666666,185.79L202.86979166666666,224.34L205.99479166666669,265.86L209.11979166666666,272.58000000000004M240.36979166666666,212.70000000000002L243.49479166666669,20.760000000000012L246.61979166666666,183.59999999999997L249.74479166666666,172.52999999999997L252.86979166666669,147.9L255.99479166666666,122.07000000000001L259.11979166666663,133.98L262.2447916666667,89.76L265.3697916666667,137.37L268.49479166666663,194.27999999999997L271.6197916666667,217.29L274.7447916666667,215.19000000000003L277.86979166666663,196.04999999999998L280.9947916666667,130.86L284.1197916666667,123.42L287.24479166666663,113.51999999999998M315.36979166666663,188.88L318.4947916666667,164.01L321.6197916666667,175.47L324.74479166666663,218.76000000000002L327.8697916666667,217.62L330.9947916666667,181.17L334.11979166666663,152.31L337.2447916666667,55.98L340.3697916666667,66.99000000000005L343.49479166666663,93.03000000000002L346.6197916666667,197.82L349.7447916666667,113.84999999999998L352.86979166666663,163.35L355.9947916666667,188.61L359.1197916666667,144.84L362.24479166666663,112.71000000000001M390.36979166666663,253.98000000000002L393.4947916666667,104.85000000000001L396.6197916666667,155.67000000000002L399.74479166666663,194.91L402.8697916666667,203.64000000000001L405.9947916666667,185.55L409.11979166666663,188.55L412.2447916666667,133.83L415.3697916666667,97.59L418.49479166666663,38.43L421.6197916666667,65.79000000000002L424.7447916666667,91.53000000000002L427.86979166666663,117.24000000000001L430.9947916666667,150.45000000000002L434.1197916666667,6.989999999999997L437.24479166666663,0M468.4947916666667,220.08L471.6197916666667,239.16L474.74479166666663,266.46L477.8697916666667,277.47L480.9947916666667,198.27L484.11979166666663,184.11L487.2447916666667,85.40999999999998L490.3697916666667,111.78000000000002L493.49479166666663,108.35999999999999L496.6197916666667,118.71000000000002L499.7447916666667,176.18999999999997L502.86979166666663,176.96999999999997L505.9947916666667,203.96999999999997L509.1197916666667,98.64L512.2447916666666,71.34M540.3697916666666,260.31L543.4947916666666,75.78000000000002L546.6197916666667,158.85000000000002L549.7447916666666,206.04000000000002L552.8697916666666,164.43L555.9947916666667,151.5L559.1197916666666,146.37L562.2447916666666,141.54"/></g></svg>