<?xml version="1.0" standalone="no"?><!DOCTYPE svg PUBLIC "-//W3C//DTD SVG 20010904//EN" "http://www.w3.org/TR/2001/REC-SVG-20010904/DTD/svg10.dtd"><svg id="svg" version="1.0" xmlns="http://www.w3.org/2000/svg" width="380" height="380"><defs><style type="text/css"><![CDATA[.axis path,.axis line { fill: none; stroke: black; shape-rendering: crispEdges; } .axis text { font-family: sans-serif; font-size: 12px; } .line { stroke-width: 2; fill: none; } ]]></style> </defs><g transform="translate(40,40)"><g class="axis" style="fill:black;" transform="translate(0,300)"><g class="tick" style="opacity: 1;" transform="translate(0,0)"><line y2="6" x2="0"/><text dy=".71em" style="text-anchor: middle;" y="9" x="0">0</text></g><g class="tick" style="opacity: 1;" transform="translate(30,0)"><line y2="6" x2="0"/><text dy=".71em" style="text-anchor: middle;" y="9" x="0">10</text></g><g class="tick" style="opacity: 1;" transform="translate(60,0)"><line y2="6" x2="0"/><text dy=".71em" style="text-anchor: middle;" y="9" x="0">20</text></g><g class="tick" style="opacity: 1;" transform="translate(90,0)"><line y2="6" x2="0"/><text dy=".71em" style="text-anchor: middle;" y="9" x="0">30</text></g><g class="tick" style="opacity: 1;" transform="translate(120,0)"><line y2="6" x2="0"/><text dy=".71em" style="text-anchor: middle;" y="9" x="0">40</text></g><g class="tick" style="opacity: 1;" transform="translate(150,0)"><line y2="6" x2="0"/><text dy=".71em" style="text-anchor: middle;" y="9" x="0">50</text></g><g class="tick" style="opacity: 1;" transform="translate(180,0)"><line y2="6" x2="0"/><text dy=".71em" style="text-anchor: middle;" y="9" x="0">60</text></g><g class="tick" style="opacity: 1;" transform="translate(210,0)"><line y2="6" x2="0"/><text dy=".71em" style="text-anchor: middle;" y="9" x="0">70</text></g><g class="tick" style="opacity: 1;" transform="translate(240,0)"><line y2="6" x2="0"/><text dy=".71em" style="text-anchor: middle;" y="9" x="0">80</text></g><g class="tick" style="opacity: 1;" transform="translate(270,0)"><line y2="6" x2="0"/><text dy=".71em" style="text-anchor: middle;" y="9" x="0">90</text></g><g class="tick" style="opacity: 1;" transform="translate(300,0)"><line y2="6" x2="0"/><text dy=".71em" style="text-anchor: middle;" y="9" x="0">100</text></g><path class="domain" d="M0,6V0H300V6"/><text x="300" y="30" text-anchor="end">Clouds</text></g><g class="axis" style="fill:black;" transform=""><g class="tick" style="opacity: 1;" transform="translate(0,300)"><line x2="-6" y2="0"/><text dy=".32em" style="text-anchor: end;" x="-9" y="0">0</text></g><g class="tick" style="opacity: 1;" transform="translate(0,270)"><line x2="-6" y2="0"/><text dy=".32em" style="text-anchor: end;" x="-9" y="0">10</text></g><g class="tick" style="opacity: 1;" transform="translate(0,240)"><line x2="-6" y2="0"/><text dy=".32em" style="text-anchor: end;" x="-9" y="0">20</text></g><g class="tick" style="opacity: 1;" transform="translate(0,210)"><line x2="-6" y2="0"/><text dy=".32em" style="text-anchor: end;" x="-9" y="0">30</text></g><g class="tick" style="opacity: 1;" transform="translate(0,180)"><line x2="-6" y2="0"/><text dy=".32em" style="text-anchor: end;" x="-9" y="0">40</text></g><g class="tick" style="opacity: 1;" transform="translate(0,150)"><line x2="-6" y2="0"/><text dy=".32em" style="text-anchor: end;" x="-9" y="0">50</text></g><g class="tick" style="opacity: 1;" transform="translate(0,120)"><line x2="-6" y2="0"/><text dy=".32em" style="text-anchor: end;" x="-9" y="0">60</text></g><g class="tick" style="opacity: 1;" transform="translate(0,90.00000000000001)"><line x2="-6" y2="0"/><text dy=".32em" style="text-anchor: end;" x="-9" y="0">70</text></g><g class="tick" style="opacity: 1;" transform="translate(0,59.999999999999986)"><line x2="-6" y2="0"/><text dy=".32em" style="text-anchor: end;" x="-9" y="0">80</text></g><g class="tick" style="opacity: 1;" transform="translate(0,29.999999999999993)"><line x2="-6" y2="0"/><text dy=".32em" style="text-anchor: end;" x="-9" y="0">90</text></g><g class="tick" style="opacity: 1;" transform="translate(0,0)"><line x2="-6" y2="0"/><text dy=".32em" style="text-anchor: end;" x="-9" y="0">100</text></g><path class="domain" d="M-6,0H0V300H-6"/><text x="0" y="-10" text-anchor="end">Effect</text></g><g class="dot"><circle/><circle/><circle/><circle/><circle/><circle/><circle/><circle/><circle/><circle/><circle/><circle/><circle/><circle/><circle/><circle/><circle/><circle/><circle/><circle/><circle/><circle/><circle/><circle/><circle/><circle/><circle/><circle/><circle/><circle/><circle/><circle/><circle/><circle/><circle cx="0" cy="137.37" r="2"/><circle cx="72" cy="143.01" r="2"/><circle cx="72" cy="90.33000000000001" r="2"/><circle cx="72" cy="55.86000000000001" r="2"/><circle cx="36" cy="76.88999999999999" r="2"/><circle cx="36" cy="46.140000000000015" r="2"/><circle cx="36" cy="93.99000000000001" r="2"/><circle cx="276" cy="73.86000000000003" r="2"/><circle cx="276" cy="238.62" r="2"/><circle cx="276" cy="227.46" r="2"/><circle cx="192" cy="160.95" r="2"/><circle/><circle cx="108" cy="204.51" r="2"/><circle cx="0" cy="223.95" r="2"/><circle cx="0" cy="219.71999999999997" r="2"/><circle cx="0" cy="156.63" r="2"/><circle cx="144" cy="173.07" r="2"/><circle cx="144" cy="155.30999999999997" r="2"/><circle cx="144" cy="126.83999999999999" r="2"/><circle cx="204.00000000000003" cy="129.99" r="2"/><circle cx="144" cy="163.07999999999998" r="2"/><circle cx="144" cy="208.35" r="2"/><circle cx="144" cy="235.67999999999998" r="2"/><circle cx="96" cy="139.29000000000002" r="2"/><circle cx="96" cy="142.71" r="2"/><circle cx="168.00000000000003" cy="175.13999999999996" r="2"/><circle/><circle cx="0" cy="234.20999999999998" r="2"/><circle cx="0" cy="220.23" r="2"/><circle cx="0" cy="179.58" r="2"/><circle cx="0" cy="137.1" r="2"/><circle cx="72" cy="159.89999999999998" r="2"/><circle cx="72" cy="69.14999999999998" r="2"/><circle cx="168.00000000000003" cy="132.42000000000002" r="2"/><circle cx="168.00000000000003" cy="254.52" r="2"/><circle cx="168.00000000000003" cy="287.7" r="2"/><circle cx="228" cy="222.17999999999998" r="2"/><circle cx="228" cy="269.73" r="2"/><circle cx="228" cy="276.27000000000004" r="2"/><circle cx="276" cy="262.71000000000004" r="2"/><circle/><circle cx="0" cy="184.77000000000004" r="2"/><circle cx="96" cy="162.39000000000001" r="2"/><circle cx="96" cy="228.93" r="2"/><circle cx="96" cy="233.19" r="2"/><circle cx="0" cy="118.61999999999999" r="2"/><circle cx="0" cy="148.85999999999999" r="2"/><circle cx="0" cy="199.35" r="2"/><circle cx="96" cy="184.95000000000002" r="2"/><circle cx="96" cy="115.11000000000001" r="2"/><circle cx="96" cy="188.64000000000001" r="2"/><circle cx="276" cy="133.92000000000002" r="2"/><circle cx="276" cy="173.15999999999997" r="2"/><circle cx="276" cy="237.09" r="2"/><circle cx="96" cy="105.35999999999999" r="2"/><circle/><circle cx="0" cy="230.46" r="2"/><circle cx="0" cy="240.57000000000002" r="2"/><circle cx="0" cy="217.32" r="2"/><circle cx="0" cy="136.86" r="2"/><circle cx="24" cy="108.66" r="2"/><circle cx="24" cy="63.18" r="2"/><circle cx="24" cy="57.690000000000005" r="2"/><circle cx="0" cy="140.58" r="2"/><circle cx="0" cy="38.129999999999995" r="2"/><circle cx="0" cy="36.03000000000003" r="2"/><circle cx="0" cy="88.17000000000002" r="2"/><circle cx="0" cy="5.070000000000007" r="2"/><circle cx="0" cy="136.10999999999999" r="2"/><circle cx="0" cy="154.68" r="2"/><circle/><circle cx="0" cy="0" r="2"/><circle cx="0" cy="0" r="2"/><circle cx="0" cy="0" r="2"/><circle cx="24" cy="0" r="2"/><circle cx="24" cy="0" r="2"/><circle cx="24" cy="0" r="2"/><circle cx="96" cy="0" r="2"/><circle cx="96" cy="0" r="2"/><circle cx="96" cy="34.13999999999997" r="2"/><circle cx="192" cy="116.57999999999998" r="2"/><circle cx="192" cy="126.75" r="2"/><circle cx="192" cy="160.08" r="2"/><circle cx="264" cy="234.63" r="2"/><circle/><circle cx="276" cy="263.67" r="2"/><circle cx="264" cy="219.69" r="2"/><circle cx="264" cy="217.92" r="2"/><circle cx="264" cy="243.81" r="2"/><circle cx="240" cy="191.88" r="2"/><circle cx="240" cy="248.04" r="2"/><circle cx="240" cy="212.25" r="2"/><circle cx="228" cy="232.29" r="2"/><circle cx="228" cy="223.44" r="2"/><circle cx="228" cy="183.93" r="2"/><circle cx="228" cy="174.00000000000003" r="2"/><circle cx="228" cy="184.92000000000002" r="2"/><circle cx="228" cy="218.85000000000002" r="2"/><circle cx="228" cy="179.46" r="2"/><circle/><circle cx="108" cy="219.03" r="2"/><circle cx="276" cy="237.39000000000001" r="2"/><circle cx="276" cy="280.62" r="2"/><circle cx="276" cy="281.34" r="2"/><circle cx="300" cy="284.49" r="2"/><circle cx="300" cy="288.59999999999997" r="2"/><circle cx="300" cy="285.81" r="2"/><circle cx="276" cy="273.21000000000004" r="2"/><circle cx="276" cy="187.64999999999998" r="2"/><circle cx="276" cy="289.41" r="2"/><circle cx="276" cy="211.08" r="2"/><circle cx="276" cy="213.3" r="2"/><circle cx="276" cy="169.02" r="2"/><circle cx="264" cy="269.94" r="2"/><circle/><circle cx="276" cy="214.89" r="2"/><circle cx="264" cy="228.9" r="2"/><circle cx="264" cy="209.94" r="2"/><circle cx="264" cy="212.55" r="2"/><circle cx="228" cy="228.27" r="2"/><circle cx="228" cy="193.88999999999996" r="2"/><circle cx="228" cy="144.6" r="2"/><circle cx="240" cy="219.96000000000004" r="2"/><circle cx="240" cy="201.02999999999997" r="2"/><circle cx="240" cy="184.64999999999998" r="2"/><circle cx="276" cy="121.10999999999999" r="2"/><circle cx="276" cy="147" r="2"/><circle cx="276" cy="149.88000000000002" r="2"/><circle cx="276" cy="168.15" r="2"/><circle/><circle cx="276" cy="270.93" r="2"/><circle cx="276" cy="227.48999999999998" r="2"/><circle cx="276" cy="232.44000000000003" r="2"/><circle cx="276" cy="244.41" r="2"/><circle cx="276" cy="200.57999999999998" r="2"/><circle cx="276" cy="204.54" r="2"/><circle cx="276" cy="129.03" r="2"/><circle cx="264" cy="187.5" r="2"/><circle cx="264" cy="123.69" r="2"/><circle cx="264" cy="128.73000000000002" r="2"/><circle cx="204.00000000000003" cy="161.49" r="2"/><circle cx="204.00000000000003" cy="190.14" r="2"/><circle cx="204.00000000000003" cy="128.52" r="2"/><circle cx="108" cy="226.61999999999998" r="2"/><circle/><circle cx="24" cy="211.76999999999998" r="2"/><circle cx="36" cy="232.07999999999998" r="2"/><circle cx="36" cy="205.68" r="2"/><circle cx="36" cy="140.55" r="2"/><circle cx="108" cy="103.64999999999998" r="2"/><circle cx="108" cy="113.13" r="2"/><circle cx="108" cy="35.010000000000005" r="2"/><circle cx="72" cy="70.02000000000001" r="2"/><circle cx="72" cy="127.86000000000001" r="2"/><circle cx="72" cy="44.489999999999995" r="2"/><circle cx="0" cy="34.58999999999999" r="2"/><circle cx="0" cy="68.18999999999998" r="2"/><circle cx="0" cy="40.2" r="2"/><circle cx="60" cy="48.36" r="2"/><circle/><circle cx="204.00000000000003" cy="215.91" r="2"/><circle cx="276" cy="222.87" r="2"/><circle cx="276" cy="277.98" r="2"/><circle cx="276" cy="280.98" r="2"/><circle cx="276" cy="279.48" r="2"/><circle cx="276" cy="266.37" r="2"/><circle cx="276" cy="266.37" r="2"/><circle cx="276" cy="242.36999999999998" r="2"/><circle cx="276" cy="253.79999999999998" r="2"/><circle cx="276" cy="248.10000000000002" r="2"/><circle cx="228" cy="272.31" r="2"/><circle cx="228" cy="207.65999999999997" r="2"/><circle cx="228" cy="273.36" r="2"/><circle cx="240" cy="278.58" r="2"/><circle/><circle cx="168.00000000000003" cy="203.46" r="2"/><circle cx="0" cy="195.63" r="2"/><circle cx="0" cy="173.01" r="2"/><circle cx="0" cy="150.39000000000001" r="2"/><circle cx="72" cy="109.77" r="2"/><circle cx="72" cy="46.830000000000005" r="2"/><circle cx="72" cy="0" r="2"/><circle cx="0" cy="0" r="2"/><circle cx="0" cy="0" r="2"/><circle cx="0" cy="0.48000000000004706" r="2"/><circle cx="0" cy="0" r="2"/><circle cx="0" cy="8.54999999999999" r="2"/><circle cx="0" cy="47.01000000000002" r="2"/><circle cx="24" cy="38.48999999999999" r="2"/><circle/><circle cx="108" cy="222.21" r="2"/><circle cx="108" cy="96.53999999999999" r="2"/><circle cx="132" cy="115.32" r="2"/><circle cx="132" cy="186.09000000000003" r="2"/><circle cx="132" cy="157.14" r="2"/><circle cx="144" cy="150.48000000000002" r="2"/><circle cx="144" cy="127.13999999999999" r="2"/><circle cx="144" cy="44.579999999999984" r="2"/><circle cx="240" cy="22.620000000000008" r="2"/><circle cx="240" cy="26.969999999999995" r="2"/><circle cx="240" cy="25.19999999999999" r="2"/><circle cx="144" cy="86.79000000000003" r="2"/><circle cx="144" cy="144.35999999999999" r="2"/><circle cx="144" cy="212.91" r="2"/><circle/><circle cx="276" cy="166.07999999999998" r="2"/><circle cx="276" cy="217.56000000000003" r="2"/><circle cx="276" cy="274.71" r="2"/><circle cx="276" cy="252.63" r="2"/><circle cx="276" cy="240.54" r="2"/><circle cx="276" cy="243.72" r="2"/><circle cx="276" cy="252.29999999999998" r="2"/><circle cx="276" cy="262.83" r="2"/><circle cx="276" cy="256.17" r="2"/><circle cx="276" cy="276" r="2"/><circle cx="276" cy="242.57999999999998" r="2"/><circle cx="276" cy="251.55" r="2"/><circle cx="276" cy="252.21" r="2"/><circle cx="276" cy="249.95999999999998" r="2"/><circle/><circle cx="276" cy="119.37" r="2"/><circle cx="0" cy="186.45" r="2"/><circle cx="0" cy="227.61" r="2"/><circle cx="0" cy="196.46999999999997" r="2"/><circle cx="276" cy="199.07999999999998" r="2"/><circle cx="276" cy="212.10000000000002" r="2"/><circle cx="276" cy="230.4" r="2"/><circle cx="276" cy="207.57" r="2"/><circle cx="276" cy="227.37" r="2"/><circle cx="276" cy="227.73" r="2"/><circle cx="276" cy="226.08" r="2"/><circle cx="276" cy="261.75" r="2"/><circle cx="276" cy="276.03000000000003" r="2"/><circle cx="276" cy="278.34" r="2"/><circle/><circle/><circle/><circle/><circle/><circle/><circle/><circle/><circle/><circle/><circle/><circle/><circle/><circle/><circle/><circle/><circle/><circle/><circle/><circle/><circle/><circle/><circle/><circle cx="276" cy="40.5" r="2"/><circle cx="0" cy="94.98" r="2"/><circle cx="0" cy="117.77999999999999" r="2"/><circle cx="0" cy="23.06999999999999" r="2"/><circle cx="0" cy="51.12000000000003" r="2"/><circle cx="0" cy="92.85" r="2"/><circle cx="0" cy="91.22999999999998" r="2"/><circle cx="24" cy="113.54999999999998" r="2"/><circle/><circle cx="228" cy="196.20000000000005" r="2"/><circle cx="240" cy="202.70999999999998" r="2"/><circle cx="240" cy="228.09" r="2"/><circle cx="204.00000000000003" cy="229.08" r="2"/><circle cx="276" cy="249.89999999999998" r="2"/><circle cx="276" cy="243.54" r="2"/><circle cx="276" cy="250.68" r="2"/><circle cx="276" cy="250.29000000000002" r="2"/><circle cx="276" cy="262.44" r="2"/><circle cx="276" cy="262.04999999999995" r="2"/><circle cx="276" cy="235.04999999999998" r="2"/><circle cx="108" cy="182.94000000000003" r="2"/><circle cx="108" cy="122.34000000000002" r="2"/><circle cx="24" cy="128.94" r="2"/><circle/><circle cx="276" cy="247.62" r="2"/><circle cx="276" cy="161.94" r="2"/><circle cx="276" cy="174.42000000000002" r="2"/><circle cx="168.00000000000003" cy="186.09000000000003" r="2"/><circle cx="276" cy="127.59" r="2"/><circle cx="276" cy="134.55" r="2"/><circle cx="276" cy="143.42999999999998" r="2"/><circle cx="240" cy="76.79999999999997" r="2"/><circle cx="276" cy="108.27" r="2"/><circle cx="276" cy="43.2" r="2"/><circle cx="276" cy="96.93000000000002" r="2"/><circle cx="276" cy="93.03000000000002" r="2"/><circle cx="276" cy="163.20000000000002" r="2"/><circle cx="276" cy="151.68" r="2"/><circle cx="276" cy="229.01999999999998" r="2"/><circle cx="276" cy="254.58" r="2"/><circle/><circle cx="276" cy="249.21" r="2"/><circle cx="192" cy="41.520000000000024" r="2"/><circle cx="228" cy="92.33999999999999" r="2"/><circle cx="228" cy="166.23000000000002" r="2"/><circle cx="228" cy="151.82999999999998" r="2"/><circle cx="276" cy="172.38" r="2"/><circle cx="276" cy="174.60000000000002" r="2"/><circle cx="276" cy="192.21" r="2"/><circle cx="276" cy="228.78000000000003" r="2"/><circle cx="276" cy="249.75" r="2"/><circle cx="276" cy="242.97000000000003" r="2"/><circle cx="276" cy="244.17000000000002" r="2"/><circle cx="276" cy="249.72" r="2"/><circle cx="276" cy="261.84000000000003" r="2"/><circle cx="276" cy="251.64" r="2"/><circle/><circle cx="228" cy="151.56" r="2"/><circle cx="276" cy="154.59000000000003" r="2"/><circle cx="276" cy="134.36999999999998" r="2"/><circle cx="0" cy="114.41999999999999" r="2"/><circle cx="132" cy="138.54" r="2"/><circle cx="72" cy="215.55" r="2"/><circle cx="132" cy="56.46000000000001" r="2"/><circle cx="276" cy="70.8" r="2"/><circle cx="276" cy="171.54" r="2"/><circle cx="276" cy="110.37" r="2"/><circle cx="276" cy="120.14999999999999" r="2"/><circle cx="276" cy="103.11" r="2"/><circle cx="276" cy="128.28" r="2"/><circle cx="276" cy="182.37" r="2"/><circle/><circle cx="144" cy="214.29" r="2"/><circle cx="144" cy="99.65999999999998" r="2"/><circle cx="276" cy="76.77000000000001" r="2"/><circle cx="276" cy="207.51" r="2"/><circle cx="264" cy="137.7" r="2"/><circle cx="96" cy="134.22" r="2"/><circle cx="96" cy="158.76" r="2"/><circle cx="96" cy="148.92" r="2"/><circle cx="204.00000000000003" cy="105.68999999999998" r="2"/><circle cx="276" cy="197.04000000000002" r="2"/><circle cx="204.00000000000003" cy="102.65999999999998" r="2"/><circle cx="228" cy="17.669999999999987" r="2"/><circle cx="264" cy="0" r="2"/><circle cx="228" cy="0" r="2"/><circle cx="264" cy="0" r="2"/><circle cx="264" cy="214.05" r="2"/><circle/><circle cx="276" cy="233.33999999999997" r="2"/><circle cx="276" cy="73.71000000000001" r="2"/><circle cx="204.00000000000003" cy="115.32" r="2"/><circle cx="204.00000000000003" cy="162" r="2"/><circle cx="204.00000000000003" cy="175.74" r="2"/><circle cx="228" cy="191.67000000000002" r="2"/><circle cx="240" cy="224.07" r="2"/><circle cx="228" cy="225.27" r="2"/><circle cx="132" cy="230.28000000000003" r="2"/><circle cx="132" cy="175.89" r="2"/><circle cx="132" cy="66.75000000000001" r="2"/><circle cx="276" cy="181.14000000000001" r="2"/><circle cx="276" cy="164.52" r="2"/><circle cx="276" cy="113.07000000000001" r="2"/><circle cx="264" cy="145.08" r="2"/><circle cx="264" cy="68.1" r="2"/><circle/><circle cx="276" cy="200.33999999999997" r="2"/><circle cx="276" cy="141.15" r="2"/><circle cx="276" cy="179.91" r="2"/><circle cx="276" cy="142.68" r="2"/><circle cx="168.00000000000003" cy="123.24000000000001" r="2"/><circle cx="168.00000000000003" cy="127.59" r="2"/><circle cx="168.00000000000003" cy="128.25" r="2"/><circle cx="36" cy="123.39" r="2"/><circle cx="36" cy="182.13" r="2"/><circle cx="36" cy="89.16000000000001" r="2"/><circle cx="24" cy="155.1" r="2"/><circle cx="24" cy="191.64000000000001" r="2"/><circle cx="24" cy="253.44" r="2"/><circle/><circle cx="0" cy="242.85" r="2"/><circle cx="0" cy="133.92000000000002" r="2"/><circle cx="60" cy="174.05999999999997" r="2"/><circle cx="60" cy="209.31" r="2"/><circle cx="60" cy="139.76999999999998" r="2"/><circle cx="0" cy="194.07000000000002" r="2"/><circle cx="0" cy="224.07" r="2"/><circle cx="60" cy="213.54" r="2"/><circle cx="0" cy="193.83" r="2"/><circle cx="0" cy="138.57" r="2"/><circle cx="0" cy="87.99" r="2"/><circle cx="0" cy="84.11999999999996" r="2"/><circle cx="0" cy="114.33" r="2"/><circle cx="0" cy="179.79" r="2"/><circle cx="0" cy="158.54999999999998" r="2"/><circle cx="0" cy="148.38000000000002" r="2"/><circle/><circle cx="36" cy="140.13" r="2"/><circle cx="0" cy="157.08" r="2"/><circle cx="0" cy="201.93" r="2"/><circle cx="60" cy="165.03" r="2"/><circle cx="24" cy="83.76" r="2"/><circle cx="24" cy="48.89999999999998" r="2"/><circle cx="24" cy="4.859999999999998" r="2"/><circle cx="24" cy="17.909999999999993" r="2"/><circle cx="192" cy="15.990000000000004" r="2"/><circle cx="24" cy="136.74" r="2"/><circle cx="204.00000000000003" cy="185.79" r="2"/><circle cx="204.00000000000003" cy="224.34" r="2"/><circle cx="204.00000000000003" cy="265.86" r="2"/><circle cx="276" cy="272.58000000000004" r="2"/><circle/><circle cx="108" cy="212.70000000000002" r="2"/><circle cx="108" cy="20.760000000000012" r="2"/><circle cx="24" cy="183.59999999999997" r="2"/><circle cx="24" cy="172.52999999999997" r="2"/><circle cx="240" cy="147.9" r="2"/><circle cx="192" cy="122.07000000000001" r="2"/><circle cx="192" cy="133.98" r="2"/><circle cx="192" cy="89.76" r="2"/><circle cx="240" cy="137.37" r="2"/><circle cx="240" cy="194.27999999999997" r="2"/><circle cx="240" cy="217.29" r="2"/><circle cx="276" cy="215.19000000000003" r="2"/><circle cx="276" cy="196.04999999999998" r="2"/><circle cx="276" cy="130.86" r="2"/><circle cx="276" cy="123.42" r="2"/><circle cx="276" cy="113.51999999999998" r="2"/><circle/><circle cx="264" cy="188.88" r="2"/><circle cx="264" cy="164.01" r="2"/><circle cx="204.00000000000003" cy="175.47" r="2"/><circle cx="204.00000000000003" cy="218.76000000000002" r="2"/><circle cx="204.00000000000003" cy="217.62" r="2"/><circle cx="204.00000000000003" cy="181.17" r="2"/><circle cx="228" cy="152.31" r="2"/><circle cx="228" cy="55.98" r="2"/><circle cx="168.00000000000003" cy="66.99000000000005" r="2"/><circle cx="168.00000000000003" cy="93.03000000000002" r="2"/><circle cx="0" cy="197.82" r="2"/><circle cx="0" cy="113.84999999999998" r="2"/><circle cx="0" cy="163.35" r="2"/><circle cx="0" cy="188.61" r="2"/><circle cx="0" cy="144.84" r="2"/><circle cx="0" cy="112.71000000000001" r="2"/><circle/><circle cx="276" cy="253.98000000000002" r="2"/><circle cx="276" cy="104.85000000000001" r="2"/><circle cx="276" cy="155.67000000000002" r="2"/><circle cx="240" cy="194.91" r="2"/><circle cx="240" cy="203.64000000000001" r="2"/><circle cx="240" cy="185.55" r="2"/><circle cx="276" cy="188.55" r="2"/><circle cx="276" cy="133.83" r="2"/><circle cx="228" cy="97.59" r="2"/><circle cx="264" cy="38.43" r="2"/><circle cx="264" cy="65.79000000000002" r="2"/><circle cx="264" cy="91.53000000000002" r="2"/><circle cx="204.00000000000003" cy="117.24000000000001" r="2"/><circle cx="204.00000000000003" cy="150.45000000000002" r="2"/><circle cx="204.00000000000003" cy="6.989999999999997" r="2"/><circle cx="108" cy="0" r="2"/><circle/><circle cx="276" cy="220.08" r="2"/><circle cx="276" cy="239.16" r="2"/><circle cx="276" cy="266.46" r="2"/><circle cx="276" cy="277.47" r="2"/><circle cx="276" cy="198.27" r="2"/><circle cx="276" cy="184.11" r="2"/><circle cx="276" cy="85.40999999999998" r="2"/><circle cx="276" cy="111.78000000000002" r="2"/><circle cx="276" cy="108.35999999999999" r="2"/><circle cx="276" cy="118.71000000000002" r="2"/><circle cx="276" cy="176.18999999999997" r="2"/><circle cx="276" cy="176.96999999999997" r="2"/><circle cx="276" cy="203.96999999999997" r="2"/><circle cx="276" cy="98.64" r="2"/><circle cx="228" cy="71.34" r="2"/><circle/><circle cx="228" cy="260.31" r="2"/><circle cx="228" cy="75.78000000000002" r="2"/><circle cx="228" cy="158.85000000000002" r="2"/><circle cx="228" cy="206.04000000000002" r="2"/><circle cx="228" cy="164.43" r="2"/><circle cx="228" cy="151.5" r="2"/><circle cx="276" cy="146.37" r="2"/><circle cx="276" cy="141.54" r="2"/><circle/></g></g></svg>