<?xml version="1.0" standalone="no"?><!DOCTYPE svg PUBLIC "-//W3C//DTD SVG 20010904//EN" "http://www.w3.org/TR/2001/REC-SVG-20010904/DTD/svg10.dtd"><svg id="svg" version="1.0" xmlns="http://www.w3.org/2000/svg" width="380" height="380"><defs><style type="text/css"><![CDATA[.axis path,.axis line { fill: none; stroke: black; shape-rendering: crispEdges; } .axis text { font-family: sans-serif; font-size: 12px; } .line { stroke-width: 2; fill: none; } ]]></style> </defs><g transform="translate(40,40)"><g class="axis" style="fill:black;" transform="translate(0,300)"><g class="tick" style="opacity: 1;" transform="translate(0,0)"><line y2="6" x2="0"/><text dy=".71em" style="text-anchor: middle;" y="9" x="0">0</text></g><g class="tick" style="opacity: 1;" transform="translate(30,0)"><line y2="6" x2="0"/><text dy=".71em" style="text-anchor: middle;" y="9" x="0">10</text></g><g class="tick" style="opacity: 1;" transform="translate(60,0)"><line y2="6" x2="0"/><text dy=".71em" style="text-anchor: middle;" y="9" x="0">20</text></g><g class="tick" style="opacity: 1;" transform="translate(90,0)"><line y2="6" x2="0"/><text dy=".71em" style="text-anchor: middle;" y="9" x="0">30</text></g><g class="tick" style="opacity: 1;" transform="translate(120,0)"><line y2="6" x2="0"/><text dy=".71em" style="text-anchor: middle;" y="9" x="0">40</text></g><g class="tick" style="opacity: 1;" transform="translate(150,0)"><line y2="6" x2="0"/><text dy=".71em" style="text-anchor: middle;" y="9" x="0">50</text></g><g class="tick" style="opacity: 1;" transform="translate(180,0)"><line y2="6" x2="0"/><text dy=".71em" style="text-anchor: middle;" y="9" x="0">60</text></g><g class="tick" style="opacity: 1;" transform="translate(210,0)"><line y2="6" x2="0"/><text dy=".71em" style="text-anchor: middle;" y="9" x="0">70</text></g><g class="tick" style="opacity: 1;" transform="translate(240,0)"><line y2="6" x2="0"/><text dy=".71em" style="text-anchor: middle;" y="9" x="0">80</text></g><g class="tick" style="opacity: 1;" transform="translate(270,0)"><line y2="6" x2="0"/><text dy=".71em" style="text-anchor: middle;" y="9" x="0">90</text></g><g class="tick" style="opacity: 1;" transform="translate(300,0)"><line y2="6" x2="0"/><text dy=".71em" style="text-anchor: middle;" y="9" x="0">100</text></g><path class="domain" d="M0,6V0H300V6"/><text x="300" y="30" text-anchor="end">Clouds</text></g><g class="axis" style="fill:black;" transform=""><g class="tick" style="opacity: 1;" transform="translate(0,300)"><line x2="-6" y2="0"/><text dy=".32em" style="text-anchor: end;" x="-9" y="0">0</text></g><g class="tick" style="opacity: 1;" transform="translate(0,270)"><line x2="-6" y2="0"/><text dy=".32em" style="text-anchor: end;" x="-9" y="0">10</text></g><g class="tick" style="opacity: 1;" transform="translate(0,240)"><line x2="-6" y2="0"/><text dy=".32em" style="text-anchor: end;" x="-9" y="0">20</text></g><g class="tick" style="opacity: 1;" transform="translate(0,210)"><line x2="-6" y2="0"/><text dy=".32em" style="text-anchor: end;" x="-9" y="0">30</text></g><g class="tick" style="opacity: 1;" transform="translate(0,180)"><line x2="-6" y2="0"/><text dy=".32em" style="text-anchor: end;" x="-9" y="0">40</text></g><g class="tick" style="opacity: 1;" transform="translate(0,150)"><line x2="-6" y2="0"/><text dy=".32em" style="text-anchor: end;" x="-9" y="0">50</text></g><g class="tick" style="opacity: 1;" transform="translate(0,120)"><line x2="-6" y2="0"/><text dy=".32em" style="text-anchor: end;" x="-9" y="0">60</text></g><g class="tick" style="opacity: 1;" transform="translate(0,90.00000000000001)"><line x2="-6" y2="0"/><text dy=".32em" style="text-anchor: end;" x="-9" y="0">70</text></g><g class="tick" style="opacity: 1;" transform="translate(0,59.999999999999986)"><line x2="-6" y2="0"/><text dy=".32em" style="text-anchor: end;" x="-9" y="0">80</text></g><g class="tick" style="opacity: 1;" transform="translate(0,29.999999999999993)"><line x2="-6" y2="0"/><text dy=".32em" style="text-anchor: end;" x="-9" y="0">90</text></g><g class="tick" style="opacity: 1;" transform="translate(0,0)"><line x2="-6" y2="0"/><text dy=".32em" style="text-anchor: end;" x="-9" y="0">100</text></g><path class="domain" d="M-6,0H0V300H-6"/><text x="0" y="-10" text-anchor="end">Effect</text></g><g class="dot"><circle/><circle/><circle/><circle/><circle/><circle/><circle/><circle/><circle/><circle/><circle/><circle/><circle/><circle/><circle cx="0" cy="162.15" r="2"/><circle cx="72" cy="62.31" r="2"/><circle cx="36" cy="70.77" r="2"/><circle cx="276" cy="221.88000000000002" r="2"/><circle/><circle cx="108" cy="190.04999999999998" r="2"/><circle cx="0" cy="180.42" r="2"/><circle cx="144" cy="128.46" r="2"/><circle cx="144" cy="200.55000000000004" r="2"/><circle cx="96" cy="146.48999999999998" r="2"/><circle/><circle cx="276" cy="225.32999999999998" r="2"/><circle cx="0" cy="173.30999999999997" r="2"/><circle cx="72" cy="111.66" r="2"/><circle cx="168.00000000000003" cy="255.57" r="2"/><circle cx="228" cy="270.90000000000003" r="2"/><circle/><circle cx="0" cy="122.16" r="2"/><circle cx="96" cy="185.55" r="2"/><circle cx="0" cy="171.00000000000003" r="2"/><circle cx="96" cy="145.92000000000002" r="2"/><circle cx="276" cy="184.77000000000004" r="2"/><circle/><circle cx="0" cy="219.24" r="2"/><circle cx="0" cy="146.67" r="2"/><circle cx="24" cy="76.79999999999997" r="2"/><circle cx="0" cy="52.62000000000003" r="2"/><circle cx="0" cy="66.93000000000002" r="2"/><circle/><circle cx="0" cy="0" r="2"/><circle cx="0" cy="0" r="2"/><circle cx="24" cy="0" r="2"/><circle cx="96" cy="37.94999999999998" r="2"/><circle cx="192" cy="170.91" r="2"/><circle/><circle cx="276" cy="190.04999999999998" r="2"/><circle cx="264" cy="216.99" r="2"/><circle cx="240" cy="227.25000000000003" r="2"/><circle cx="228" cy="194.93999999999997" r="2"/><circle cx="228" cy="196.10999999999999" r="2"/><circle/><circle cx="108" cy="215.85000000000002" r="2"/><circle cx="276" cy="282.78" r="2"/><circle cx="300" cy="281.43" r="2"/><circle cx="276" cy="229.35000000000002" r="2"/><circle cx="276" cy="207.09" r="2"/><circle/><circle cx="276" cy="206.99999999999997" r="2"/><circle cx="264" cy="219.71999999999997" r="2"/><circle cx="228" cy="181.05" r="2"/><circle cx="240" cy="171.08999999999997" r="2"/><circle cx="276" cy="151.74" r="2"/><circle/><circle cx="276" cy="219.9" r="2"/><circle cx="276" cy="224.1" r="2"/><circle cx="276" cy="167.57999999999998" r="2"/><circle cx="264" cy="136.92000000000002" r="2"/><circle cx="204.00000000000003" cy="174.63000000000002" r="2"/><circle/><circle cx="24" cy="211.76999999999998" r="2"/><circle cx="36" cy="142.79999999999998" r="2"/><circle cx="108" cy="60.65999999999998" r="2"/><circle cx="72" cy="71.04000000000003" r="2"/><circle cx="0" cy="54.75" r="2"/><circle/><circle cx="204.00000000000003" cy="198.87" r="2"/><circle cx="276" cy="279.96000000000004" r="2"/><circle cx="276" cy="255.69000000000003" r="2"/><circle cx="276" cy="257.46" r="2"/><circle cx="228" cy="242.85" r="2"/><circle/><circle cx="168.00000000000003" cy="147.3" r="2"/><circle cx="0" cy="141" r="2"/><circle cx="72" cy="0" r="2"/><circle cx="0" cy="0" r="2"/><circle cx="0" cy="27.20999999999997" r="2"/><circle/><circle cx="108" cy="82.80000000000004" r="2"/><circle cx="132" cy="163.20000000000002" r="2"/><circle cx="144" cy="51.39" r="2"/><circle cx="240" cy="44.54999999999999" r="2"/><circle/><circle cx="276" cy="188.7" r="2"/><circle cx="276" cy="253.47" r="2"/><circle cx="276" cy="250.55999999999997" r="2"/><circle cx="276" cy="258.75" r="2"/><circle/><circle cx="276" cy="122.85" r="2"/><circle cx="0" cy="206.45999999999998" r="2"/><circle cx="276" cy="210.99" r="2"/><circle cx="276" cy="227.1" r="2"/><circle cx="276" cy="269.58" r="2"/><circle/><circle/><circle/><circle/><circle/><circle/><circle/><circle/><circle/><circle cx="276" cy="59.16000000000001" r="2"/><circle cx="0" cy="65.12999999999998" r="2"/><circle cx="0" cy="96.03000000000002" r="2"/><circle/><circle cx="228" cy="172.41" r="2"/><circle cx="240" cy="238.59" r="2"/><circle cx="276" cy="245.31" r="2"/><circle cx="276" cy="253.95000000000002" r="2"/><circle cx="108" cy="152.54999999999998" r="2"/><circle/><circle cx="276" cy="152.03999999999996" r="2"/><circle cx="168.00000000000003" cy="146.67" r="2"/><circle cx="276" cy="99.51" r="2"/><circle cx="276" cy="76.64999999999999" r="2"/><circle cx="276" cy="170.1" r="2"/><circle/><circle cx="276" cy="63.12000000000001" r="2"/><circle cx="228" cy="166.02000000000004" r="2"/><circle cx="276" cy="193.70999999999998" r="2"/><circle cx="276" cy="245.73" r="2"/><circle cx="276" cy="254.31" r="2"/><circle/><circle cx="228" cy="149.31" r="2"/><circle cx="276" cy="131.85" r="2"/><circle cx="72" cy="104.1" r="2"/><circle cx="276" cy="135.02999999999997" r="2"/><circle cx="276" cy="125.00999999999999" r="2"/><circle/><circle cx="144" cy="73.98000000000005" r="2"/><circle cx="276" cy="155.03999999999996" r="2"/><circle cx="96" cy="128.22" r="2"/><circle cx="276" cy="110.01" r="2"/><circle cx="264" cy="0" r="2"/><circle/><circle cx="276" cy="88.92" r="2"/><circle cx="204.00000000000003" cy="180.92999999999998" r="2"/><circle cx="240" cy="222.6" r="2"/><circle cx="132" cy="140.19000000000003" r="2"/><circle cx="276" cy="143.01" r="2"/><circle/><circle cx="276" cy="133.71" r="2"/><circle cx="276" cy="145.79999999999998" r="2"/><circle cx="168.00000000000003" cy="116.85" r="2"/><circle cx="36" cy="142.05" r="2"/><circle/><circle cx="0" cy="150" r="2"/><circle cx="60" cy="181.01999999999998" r="2"/><circle cx="0" cy="205.25999999999996" r="2"/><circle cx="0" cy="104.69999999999996" r="2"/><circle cx="0" cy="144.92999999999998" r="2"/><circle/><circle cx="36" cy="137.1" r="2"/><circle cx="0" cy="141.87" r="2"/><circle cx="24" cy="9.000000000000007" r="2"/><circle cx="192" cy="108.75000000000001" r="2"/><circle cx="204.00000000000003" cy="247.17" r="2"/><circle/><circle cx="108" cy="139.14" r="2"/><circle cx="24" cy="145.29" r="2"/><circle cx="192" cy="111.21000000000001" r="2"/><circle cx="240" cy="208.44" r="2"/><circle cx="276" cy="161.04" r="2"/><circle/><circle cx="264" cy="164.25" r="2"/><circle cx="204.00000000000003" cy="203.88" r="2"/><circle cx="228" cy="80.54999999999998" r="2"/><circle cx="168.00000000000003" cy="135.02999999999997" r="2"/><circle cx="0" cy="169.26" r="2"/><circle/><circle cx="276" cy="141.87" r="2"/><circle cx="240" cy="195.48" r="2"/><circle cx="276" cy="130.56" r="2"/><circle cx="264" cy="63.89999999999999" r="2"/><circle cx="204.00000000000003" cy="110.94000000000001" r="2"/><circle/><circle cx="276" cy="214.47" r="2"/><circle cx="276" cy="242.19" r="2"/><circle cx="276" cy="117.96" r="2"/><circle cx="276" cy="132.48" r="2"/><circle cx="276" cy="173.55" r="2"/><circle/><circle cx="228" cy="125.58" r="2"/><circle cx="228" cy="170.91" r="2"/><circle/></g></g></svg>